<?xml version="1.0" encoding="utf-8" standalone="no"?>
<!DOCTYPE svg PUBLIC "-//W3C//DTD SVG 1.1//EN"
  "http://www.w3.org/Graphics/SVG/1.1/DTD/svg11.dtd">
<!-- Created with matplotlib (https://matplotlib.org/) -->
<svg height="152.64pt" version="1.1" viewBox="0 0 238.104 152.64" width="238.104pt" xmlns="http://www.w3.org/2000/svg" xmlns:xlink="http://www.w3.org/1999/xlink">
 <metadata>
  <rdf:RDF xmlns:cc="http://creativecommons.org/ns#" xmlns:dc="http://purl.org/dc/elements/1.1/" xmlns:rdf="http://www.w3.org/1999/02/22-rdf-syntax-ns#">
   <cc:Work>
    <dc:type rdf:resource="http://purl.org/dc/dcmitype/StillImage"/>
    <dc:date>2024-02-21T12:38:22.931479</dc:date>
    <dc:format>image/svg+xml</dc:format>
    <dc:creator>
     <cc:Agent>
      <dc:title>Matplotlib v3.3.4, https://matplotlib.org/</dc:title>
     </cc:Agent>
    </dc:creator>
   </cc:Work>
  </rdf:RDF>
 </metadata>
 <defs>
  <style type="text/css">*{stroke-linecap:butt;stroke-linejoin:round;}</style>
 </defs>
 <g id="figure_1">
  <g id="patch_1">
   <path d="M 0 152.64 
L 238.104 152.64 
L 238.104 0 
L 0 0 
z
" style="fill:none;"/>
  </g>
  <g id="axes_1">
   <g id="patch_2">
    <path d="M 29.763 133.56 
L 214.2936 133.56 
L 214.2936 18.3168 
L 29.763 18.3168 
z
" style="fill:none;"/>
   </g>
   <g id="matplotlib.axis_1">
    <g id="xtick_1">
     <g id="line2d_1">
      <defs>
       <path d="M 0 0 
L 0 3.5 
" id="m126ec40b6d" style="stroke:#000000;stroke-width:0.8;"/>
      </defs>
      <g>
       <use style="stroke:#000000;stroke-width:0.8;" x="214.2936" xlink:href="#m126ec40b6d" y="133.56"/>
      </g>
     </g>
     <g id="text_1">
      <!-- −130 -->
      <g transform="translate(203.031881 147.717813)scale(0.1 -0.1)">
       <defs>
        <path d="M 52.828125 31.203125 
L 5.5625 31.203125 
L 5.5625 39.40625 
L 52.828125 39.40625 
z
" id="ArialMT-8722"/>
        <path d="M 37.25 0 
L 28.46875 0 
L 28.46875 56 
Q 25.296875 52.984375 20.140625 49.953125 
Q 14.984375 46.921875 10.890625 45.40625 
L 10.890625 53.90625 
Q 18.265625 57.375 23.78125 62.296875 
Q 29.296875 67.234375 31.59375 71.875 
L 37.25 71.875 
z
" id="ArialMT-49"/>
        <path d="M 4.203125 18.890625 
L 12.984375 20.0625 
Q 14.5 12.59375 18.140625 9.296875 
Q 21.78125 6 27 6 
Q 33.203125 6 37.46875 10.296875 
Q 41.75 14.59375 41.75 20.953125 
Q 41.75 27 37.796875 30.921875 
Q 33.84375 34.859375 27.734375 34.859375 
Q 25.25 34.859375 21.53125 33.890625 
L 22.515625 41.609375 
Q 23.390625 41.5 23.921875 41.5 
Q 29.546875 41.5 34.03125 44.421875 
Q 38.53125 47.359375 38.53125 53.46875 
Q 38.53125 58.296875 35.25 61.46875 
Q 31.984375 64.65625 26.8125 64.65625 
Q 21.6875 64.65625 18.265625 61.421875 
Q 14.84375 58.203125 13.875 51.765625 
L 5.078125 53.328125 
Q 6.6875 62.15625 12.390625 67.015625 
Q 18.109375 71.875 26.609375 71.875 
Q 32.46875 71.875 37.390625 69.359375 
Q 42.328125 66.84375 44.9375 62.5 
Q 47.5625 58.15625 47.5625 53.265625 
Q 47.5625 48.640625 45.0625 44.828125 
Q 42.578125 41.015625 37.703125 38.765625 
Q 44.046875 37.3125 47.5625 32.6875 
Q 51.078125 28.078125 51.078125 21.140625 
Q 51.078125 11.765625 44.234375 5.25 
Q 37.40625 -1.265625 26.953125 -1.265625 
Q 17.53125 -1.265625 11.296875 4.34375 
Q 5.078125 9.96875 4.203125 18.890625 
z
" id="ArialMT-51"/>
        <path d="M 4.15625 35.296875 
Q 4.15625 48 6.765625 55.734375 
Q 9.375 63.484375 14.515625 67.671875 
Q 19.671875 71.875 27.484375 71.875 
Q 33.25 71.875 37.59375 69.546875 
Q 41.9375 67.234375 44.765625 62.859375 
Q 47.609375 58.5 49.21875 52.21875 
Q 50.828125 45.953125 50.828125 35.296875 
Q 50.828125 22.703125 48.234375 14.96875 
Q 45.65625 7.234375 40.5 3 
Q 35.359375 -1.21875 27.484375 -1.21875 
Q 17.140625 -1.21875 11.234375 6.203125 
Q 4.15625 15.140625 4.15625 35.296875 
z
M 13.1875 35.296875 
Q 13.1875 17.671875 17.3125 11.828125 
Q 21.4375 6 27.484375 6 
Q 33.546875 6 37.671875 11.859375 
Q 41.796875 17.71875 41.796875 35.296875 
Q 41.796875 52.984375 37.671875 58.78125 
Q 33.546875 64.59375 27.390625 64.59375 
Q 21.34375 64.59375 17.71875 59.46875 
Q 13.1875 52.9375 13.1875 35.296875 
z
" id="ArialMT-48"/>
       </defs>
       <use xlink:href="#ArialMT-8722"/>
       <use x="58.398438" xlink:href="#ArialMT-49"/>
       <use x="114.013672" xlink:href="#ArialMT-51"/>
       <use x="169.628906" xlink:href="#ArialMT-48"/>
      </g>
     </g>
    </g>
    <g id="xtick_2">
     <g id="line2d_2">
      <g>
       <use style="stroke:#000000;stroke-width:0.8;" x="168.16095" xlink:href="#m126ec40b6d" y="133.56"/>
      </g>
     </g>
     <g id="text_2">
      <!-- −125 -->
      <g transform="translate(156.899231 147.717813)scale(0.1 -0.1)">
       <defs>
        <path d="M 50.34375 8.453125 
L 50.34375 0 
L 3.03125 0 
Q 2.9375 3.171875 4.046875 6.109375 
Q 5.859375 10.9375 9.828125 15.625 
Q 13.8125 20.3125 21.34375 26.46875 
Q 33.015625 36.03125 37.109375 41.625 
Q 41.21875 47.21875 41.21875 52.203125 
Q 41.21875 57.421875 37.46875 61 
Q 33.734375 64.59375 27.734375 64.59375 
Q 21.390625 64.59375 17.578125 60.78125 
Q 13.765625 56.984375 13.71875 50.25 
L 4.6875 51.171875 
Q 5.609375 61.28125 11.65625 66.578125 
Q 17.71875 71.875 27.9375 71.875 
Q 38.234375 71.875 44.234375 66.15625 
Q 50.25 60.453125 50.25 52 
Q 50.25 47.703125 48.484375 43.546875 
Q 46.734375 39.40625 42.65625 34.8125 
Q 38.578125 30.21875 29.109375 22.21875 
Q 21.1875 15.578125 18.9375 13.203125 
Q 16.703125 10.84375 15.234375 8.453125 
z
" id="ArialMT-50"/>
        <path d="M 4.15625 18.75 
L 13.375 19.53125 
Q 14.40625 12.796875 18.140625 9.390625 
Q 21.875 6 27.15625 6 
Q 33.5 6 37.890625 10.78125 
Q 42.28125 15.578125 42.28125 23.484375 
Q 42.28125 31 38.0625 35.34375 
Q 33.84375 39.703125 27 39.703125 
Q 22.75 39.703125 19.328125 37.765625 
Q 15.921875 35.84375 13.96875 32.765625 
L 5.71875 33.84375 
L 12.640625 70.609375 
L 48.25 70.609375 
L 48.25 62.203125 
L 19.671875 62.203125 
L 15.828125 42.96875 
Q 22.265625 47.46875 29.34375 47.46875 
Q 38.71875 47.46875 45.15625 40.96875 
Q 51.609375 34.46875 51.609375 24.265625 
Q 51.609375 14.546875 45.953125 7.46875 
Q 39.0625 -1.21875 27.15625 -1.21875 
Q 17.390625 -1.21875 11.203125 4.25 
Q 5.03125 9.71875 4.15625 18.75 
z
" id="ArialMT-53"/>
       </defs>
       <use xlink:href="#ArialMT-8722"/>
       <use x="58.398438" xlink:href="#ArialMT-49"/>
       <use x="114.013672" xlink:href="#ArialMT-50"/>
       <use x="169.628906" xlink:href="#ArialMT-53"/>
      </g>
     </g>
    </g>
    <g id="xtick_3">
     <g id="line2d_3">
      <g>
       <use style="stroke:#000000;stroke-width:0.8;" x="122.0283" xlink:href="#m126ec40b6d" y="133.56"/>
      </g>
     </g>
     <g id="text_3">
      <!-- −120 -->
      <g transform="translate(110.766581 147.717813)scale(0.1 -0.1)">
       <use xlink:href="#ArialMT-8722"/>
       <use x="58.398438" xlink:href="#ArialMT-49"/>
       <use x="114.013672" xlink:href="#ArialMT-50"/>
       <use x="169.628906" xlink:href="#ArialMT-48"/>
      </g>
     </g>
    </g>
    <g id="xtick_4">
     <g id="line2d_4">
      <g>
       <use style="stroke:#000000;stroke-width:0.8;" x="75.89565" xlink:href="#m126ec40b6d" y="133.56"/>
      </g>
     </g>
     <g id="text_4">
      <!-- −115 -->
      <g transform="translate(65.002681 147.717813)scale(0.1 -0.1)">
       <use xlink:href="#ArialMT-8722"/>
       <use x="58.398438" xlink:href="#ArialMT-49"/>
       <use x="106.638672" xlink:href="#ArialMT-49"/>
       <use x="162.253906" xlink:href="#ArialMT-53"/>
      </g>
     </g>
    </g>
    <g id="xtick_5">
     <g id="line2d_5">
      <g>
       <use style="stroke:#000000;stroke-width:0.8;" x="29.763" xlink:href="#m126ec40b6d" y="133.56"/>
      </g>
     </g>
     <g id="text_5">
      <!-- −110 -->
      <g transform="translate(18.870031 147.717813)scale(0.1 -0.1)">
       <use xlink:href="#ArialMT-8722"/>
       <use x="58.398438" xlink:href="#ArialMT-49"/>
       <use x="106.638672" xlink:href="#ArialMT-49"/>
       <use x="162.253906" xlink:href="#ArialMT-48"/>
      </g>
     </g>
    </g>
    <g id="text_6">
     <!-- $\mathrm{^{19}F}$ (ppm) -->
     <g transform="translate(100.0283 162.805313)scale(0.1 -0.1)">
      <defs>
       <path d="M 12.40625 8.296875 
L 28.515625 8.296875 
L 28.515625 63.921875 
L 10.984375 60.40625 
L 10.984375 69.390625 
L 28.421875 72.90625 
L 38.28125 72.90625 
L 38.28125 8.296875 
L 54.390625 8.296875 
L 54.390625 0 
L 12.40625 0 
z
" id="DejaVuSans-49"/>
       <path d="M 10.984375 1.515625 
L 10.984375 10.5 
Q 14.703125 8.734375 18.5 7.8125 
Q 22.3125 6.890625 25.984375 6.890625 
Q 35.75 6.890625 40.890625 13.453125 
Q 46.046875 20.015625 46.78125 33.40625 
Q 43.953125 29.203125 39.59375 26.953125 
Q 35.25 24.703125 29.984375 24.703125 
Q 19.046875 24.703125 12.671875 31.3125 
Q 6.296875 37.9375 6.296875 49.421875 
Q 6.296875 60.640625 12.9375 67.421875 
Q 19.578125 74.21875 30.609375 74.21875 
Q 43.265625 74.21875 49.921875 64.515625 
Q 56.59375 54.828125 56.59375 36.375 
Q 56.59375 19.140625 48.40625 8.859375 
Q 40.234375 -1.421875 26.421875 -1.421875 
Q 22.703125 -1.421875 18.890625 -0.6875 
Q 15.09375 0.046875 10.984375 1.515625 
z
M 30.609375 32.421875 
Q 37.25 32.421875 41.125 36.953125 
Q 45.015625 41.5 45.015625 49.421875 
Q 45.015625 57.28125 41.125 61.84375 
Q 37.25 66.40625 30.609375 66.40625 
Q 23.96875 66.40625 20.09375 61.84375 
Q 16.21875 57.28125 16.21875 49.421875 
Q 16.21875 41.5 20.09375 36.953125 
Q 23.96875 32.421875 30.609375 32.421875 
z
" id="DejaVuSans-57"/>
       <path d="M 9.8125 72.90625 
L 51.703125 72.90625 
L 51.703125 64.59375 
L 19.671875 64.59375 
L 19.671875 43.109375 
L 48.578125 43.109375 
L 48.578125 34.8125 
L 19.671875 34.8125 
L 19.671875 0 
L 9.8125 0 
z
" id="DejaVuSans-70"/>
       <path id="ArialMT-32"/>
       <path d="M 23.390625 -21.046875 
Q 16.109375 -11.859375 11.078125 0.4375 
Q 6.0625 12.75 6.0625 25.921875 
Q 6.0625 37.546875 9.8125 48.1875 
Q 14.203125 60.546875 23.390625 72.796875 
L 29.6875 72.796875 
Q 23.78125 62.640625 21.875 58.296875 
Q 18.890625 51.5625 17.1875 44.234375 
Q 15.09375 35.109375 15.09375 25.875 
Q 15.09375 2.390625 29.6875 -21.046875 
z
" id="ArialMT-40"/>
       <path d="M 6.59375 -19.875 
L 6.59375 51.859375 
L 14.59375 51.859375 
L 14.59375 45.125 
Q 17.4375 49.078125 21 51.046875 
Q 24.5625 53.03125 29.640625 53.03125 
Q 36.28125 53.03125 41.359375 49.609375 
Q 46.4375 46.1875 49.015625 39.953125 
Q 51.609375 33.734375 51.609375 26.3125 
Q 51.609375 18.359375 48.75 11.984375 
Q 45.90625 5.609375 40.453125 2.21875 
Q 35.015625 -1.171875 29 -1.171875 
Q 24.609375 -1.171875 21.109375 0.6875 
Q 17.625 2.546875 15.375 5.375 
L 15.375 -19.875 
z
M 14.546875 25.640625 
Q 14.546875 15.625 18.59375 10.84375 
Q 22.65625 6.0625 28.421875 6.0625 
Q 34.28125 6.0625 38.453125 11.015625 
Q 42.625 15.96875 42.625 26.375 
Q 42.625 36.28125 38.546875 41.203125 
Q 34.46875 46.140625 28.8125 46.140625 
Q 23.1875 46.140625 18.859375 40.890625 
Q 14.546875 35.640625 14.546875 25.640625 
z
" id="ArialMT-112"/>
       <path d="M 6.59375 0 
L 6.59375 51.859375 
L 14.453125 51.859375 
L 14.453125 44.578125 
Q 16.890625 48.390625 20.9375 50.703125 
Q 25 53.03125 30.171875 53.03125 
Q 35.9375 53.03125 39.625 50.640625 
Q 43.3125 48.25 44.828125 43.953125 
Q 50.984375 53.03125 60.84375 53.03125 
Q 68.5625 53.03125 72.703125 48.75 
Q 76.859375 44.484375 76.859375 35.59375 
L 76.859375 0 
L 68.109375 0 
L 68.109375 32.671875 
Q 68.109375 37.9375 67.25 40.25 
Q 66.40625 42.578125 64.15625 43.984375 
Q 61.921875 45.40625 58.890625 45.40625 
Q 53.421875 45.40625 49.796875 41.765625 
Q 46.1875 38.140625 46.1875 30.125 
L 46.1875 0 
L 37.40625 0 
L 37.40625 33.6875 
Q 37.40625 39.546875 35.25 42.46875 
Q 33.109375 45.40625 28.21875 45.40625 
Q 24.515625 45.40625 21.359375 43.453125 
Q 18.21875 41.5 16.796875 37.734375 
Q 15.375 33.984375 15.375 26.90625 
L 15.375 0 
z
" id="ArialMT-109"/>
       <path d="M 12.359375 -21.046875 
L 6.0625 -21.046875 
Q 20.65625 2.390625 20.65625 25.875 
Q 20.65625 35.0625 18.5625 44.09375 
Q 16.890625 51.421875 13.921875 58.15625 
Q 12.015625 62.546875 6.0625 72.796875 
L 12.359375 72.796875 
Q 21.53125 60.546875 25.921875 48.1875 
Q 29.6875 37.546875 29.6875 25.921875 
Q 29.6875 12.75 24.625 0.4375 
Q 19.578125 -11.859375 12.359375 -21.046875 
z
" id="ArialMT-41"/>
      </defs>
      <use transform="translate(0.957031 39.046875)scale(0.7)" xlink:href="#DejaVuSans-49"/>
      <use transform="translate(45.493164 39.046875)scale(0.7)" xlink:href="#DejaVuSans-57"/>
      <use transform="translate(92.763672 0.765625)" xlink:href="#DejaVuSans-70"/>
      <use transform="translate(150.283203 0.765625)" xlink:href="#ArialMT-32"/>
      <use transform="translate(178.066406 0.765625)" xlink:href="#ArialMT-40"/>
      <use transform="translate(211.367188 0.765625)" xlink:href="#ArialMT-112"/>
      <use transform="translate(266.982422 0.765625)" xlink:href="#ArialMT-112"/>
      <use transform="translate(322.597656 0.765625)" xlink:href="#ArialMT-109"/>
      <use transform="translate(405.898438 0.765625)" xlink:href="#ArialMT-41"/>
     </g>
    </g>
   </g>
   <g id="matplotlib.axis_2">
    <g id="ytick_1">
     <g id="line2d_6">
      <defs>
       <path d="M 0 0 
L -3.5 0 
" id="m81d87f8314" style="stroke:#000000;stroke-width:0.8;"/>
      </defs>
      <g>
       <use style="stroke:#000000;stroke-width:0.8;" x="29.763" xlink:href="#m81d87f8314" y="123.493851"/>
      </g>
     </g>
    </g>
    <g id="ytick_2">
     <g id="line2d_7">
      <g>
       <use style="stroke:#000000;stroke-width:0.8;" x="29.763" xlink:href="#m81d87f8314" y="93.218313"/>
      </g>
     </g>
    </g>
    <g id="ytick_3">
     <g id="line2d_8">
      <g>
       <use style="stroke:#000000;stroke-width:0.8;" x="29.763" xlink:href="#m81d87f8314" y="62.942775"/>
      </g>
     </g>
    </g>
    <g id="ytick_4">
     <g id="line2d_9">
      <g>
       <use style="stroke:#000000;stroke-width:0.8;" x="29.763" xlink:href="#m81d87f8314" y="32.667236"/>
      </g>
     </g>
    </g>
    <g id="text_7">
     <!-- Intensity -->
     <g transform="translate(16.658312 94.557931)rotate(-90)scale(0.1 -0.1)">
      <defs>
       <path d="M 9.328125 0 
L 9.328125 71.578125 
L 18.796875 71.578125 
L 18.796875 0 
z
" id="ArialMT-73"/>
       <path d="M 6.59375 0 
L 6.59375 51.859375 
L 14.5 51.859375 
L 14.5 44.484375 
Q 20.21875 53.03125 31 53.03125 
Q 35.6875 53.03125 39.625 51.34375 
Q 43.5625 49.65625 45.515625 46.921875 
Q 47.46875 44.1875 48.25 40.4375 
Q 48.734375 37.984375 48.734375 31.890625 
L 48.734375 0 
L 39.9375 0 
L 39.9375 31.546875 
Q 39.9375 36.921875 38.90625 39.578125 
Q 37.890625 42.234375 35.28125 43.8125 
Q 32.671875 45.40625 29.15625 45.40625 
Q 23.53125 45.40625 19.453125 41.84375 
Q 15.375 38.28125 15.375 28.328125 
L 15.375 0 
z
" id="ArialMT-110"/>
       <path d="M 25.78125 7.859375 
L 27.046875 0.09375 
Q 23.34375 -0.6875 20.40625 -0.6875 
Q 15.625 -0.6875 12.984375 0.828125 
Q 10.359375 2.34375 9.28125 4.8125 
Q 8.203125 7.28125 8.203125 15.1875 
L 8.203125 45.015625 
L 1.765625 45.015625 
L 1.765625 51.859375 
L 8.203125 51.859375 
L 8.203125 64.703125 
L 16.9375 69.96875 
L 16.9375 51.859375 
L 25.78125 51.859375 
L 25.78125 45.015625 
L 16.9375 45.015625 
L 16.9375 14.703125 
Q 16.9375 10.9375 17.40625 9.859375 
Q 17.875 8.796875 18.921875 8.15625 
Q 19.96875 7.515625 21.921875 7.515625 
Q 23.390625 7.515625 25.78125 7.859375 
z
" id="ArialMT-116"/>
       <path d="M 42.09375 16.703125 
L 51.171875 15.578125 
Q 49.03125 7.625 43.21875 3.21875 
Q 37.40625 -1.171875 28.375 -1.171875 
Q 17 -1.171875 10.328125 5.828125 
Q 3.65625 12.84375 3.65625 25.484375 
Q 3.65625 38.578125 10.390625 45.796875 
Q 17.140625 53.03125 27.875 53.03125 
Q 38.28125 53.03125 44.875 45.953125 
Q 51.46875 38.875 51.46875 26.03125 
Q 51.46875 25.25 51.421875 23.6875 
L 12.75 23.6875 
Q 13.234375 15.140625 17.578125 10.59375 
Q 21.921875 6.0625 28.421875 6.0625 
Q 33.25 6.0625 36.671875 8.59375 
Q 40.09375 11.140625 42.09375 16.703125 
z
M 13.234375 30.90625 
L 42.1875 30.90625 
Q 41.609375 37.453125 38.875 40.71875 
Q 34.671875 45.796875 27.984375 45.796875 
Q 21.921875 45.796875 17.796875 41.75 
Q 13.671875 37.703125 13.234375 30.90625 
z
" id="ArialMT-101"/>
       <path d="M 3.078125 15.484375 
L 11.765625 16.84375 
Q 12.5 11.625 15.84375 8.84375 
Q 19.1875 6.0625 25.203125 6.0625 
Q 31.25 6.0625 34.171875 8.515625 
Q 37.109375 10.984375 37.109375 14.3125 
Q 37.109375 17.28125 34.515625 19 
Q 32.71875 20.171875 25.53125 21.96875 
Q 15.875 24.421875 12.140625 26.203125 
Q 8.40625 27.984375 6.46875 31.125 
Q 4.546875 34.28125 4.546875 38.09375 
Q 4.546875 41.546875 6.125 44.5 
Q 7.71875 47.46875 10.453125 49.421875 
Q 12.5 50.921875 16.03125 51.96875 
Q 19.578125 53.03125 23.640625 53.03125 
Q 29.734375 53.03125 34.34375 51.265625 
Q 38.96875 49.515625 41.15625 46.5 
Q 43.359375 43.5 44.1875 38.484375 
L 35.59375 37.3125 
Q 35.015625 41.3125 32.203125 43.546875 
Q 29.390625 45.796875 24.265625 45.796875 
Q 18.21875 45.796875 15.625 43.796875 
Q 13.03125 41.796875 13.03125 39.109375 
Q 13.03125 37.40625 14.109375 36.03125 
Q 15.1875 34.625 17.484375 33.6875 
Q 18.796875 33.203125 25.25 31.453125 
Q 34.578125 28.953125 38.25 27.359375 
Q 41.9375 25.78125 44.03125 22.75 
Q 46.140625 19.734375 46.140625 15.234375 
Q 46.140625 10.84375 43.578125 6.953125 
Q 41.015625 3.078125 36.171875 0.953125 
Q 31.34375 -1.171875 25.25 -1.171875 
Q 15.140625 -1.171875 9.84375 3.03125 
Q 4.546875 7.234375 3.078125 15.484375 
z
" id="ArialMT-115"/>
       <path d="M 6.640625 61.46875 
L 6.640625 71.578125 
L 15.4375 71.578125 
L 15.4375 61.46875 
z
M 6.640625 0 
L 6.640625 51.859375 
L 15.4375 51.859375 
L 15.4375 0 
z
" id="ArialMT-105"/>
       <path d="M 6.203125 -19.96875 
L 5.21875 -11.71875 
Q 8.109375 -12.5 10.25 -12.5 
Q 13.1875 -12.5 14.9375 -11.515625 
Q 16.703125 -10.546875 17.828125 -8.796875 
Q 18.65625 -7.46875 20.515625 -2.25 
Q 20.75 -1.515625 21.296875 -0.09375 
L 1.609375 51.859375 
L 11.078125 51.859375 
L 21.875 21.828125 
Q 23.96875 16.109375 25.640625 9.8125 
Q 27.15625 15.875 29.25 21.625 
L 40.328125 51.859375 
L 49.125 51.859375 
L 29.390625 -0.875 
Q 26.21875 -9.421875 24.46875 -12.640625 
Q 22.125 -17 19.09375 -19.015625 
Q 16.0625 -21.046875 11.859375 -21.046875 
Q 9.328125 -21.046875 6.203125 -19.96875 
z
" id="ArialMT-121"/>
      </defs>
      <use xlink:href="#ArialMT-73"/>
      <use x="27.783203" xlink:href="#ArialMT-110"/>
      <use x="83.398438" xlink:href="#ArialMT-116"/>
      <use x="111.181641" xlink:href="#ArialMT-101"/>
      <use x="166.796875" xlink:href="#ArialMT-110"/>
      <use x="222.412109" xlink:href="#ArialMT-115"/>
      <use x="272.412109" xlink:href="#ArialMT-105"/>
      <use x="294.628906" xlink:href="#ArialMT-116"/>
      <use x="322.412109" xlink:href="#ArialMT-121"/>
     </g>
    </g>
   </g>
   <g id="line2d_10">
    <path clip-path="url(#p0c6f93ac25)" d="M 214.32588 122.776055 
L 214.189748 123.170724 
L 214.053616 121.687557 
L 213.98555 121.755202 
L 213.917484 121.339904 
L 213.713286 123.746568 
L 213.64522 123.39981 
L 213.577154 122.806858 
L 213.509088 123.733949 
L 213.441022 123.182982 
L 213.304889 121.329645 
L 213.168757 123.998279 
L 213.100691 123.20259 
L 213.032625 122.519267 
L 212.964559 122.866553 
L 212.896493 122.885831 
L 212.760361 123.464671 
L 212.624229 121.836584 
L 212.556163 122.006579 
L 212.420031 124.022229 
L 212.283899 121.935713 
L 212.215832 120.738234 
L 212.147766 121.007413 
L 212.0797 120.926127 
L 211.943568 123.170487 
L 211.875502 122.816719 
L 211.603238 120.144371 
L 211.39904 123.168708 
L 211.330974 122.928905 
L 211.126775 120.814438 
L 211.058709 121.763472 
L 210.990643 121.716293 
L 210.922577 121.252836 
L 210.718379 123.520526 
L 210.514181 120.076358 
L 210.378049 123.07379 
L 210.309983 122.75633 
L 210.173851 125.813785 
L 210.105785 124.97436 
L 210.037718 124.402078 
L 209.969652 124.799044 
L 209.83352 122.866447 
L 209.697388 124.677298 
L 209.561256 123.460639 
L 209.49319 123.565024 
L 209.425124 125.054613 
L 209.357058 124.303914 
L 209.15286 121.855931 
L 209.016728 123.343909 
L 208.948661 123.428585 
L 208.880595 124.056681 
L 208.608331 120.443514 
L 208.540265 120.506838 
L 208.336067 125.181047 
L 208.268001 125.153223 
L 207.859604 121.800484 
L 207.655406 119.801147 
L 207.519274 123.027145 
L 207.451208 122.970737 
L 207.383142 122.157689 
L 207.178944 126.202873 
L 207.042812 123.028391 
L 206.702481 128.321673 
L 206.430217 125.099986 
L 206.021821 122.491053 
L 205.885689 124.560259 
L 205.817623 124.821407 
L 205.749557 124.661869 
L 205.545358 123.120451 
L 205.409226 124.748587 
L 205.00083 121.439164 
L 204.864698 124.459361 
L 204.796632 124.391005 
L 204.728566 123.483596 
L 204.6605 123.793827 
L 204.456301 125.329743 
L 204.320169 123.381389 
L 204.252103 125.30854 
L 204.184037 124.557857 
L 204.047905 122.818857 
L 203.843707 121.670721 
L 203.639509 125.452318 
L 203.571443 125.148148 
L 203.43531 125.928188 
L 203.163046 122.354971 
L 203.026914 122.713072 
L 202.890782 124.232707 
L 202.822716 123.91884 
L 202.75465 124.188327 
L 202.686584 123.691293 
L 202.550452 121.91543 
L 202.482386 124.641408 
L 202.414319 124.13263 
L 202.346253 123.104548 
L 202.278187 124.188232 
L 202.210121 123.580554 
L 202.142055 123.695391 
L 202.073989 124.690255 
L 202.005923 124.043106 
L 201.937857 124.384717 
L 201.869791 125.32885 
L 201.801725 125.221443 
L 201.665593 123.912726 
L 201.529461 125.959334 
L 201.393329 124.792618 
L 201.325263 126.137952 
L 201.257196 125.510739 
L 201.18913 125.273387 
L 201.052998 123.67935 
L 200.916866 125.516833 
L 200.372338 120.751569 
L 200.100073 124.094323 
L 200.032007 124.292105 
L 199.963941 123.777215 
L 199.827809 121.885037 
L 199.759743 121.791614 
L 199.691677 121.064597 
L 199.487479 123.520684 
L 199.351347 124.191184 
L 199.215215 125.799472 
L 199.011016 123.638465 
L 198.94295 124.921578 
L 198.874884 124.805728 
L 198.738752 123.122692 
L 198.670686 124.067027 
L 198.60262 124.055598 
L 198.398422 122.929802 
L 198.058092 126.364781 
L 197.921959 123.785733 
L 197.853893 123.818268 
L 197.717761 122.697784 
L 197.649695 123.201794 
L 197.581629 124.673382 
L 197.513563 124.635335 
L 197.445497 124.545229 
L 197.377431 124.616423 
L 197.309365 125.21808 
L 197.173233 123.325284 
L 197.105167 123.868689 
L 197.037101 121.677718 
L 196.969035 121.978889 
L 196.764836 124.536312 
L 196.69677 124.3969 
L 196.560638 122.407816 
L 196.424506 124.36715 
L 196.35644 124.350271 
L 196.220308 126.003325 
L 195.948044 122.735668 
L 195.743845 124.976092 
L 195.675779 125.173379 
L 195.539647 126.745142 
L 195.267383 123.110335 
L 195.199317 123.579599 
L 195.063185 126.578837 
L 194.790921 121.93826 
L 194.586722 127.56495 
L 194.45059 124.841008 
L 194.314458 125.583986 
L 194.246392 125.443403 
L 194.178326 124.741876 
L 194.042194 126.174758 
L 193.906062 124.595996 
L 193.837996 124.831459 
L 193.701864 122.65348 
L 193.633797 123.92178 
L 193.565731 123.729864 
L 193.361533 121.675987 
L 193.225401 121.51541 
L 193.089269 123.779734 
L 193.021203 122.672054 
L 192.953137 122.266936 
L 192.680873 123.705072 
L 192.476674 125.651423 
L 192.272476 123.233281 
L 191.932146 126.026003 
L 191.727948 124.474066 
L 191.659882 125.231567 
L 191.591816 125.194291 
L 191.387617 122.113872 
L 191.319551 122.217585 
L 191.251485 123.246535 
L 191.115353 121.997718 
L 191.047287 122.467016 
L 190.979221 121.971307 
L 190.843089 122.972307 
L 190.775023 122.035686 
L 190.706957 122.26426 
L 190.638891 123.99552 
L 190.570825 123.456046 
L 190.434693 121.055252 
L 190.366626 121.145364 
L 190.094362 123.974208 
L 190.026296 123.007801 
L 189.754032 125.639398 
L 189.6179 125.346437 
L 189.481768 122.416807 
L 189.413702 122.758947 
L 189.277569 121.764182 
L 189.073371 124.286197 
L 188.937239 122.495927 
L 188.801107 123.686551 
L 188.733041 123.469205 
L 188.460777 121.852466 
L 188.392711 122.164399 
L 188.256579 124.790375 
L 188.188512 123.76684 
L 188.120446 122.349699 
L 188.05238 122.603638 
L 187.780116 121.530426 
L 187.439786 125.299442 
L 187.37172 124.995442 
L 187.235588 122.167957 
L 187.167522 123.008413 
L 187.099455 125.309077 
L 187.031389 125.293219 
L 186.963323 124.643618 
L 186.895257 124.717263 
L 186.827191 125.52905 
L 186.759125 125.259926 
L 186.554927 122.582432 
L 186.486861 122.97969 
L 186.418795 124.603039 
L 186.350729 124.237524 
L 186.282663 122.363962 
L 186.214597 122.474966 
L 186.078465 123.707764 
L 185.874266 122.300439 
L 185.8062 121.64411 
L 185.602002 124.625524 
L 185.46587 125.103226 
L 185.329738 121.890627 
L 185.193606 125.093181 
L 185.12554 124.99278 
L 184.989408 123.344568 
L 184.921342 123.780655 
L 184.853275 124.933509 
L 184.512945 120.950711 
L 184.444879 121.091013 
L 184.376813 120.23447 
L 184.308747 120.31659 
L 184.172615 123.883922 
L 184.104549 122.890124 
L 184.036483 123.249996 
L 183.900351 124.672633 
L 183.764218 122.468466 
L 183.696152 122.562038 
L 183.628086 123.456788 
L 183.355822 121.340297 
L 183.21969 123.085313 
L 183.015492 122.146948 
L 182.87936 122.862373 
L 182.607095 125.426906 
L 182.539029 125.097043 
L 182.402897 123.440512 
L 182.062567 126.373652 
L 181.994501 125.736338 
L 181.926435 125.839896 
L 181.858369 125.546683 
L 181.654171 124.116903 
L 181.518038 123.521544 
L 181.31384 125.373111 
L 181.177708 123.94126 
L 181.109642 124.067656 
L 181.041576 123.714444 
L 180.97351 124.984281 
L 180.905444 124.243655 
L 180.837378 123.684871 
L 180.769312 125.390868 
L 180.701246 125.241511 
L 180.565114 122.32155 
L 180.428981 123.659261 
L 180.224783 121.035299 
L 180.156717 120.874642 
L 179.952519 122.789262 
L 179.884453 123.471447 
L 179.816387 122.507692 
L 179.748321 122.519241 
L 179.476057 123.886274 
L 179.339924 122.84939 
L 179.135726 125.458369 
L 179.06766 125.282849 
L 178.795396 122.927564 
L 178.72733 123.407517 
L 178.455066 119.385502 
L 178.182801 109.433526 
L 177.910537 122.048626 
L 177.706339 123.990166 
L 177.638273 124.425851 
L 177.502141 122.621737 
L 177.366009 123.8907 
L 177.093744 120.919194 
L 176.889546 122.268718 
L 176.617282 123.807509 
L 176.549216 122.77011 
L 176.413084 124.624172 
L 176.208886 121.722204 
L 176.140819 122.225065 
L 176.072753 122.453889 
L 175.868555 120.237018 
L 175.800489 120.155749 
L 175.664357 121.845436 
L 175.596291 120.96891 
L 175.528225 123.294459 
L 175.460159 123.240064 
L 175.392093 121.550803 
L 175.324027 122.40525 
L 175.119829 123.839658 
L 174.91563 120.269643 
L 174.779498 121.050575 
L 174.5753 123.393813 
L 174.507234 122.349325 
L 174.166904 126.084333 
L 174.030772 125.417269 
L 173.894639 127.330925 
L 173.690441 124.841985 
L 173.622375 124.924533 
L 173.554309 124.668284 
L 173.486243 121.664405 
L 173.418177 121.879802 
L 173.282045 123.097006 
L 173.213979 121.892544 
L 173.077847 124.519396 
L 173.009781 124.248005 
L 172.805582 121.535754 
L 172.737516 122.076444 
L 172.66945 122.831987 
L 172.601384 122.730265 
L 172.533318 121.179572 
L 172.465252 121.601798 
L 172.397186 122.211133 
L 172.32912 121.905173 
L 172.192988 125.896153 
L 171.920724 123.031954 
L 171.852658 123.637906 
L 171.784591 122.427538 
L 171.716525 122.946717 
L 171.648459 122.758506 
L 171.580393 121.551843 
L 171.512327 122.148293 
L 171.444261 121.967623 
L 171.308129 120.962041 
L 171.103931 124.467263 
L 170.967799 123.264785 
L 170.899733 123.553305 
L 170.831667 124.055319 
L 170.763601 123.921194 
L 170.695534 123.682568 
L 170.559402 125.19778 
L 170.491336 124.745499 
L 170.219072 123.291623 
L 170.08294 124.182854 
L 170.014874 122.748604 
L 169.946808 123.166717 
L 169.878742 123.953032 
L 169.74261 122.558097 
L 169.606478 123.927168 
L 169.538411 123.209823 
L 169.334213 120.624418 
L 169.266147 120.89801 
L 169.130015 123.023397 
L 169.061949 121.257715 
L 168.721619 125.431262 
L 168.653553 125.11253 
L 168.449354 122.645651 
L 168.313222 121.507555 
L 168.17709 124.544032 
L 168.109024 124.292407 
L 167.972892 121.950313 
L 167.768694 124.372007 
L 167.700628 123.888095 
L 167.632562 124.3981 
L 167.49643 122.78603 
L 167.428364 124.965932 
L 167.360297 124.908258 
L 167.224165 126.930274 
L 167.088033 124.447967 
L 166.951901 120.954844 
L 166.883835 121.831091 
L 166.815769 121.586256 
L 166.747703 121.162552 
L 166.679637 121.294499 
L 166.407373 124.342785 
L 166.27124 123.084907 
L 166.135108 123.949229 
L 165.862844 122.514909 
L 165.726712 123.838978 
L 165.658646 123.60135 
L 165.522514 121.280775 
L 165.386382 121.887925 
L 165.25025 123.215366 
L 165.046051 121.184115 
L 164.977985 121.822166 
L 164.841853 125.676807 
L 164.433457 120.267333 
L 163.956994 124.948441 
L 163.752796 123.097975 
L 163.68473 122.601332 
L 163.616664 124.171721 
L 163.412466 122.231002 
L 163.3444 122.171646 
L 163.276334 122.294998 
L 163.208268 121.54718 
L 163.004069 123.469743 
L 162.867937 121.827861 
L 162.731805 122.798418 
L 162.595673 121.587563 
L 162.459541 125.347075 
L 162.391475 124.404961 
L 162.323409 124.358131 
L 162.255343 123.921219 
L 162.187277 122.751981 
L 162.119211 122.987353 
L 162.051145 123.89948 
L 161.983079 123.84188 
L 161.915012 123.133415 
L 161.846946 123.969597 
L 161.77888 122.440806 
L 161.710814 122.518957 
L 161.506616 124.012505 
L 161.43855 125.229474 
L 161.370484 124.940433 
L 161.234352 123.017767 
L 161.166286 123.056763 
L 161.09822 123.422441 
L 160.962088 124.752496 
L 160.894022 123.945467 
L 160.757889 124.672441 
L 160.689823 123.695614 
L 160.621757 124.672194 
L 160.553691 124.409594 
L 160.417559 122.784686 
L 160.349493 122.942711 
L 160.145295 124.191116 
L 160.009163 122.980364 
L 159.873031 121.298345 
L 159.736898 121.971113 
L 159.600766 124.603308 
L 159.5327 123.862785 
L 159.464634 123.793064 
L 159.396568 123.975637 
L 159.328502 123.249466 
L 159.260436 123.352317 
L 159.19237 124.252804 
L 159.124304 123.69344 
L 158.988172 122.444239 
L 158.715908 124.737836 
L 158.579775 123.563092 
L 158.511709 124.945959 
L 158.443643 124.63464 
L 158.171379 120.291287 
L 157.831049 125.226771 
L 157.762983 124.61704 
L 157.558784 123.062211 
L 157.422652 124.343104 
L 157.28652 122.09006 
L 157.218454 122.677332 
L 157.150388 123.803208 
L 157.082322 123.601126 
L 157.014256 123.365059 
L 156.810058 124.363258 
L 156.741992 124.370933 
L 156.537794 121.404357 
L 156.197463 124.831976 
L 156.061331 124.57892 
L 155.993265 125.560271 
L 155.925199 125.152086 
L 155.789067 123.075282 
L 155.721001 123.856673 
L 155.652935 123.308952 
L 155.584869 123.440173 
L 155.516803 123.498375 
L 155.448737 123.719326 
L 155.176472 127.231756 
L 154.836142 122.318217 
L 154.768076 122.68271 
L 154.631944 123.926136 
L 154.35968 121.776267 
L 154.223547 124.585325 
L 154.155481 124.010348 
L 154.019349 125.941561 
L 153.883217 122.892654 
L 153.815151 123.804577 
L 153.747085 123.601408 
L 153.679019 123.565306 
L 153.610953 122.408019 
L 153.542887 122.458178 
L 153.338689 126.09335 
L 153.202557 125.729147 
L 153.13449 125.70744 
L 152.930292 122.908343 
L 152.726094 126.247062 
L 152.521896 123.794982 
L 152.45383 124.01637 
L 152.317698 125.167505 
L 152.045433 119.839874 
L 151.909301 120.203894 
L 151.841235 121.839159 
L 151.773169 121.746215 
L 151.705103 121.511398 
L 151.568971 123.855192 
L 151.228641 121.203001 
L 151.160575 121.393888 
L 151.092509 121.464083 
L 150.956376 122.773669 
L 150.88831 122.581916 
L 150.820244 122.272843 
L 150.54798 123.702613 
L 150.411848 123.437956 
L 150.275716 125.306616 
L 150.20765 124.84886 
L 150.139584 125.26229 
L 150.071518 125.056768 
L 150.003452 124.973592 
L 149.867319 123.965023 
L 149.731187 124.508704 
L 149.595055 122.560929 
L 149.458923 123.769433 
L 149.390857 123.626768 
L 149.322791 123.046657 
L 149.186659 124.172479 
L 149.050527 122.266225 
L 148.982461 122.405652 
L 148.846329 120.337445 
L 148.710196 123.720777 
L 148.64213 123.116642 
L 148.505998 121.851165 
L 148.369866 122.266646 
L 148.3018 121.118868 
L 148.233734 121.404726 
L 148.029536 122.934988 
L 147.96147 122.272682 
L 147.893404 122.411692 
L 147.825338 122.037753 
L 147.553073 124.344653 
L 147.416941 124.200335 
L 147.348875 123.49852 
L 147.280809 123.764734 
L 147.144677 124.439722 
L 147.008545 122.501168 
L 146.940479 122.924877 
L 146.872413 124.141364 
L 146.804347 123.418314 
L 146.736281 123.841121 
L 146.668215 123.6664 
L 146.600148 121.980548 
L 146.532082 122.414909 
L 146.39595 123.671035 
L 146.191752 124.473873 
L 146.123686 124.309986 
L 145.919488 122.062113 
L 145.851422 122.772194 
L 145.783356 122.649739 
L 145.647224 123.682053 
L 145.511091 123.183436 
L 145.374959 123.540379 
L 145.306893 123.421978 
L 145.238827 123.868053 
L 145.102695 123.158812 
L 145.034629 123.190756 
L 144.966563 122.648267 
L 144.762365 124.520546 
L 144.694299 124.193722 
L 144.558167 122.459782 
L 144.422034 124.293696 
L 144.353968 124.678144 
L 144.285902 123.988549 
L 144.217836 124.223815 
L 144.14977 126.141521 
L 144.081704 125.140787 
L 144.013638 125.107461 
L 143.80944 121.310461 
L 143.741374 120.832809 
L 143.673308 121.160315 
L 143.605242 123.635502 
L 143.537176 123.033779 
L 143.46911 122.884834 
L 143.401044 123.197076 
L 143.332977 123.086978 
L 143.196845 125.254746 
L 142.924581 119.683884 
L 142.856515 119.428748 
L 142.652317 122.278086 
L 142.584251 122.64333 
L 142.516185 124.114564 
L 142.448119 123.686125 
L 142.24392 122.482627 
L 142.175854 124.218492 
L 142.039722 122.39356 
L 141.90359 123.955129 
L 141.835524 123.418569 
L 141.767458 124.05976 
L 141.699392 122.105029 
L 141.631326 122.367706 
L 141.56326 122.625973 
L 141.495194 120.681502 
L 141.359062 125.19217 
L 141.22293 121.771577 
L 141.154863 121.843662 
L 141.018731 122.870584 
L 140.814533 121.820234 
L 140.678401 122.899885 
L 140.542269 121.040449 
L 140.474203 121.316015 
L 140.270005 124.796039 
L 140.201939 124.865324 
L 140.065806 121.098316 
L 139.99774 121.665311 
L 139.793542 124.385885 
L 139.725476 124.131106 
L 139.65741 122.275372 
L 139.589344 123.117107 
L 139.385146 124.693287 
L 139.31708 124.828311 
L 139.249014 124.495902 
L 139.112882 125.80419 
L 138.908683 124.115192 
L 138.840617 123.61156 
L 138.704485 125.626992 
L 138.568353 124.190438 
L 138.500287 124.626592 
L 138.364155 126.69964 
L 138.296089 126.708711 
L 138.159957 125.100163 
L 138.091891 122.644817 
L 138.023825 123.216847 
L 137.887693 121.504485 
L 137.819626 122.034166 
L 137.75156 122.03159 
L 137.615428 123.475568 
L 137.479296 123.334956 
L 137.275098 121.960745 
L 137.207032 121.976121 
L 137.138966 124.017186 
L 137.0709 123.913456 
L 137.002834 123.397558 
L 136.866702 124.441615 
L 136.798636 122.681736 
L 136.730569 122.956088 
L 136.594437 124.931221 
L 136.526371 124.823362 
L 136.458305 125.032176 
L 136.186041 123.278314 
L 136.117975 123.799235 
L 136.049909 123.342155 
L 135.913777 123.833279 
L 135.845711 123.687922 
L 135.777645 123.203278 
L 135.709579 123.334292 
L 135.641512 124.29725 
L 135.573446 122.87913 
L 135.437314 124.945603 
L 135.369248 124.212318 
L 135.301182 124.560074 
L 135.096984 127.147995 
L 135.028918 126.6289 
L 134.892786 124.469967 
L 134.82472 124.38177 
L 134.756654 124.92328 
L 134.620522 123.592064 
L 134.484389 124.677718 
L 134.416323 124.815952 
L 134.280191 122.982949 
L 134.212125 123.140595 
L 134.144059 123.467619 
L 134.075993 123.246904 
L 133.939861 122.388303 
L 133.803729 125.20245 
L 133.735663 124.769553 
L 133.599531 123.48482 
L 133.531465 123.463459 
L 133.463398 122.649813 
L 133.395332 122.847164 
L 133.191134 124.544009 
L 133.055002 123.509306 
L 132.986936 123.551938 
L 132.91887 123.837947 
L 132.782738 122.511592 
L 132.646606 124.036887 
L 132.57854 123.534124 
L 132.510474 123.619392 
L 132.442408 123.856732 
L 132.374341 123.685129 
L 132.238209 121.244441 
L 131.965945 124.803962 
L 131.897879 125.226201 
L 131.693681 124.019512 
L 131.625615 124.157287 
L 131.353351 126.063379 
L 131.149152 123.102608 
L 131.081086 120.920905 
L 131.01302 121.656176 
L 130.67269 123.377147 
L 130.604624 122.690792 
L 130.536558 122.945479 
L 130.33236 124.718454 
L 130.196227 122.155924 
L 130.128161 123.110408 
L 130.060095 123.497334 
L 129.855897 121.973111 
L 129.719765 124.714402 
L 129.651699 124.595847 
L 129.515567 123.736572 
L 129.447501 124.204376 
L 129.379435 124.094942 
L 129.311369 125.995199 
L 129.243303 125.408829 
L 129.175237 124.077237 
L 129.10717 124.642584 
L 129.039104 125.135818 
L 128.971038 124.730114 
L 128.76684 122.040155 
L 128.630708 123.231355 
L 128.562642 122.506769 
L 128.494576 122.605511 
L 128.42651 122.275155 
L 128.358444 122.486624 
L 128.290378 123.118503 
L 128.08618 121.444469 
L 128.018113 121.837291 
L 127.950047 121.579142 
L 127.881981 122.615854 
L 127.745849 120.949816 
L 127.677783 121.464939 
L 127.541651 123.925896 
L 127.405519 121.124661 
L 127.337453 122.541224 
L 127.269387 122.534462 
L 127.133255 120.584835 
L 126.997123 121.264379 
L 126.929056 121.213094 
L 126.86099 121.434121 
L 126.588726 125.298646 
L 126.452594 122.336027 
L 126.384528 122.732096 
L 126.248396 123.398118 
L 125.976132 120.406258 
L 125.771933 123.846302 
L 125.703867 122.531776 
L 125.567735 123.451468 
L 125.499669 122.889001 
L 125.363537 124.949454 
L 125.295471 123.478729 
L 125.227405 123.604836 
L 125.159339 123.037427 
L 125.023207 123.742503 
L 124.887075 122.121496 
L 124.750942 124.957667 
L 124.682876 124.691003 
L 124.478678 122.241313 
L 124.27448 123.997152 
L 124.138348 121.223878 
L 123.93415 125.097307 
L 123.866084 124.259999 
L 123.661885 122.483019 
L 123.457687 126.093937 
L 123.253489 124.304513 
L 123.185423 124.816864 
L 123.049291 126.007677 
L 122.981225 125.464824 
L 122.913159 125.020007 
L 122.708961 122.254501 
L 122.640895 122.767192 
L 122.572828 122.007664 
L 122.504762 122.12033 
L 122.36863 121.700723 
L 122.300564 122.294119 
L 122.164432 124.928014 
L 122.096366 123.182495 
L 122.0283 123.240565 
L 121.960234 123.058187 
L 121.68797 117.001388 
L 121.619904 113.604878 
L 121.551838 104.1421 
L 121.415705 23.555127 
L 121.347639 54.548231 
L 121.211507 112.592901 
L 121.143441 119.36017 
L 121.075375 119.248906 
L 120.871177 123.530053 
L 120.666979 121.320133 
L 120.598913 121.556156 
L 120.530847 121.360815 
L 120.326648 123.526903 
L 120.12245 122.092515 
L 119.918252 124.920544 
L 119.850186 122.219924 
L 119.78212 122.979474 
L 119.714054 123.343436 
L 119.645988 124.773544 
L 119.577922 123.464138 
L 119.509856 124.127812 
L 119.305658 120.351492 
L 119.101459 122.929048 
L 119.033393 124.38725 
L 118.965327 124.24978 
L 118.761129 121.662022 
L 118.556931 125.340579 
L 118.488865 124.854631 
L 118.216601 120.83151 
L 118.080468 124.212643 
L 118.012402 122.707583 
L 117.944336 122.002954 
L 117.808204 124.250726 
L 117.740138 123.781068 
L 117.604006 122.538678 
L 117.399808 125.792066 
L 117.331742 125.403435 
L 117.127544 123.580508 
L 117.059477 123.518859 
L 116.991411 124.55224 
L 116.923345 124.034777 
L 116.855279 122.979092 
L 116.787213 123.492656 
L 116.719147 123.054342 
L 116.446883 126.581556 
L 116.378817 126.314716 
L 116.242685 123.515328 
L 116.174619 123.880835 
L 115.97042 127.208213 
L 115.63009 121.556102 
L 115.562024 122.508163 
L 115.425892 124.20434 
L 115.357826 123.349807 
L 115.28976 123.632754 
L 115.221694 125.026249 
L 115.153628 124.934071 
L 115.017496 122.447934 
L 114.94943 123.356984 
L 114.813297 123.697753 
L 114.609099 126.699507 
L 114.472967 122.617535 
L 114.268769 125.713238 
L 114.200703 124.522912 
L 113.792306 120.078269 
L 113.72424 120.081483 
L 113.451976 123.349074 
L 113.38391 123.981746 
L 113.315844 123.615231 
L 113.247778 123.999035 
L 113.179712 123.572751 
L 113.111646 123.689956 
L 112.975514 124.811258 
L 112.907448 124.376254 
L 112.839382 124.610351 
L 112.771316 124.564515 
L 112.635183 122.481649 
L 112.430985 124.92066 
L 112.362919 124.379735 
L 112.226787 121.275182 
L 112.158721 121.581845 
L 112.090655 121.954121 
L 111.954523 124.112124 
L 111.886457 124.076136 
L 111.818391 124.325338 
L 111.682259 122.995861 
L 111.614192 122.946692 
L 111.409994 125.780273 
L 111.341928 127.423411 
L 111.273862 126.732625 
L 111.069664 124.816889 
L 110.933532 124.410898 
L 110.7974 123.035516 
L 110.729334 123.158719 
L 110.593202 122.024193 
L 110.457069 124.747471 
L 110.389003 124.687501 
L 110.320937 123.921001 
L 110.252871 124.330793 
L 110.048673 122.576294 
L 109.912541 120.907541 
L 109.640277 125.846904 
L 109.436078 122.711879 
L 109.368012 123.900528 
L 109.299946 125.644857 
L 109.23188 124.961902 
L 109.163814 124.780226 
L 109.027682 126.9805 
L 108.755418 123.251013 
L 108.687352 123.486453 
L 108.619286 124.125761 
L 108.55122 122.791847 
L 108.483154 122.865477 
L 108.415088 123.802484 
L 108.347021 123.563898 
L 108.278955 123.808066 
L 108.142823 122.812653 
L 108.074757 123.909619 
L 108.006691 123.827648 
L 107.938625 123.071025 
L 107.802493 123.988097 
L 107.734427 123.966727 
L 107.598295 121.540623 
L 107.326031 126.511555 
L 107.257964 127.118657 
L 106.917634 122.431133 
L 106.713436 124.171742 
L 106.441172 122.70568 
L 106.30504 123.817015 
L 106.168907 122.553588 
L 105.964709 124.988609 
L 105.760511 123.788132 
L 105.692445 123.88415 
L 105.624379 123.635439 
L 105.420181 121.72042 
L 105.352115 121.821496 
L 105.284049 122.385477 
L 105.147917 120.82992 
L 105.011784 123.25122 
L 104.943718 123.195565 
L 104.875652 121.899019 
L 104.807586 121.939495 
L 104.535322 123.662862 
L 104.39919 122.554209 
L 104.263058 123.959659 
L 104.126926 123.085577 
L 104.05886 124.26147 
L 103.990794 123.386371 
L 103.922727 123.96084 
L 103.786595 126.56169 
L 103.650463 124.074044 
L 103.582397 124.196657 
L 103.514331 124.666274 
L 103.446265 123.759984 
L 103.378199 123.951358 
L 103.174001 126.341964 
L 103.105935 126.657105 
L 102.901737 125.615843 
L 102.425274 122.555631 
L 102.357208 123.044085 
L 102.15301 120.926543 
L 102.084944 121.097397 
L 101.744613 124.986235 
L 101.540415 123.178334 
L 101.404283 124.174244 
L 101.336217 123.907264 
L 101.268151 124.342412 
L 101.063953 120.77207 
L 100.927821 121.425573 
L 100.791689 123.360435 
L 100.655556 122.292724 
L 100.383292 126.958754 
L 100.315226 126.409514 
L 100.179094 124.869035 
L 100.111028 124.619368 
L 100.042962 125.329586 
L 99.90683 123.716086 
L 99.838764 124.232828 
L 99.770698 124.911974 
L 99.634566 123.211982 
L 99.566499 123.767969 
L 99.498433 124.317498 
L 99.362301 121.834435 
L 99.226169 125.465302 
L 99.158103 125.05176 
L 98.953905 122.829021 
L 98.885839 124.334153 
L 98.817773 124.202165 
L 98.749707 124.651838 
L 98.681641 124.531301 
L 98.545509 123.693726 
L 98.34131 119.581065 
L 98.069046 122.214368 
L 98.00098 121.697918 
L 97.864848 122.749413 
L 97.728716 124.385673 
L 97.66065 124.104893 
L 97.524518 122.439279 
L 97.252253 126.33354 
L 97.184187 126.24228 
L 97.048055 124.548508 
L 96.979989 124.992071 
L 96.911923 124.733898 
L 96.843857 124.606113 
L 96.775791 125.536173 
L 96.639659 123.660099 
L 96.571593 124.528338 
L 96.435461 122.933225 
L 96.299328 124.477103 
L 96.09513 121.917883 
L 95.958998 123.625307 
L 95.890932 123.189323 
L 95.822866 123.538697 
L 95.7548 122.725919 
L 95.686734 123.504719 
L 95.618668 123.105183 
L 95.550602 121.346938 
L 95.482536 121.607698 
L 95.41447 122.926978 
L 95.346404 121.784457 
L 95.210271 123.256832 
L 95.006073 120.470468 
L 94.938007 120.85669 
L 94.869941 120.700448 
L 94.801875 121.053752 
L 94.733809 120.841951 
L 94.665743 120.500304 
L 94.529611 121.529079 
L 94.393479 125.372864 
L 94.189281 123.627077 
L 94.121214 123.642908 
L 94.053148 123.488682 
L 93.985082 123.54467 
L 93.780884 125.804216 
L 93.644752 124.627201 
L 93.50862 125.039547 
L 93.304422 122.427457 
L 93.032157 125.068974 
L 92.964091 124.113679 
L 92.827959 124.813529 
L 92.691827 123.131672 
L 92.555695 125.479235 
L 92.487629 125.386005 
L 92.283431 126.293433 
L 92.011167 123.449792 
L 91.9431 123.545137 
L 91.806968 124.587355 
L 91.60277 122.1312 
L 91.466638 123.907874 
L 91.330506 125.902617 
L 91.194374 123.61389 
L 91.126308 124.484705 
L 90.92211 121.258425 
L 90.854043 121.548643 
L 90.649845 122.43901 
L 90.513713 124.087121 
L 90.445647 123.821955 
L 90.377581 123.5384 
L 90.309515 122.306554 
L 90.241449 122.68669 
L 90.105317 123.872279 
L 89.901119 126.013091 
L 89.833053 125.290879 
L 89.69692 126.62457 
L 89.628854 124.85956 
L 89.560788 125.07579 
L 89.492722 125.507036 
L 89.424656 124.612284 
L 89.288524 120.694626 
L 89.220458 121.449536 
L 89.152392 121.159959 
L 89.01626 122.552784 
L 88.812062 125.23856 
L 88.67593 126.560175 
L 88.471731 122.340311 
L 88.403665 122.600347 
L 88.131401 126.097774 
L 87.995269 124.491799 
L 87.927203 124.582956 
L 87.859137 123.933259 
L 87.791071 124.740407 
L 87.654939 121.716419 
L 87.586873 121.901713 
L 87.45074 122.888386 
L 87.382674 122.539772 
L 87.246542 123.898043 
L 87.178476 123.786589 
L 87.11041 123.803733 
L 86.906212 128.19541 
L 86.838146 126.641023 
L 86.702014 124.218085 
L 86.633948 124.799963 
L 86.565882 126.103093 
L 86.361683 122.319822 
L 86.293617 122.369057 
L 86.225551 123.252729 
L 86.157485 123.154853 
L 86.089419 122.345409 
L 85.817155 124.866005 
L 85.749089 124.161205 
L 85.544891 119.616675 
L 85.272626 124.299553 
L 85.136494 123.269306 
L 85.000362 125.458 
L 84.932296 124.690374 
L 84.796164 123.816202 
L 84.728098 124.050403 
L 84.660032 124.217909 
L 84.5239 123.680582 
L 84.455834 124.341138 
L 84.319702 123.503134 
L 84.115503 123.890793 
L 83.979371 122.511577 
L 83.911305 122.687435 
L 83.775173 123.587743 
L 83.707107 123.540993 
L 83.434843 121.238694 
L 83.094512 124.184281 
L 83.026446 124.310477 
L 82.95838 123.374471 
L 82.822248 124.713825 
L 82.754182 124.506812 
L 82.61805 125.570646 
L 82.345786 122.427891 
L 82.27772 122.755454 
L 82.141588 121.652439 
L 81.937389 124.736791 
L 81.869323 123.789057 
L 81.801257 122.412645 
L 81.733191 122.797215 
L 81.665125 122.563299 
L 81.392861 123.577187 
L 81.324795 123.386494 
L 81.188663 121.019142 
L 81.052531 124.375952 
L 80.984464 124.01601 
L 80.848332 123.147785 
L 80.780266 123.217424 
L 80.7122 122.983867 
L 80.644134 123.930536 
L 80.508002 122.215894 
L 80.303804 126.189267 
L 80.099606 121.280095 
L 79.963474 122.427787 
L 79.895407 122.373519 
L 79.759275 119.66987 
L 79.691209 120.374678 
L 79.623143 118.943942 
L 79.555077 119.511745 
L 79.487011 120.241672 
L 79.350879 123.604761 
L 79.214747 121.750634 
L 79.078615 123.988245 
L 79.010549 121.677817 
L 78.874417 123.7451 
L 78.80635 123.63477 
L 78.602152 121.727989 
L 78.329888 122.339926 
L 78.193756 121.079227 
L 78.12569 121.58127 
L 77.989558 123.240688 
L 77.853426 120.264115 
L 77.78536 121.506025 
L 77.717293 122.365838 
L 77.581161 119.879834 
L 77.513095 120.14533 
L 77.376963 123.487689 
L 77.308897 122.946069 
L 77.104699 120.445262 
L 76.696303 126.847176 
L 76.492104 123.740103 
L 76.424038 123.238447 
L 76.355972 124.019139 
L 76.287906 123.62811 
L 76.151774 121.459898 
L 76.083708 121.700495 
L 75.811444 123.784438 
L 75.675312 123.578679 
L 75.539179 123.893268 
L 75.471113 122.469602 
L 75.403047 122.517899 
L 75.334981 122.478686 
L 75.266915 120.867642 
L 75.198849 120.880432 
L 75.062717 121.808636 
L 74.994651 121.951948 
L 74.858519 124.321028 
L 74.790453 124.282457 
L 74.722387 123.349608 
L 74.654321 124.017573 
L 74.518189 121.209979 
L 74.450122 121.43965 
L 74.31399 119.97788 
L 74.177858 123.430761 
L 74.109792 125.199334 
L 74.041726 125.020042 
L 73.97366 124.33922 
L 73.905594 124.383408 
L 73.837528 124.728793 
L 73.701396 123.775165 
L 73.565264 124.313232 
L 73.497198 125.051585 
L 73.429132 124.488237 
L 73.361066 122.356998 
L 73.292999 123.875025 
L 73.224933 123.667253 
L 73.020735 120.081131 
L 72.748471 125.955635 
L 72.680405 125.218634 
L 72.544273 122.509067 
L 72.476207 121.452557 
L 72.203942 125.402741 
L 72.135876 124.492384 
L 71.999744 125.892307 
L 71.863612 126.662382 
L 71.72748 126.313951 
L 71.659414 126.611897 
L 71.523282 123.531864 
L 71.38715 125.853123 
L 71.251018 122.121994 
L 71.182952 123.624373 
L 71.114885 123.054386 
L 70.978753 121.803264 
L 70.366159 124.289959 
L 70.298093 123.969864 
L 70.230027 123.866102 
L 70.161961 123.979829 
L 70.093895 123.900463 
L 69.753564 121.610773 
L 69.617432 123.977073 
L 69.549366 123.952353 
L 69.4813 124.314214 
L 69.345168 123.547387 
L 69.277102 124.187469 
L 69.14097 122.512073 
L 69.004838 123.742881 
L 68.936771 122.933588 
L 68.868705 123.067822 
L 68.800639 123.568636 
L 68.732573 122.671636 
L 68.528375 124.725943 
L 68.324177 122.79179 
L 68.256111 122.992949 
L 68.119979 123.931313 
L 67.983847 120.722349 
L 67.711582 123.446258 
L 67.643516 122.687205 
L 67.57545 122.729326 
L 67.507384 123.034515 
L 67.23512 121.27356 
L 67.167054 121.031664 
L 66.962856 122.468513 
L 66.89479 121.698663 
L 66.826724 122.779391 
L 66.758657 122.555153 
L 66.690591 121.845454 
L 66.486393 123.531833 
L 66.350261 123.977772 
L 66.077997 127.361215 
L 65.873799 124.097868 
L 65.805733 124.317881 
L 65.6696 122.716373 
L 65.601534 123.008552 
L 65.32927 126.606896 
L 65.125072 122.623784 
L 64.920874 123.699241 
L 64.852808 123.271867 
L 64.784742 124.361292 
L 64.580543 122.318839 
L 64.444411 124.970558 
L 64.376345 124.45353 
L 64.308279 124.563557 
L 64.172147 123.965598 
L 64.104081 124.332977 
L 63.899883 120.778888 
L 63.831817 121.910364 
L 63.763751 121.921529 
L 63.627619 122.66646 
L 63.559553 121.080931 
L 63.491486 121.525092 
L 63.219222 125.227603 
L 63.08309 122.907563 
L 63.015024 123.415794 
L 62.878892 121.547361 
L 62.674694 123.94694 
L 62.606628 123.564721 
L 62.334363 121.375093 
L 62.198231 121.734551 
L 62.130165 121.588957 
L 61.994033 125.957701 
L 61.721769 120.817728 
L 61.653703 121.208917 
L 61.517571 124.809209 
L 61.381439 121.690684 
L 61.313372 122.489563 
L 61.17724 123.898424 
L 61.109174 123.465677 
L 60.973042 121.90624 
L 60.904976 122.302061 
L 60.768844 122.647425 
L 60.700778 122.70248 
L 60.49658 122.275288 
L 60.428514 121.023268 
L 60.360448 121.676511 
L 60.156249 123.086908 
L 60.088183 123.111379 
L 60.020117 122.76474 
L 59.815919 124.142398 
L 59.747853 125.703895 
L 59.679787 124.756395 
L 59.543655 123.485763 
L 59.475589 123.542474 
L 59.271391 125.309266 
L 59.203325 124.2692 
L 59.135258 124.340232 
L 58.93106 124.721936 
L 58.794928 123.525379 
L 58.726862 125.052283 
L 58.658796 124.480021 
L 58.454598 121.893429 
L 58.386532 121.969731 
L 57.910069 124.619656 
L 57.842003 122.779079 
L 57.773937 123.272967 
L 57.705871 123.240908 
L 57.637805 122.071548 
L 57.569739 122.672544 
L 57.365541 123.495011 
L 57.229409 121.755337 
L 57.161343 121.938138 
L 57.093277 121.988528 
L 56.889078 123.013903 
L 56.821012 122.896949 
L 56.752946 122.469755 
L 56.68488 122.720289 
L 56.616814 124.539077 
L 56.548748 123.95959 
L 56.480682 123.260441 
L 56.412616 123.481154 
L 56.276484 124.928392 
L 56.208418 124.853759 
L 56.140352 123.897236 
L 55.936154 125.197353 
L 55.663889 123.119303 
L 55.459691 126.791409 
L 55.255493 122.045136 
L 55.187427 124.21957 
L 55.119361 124.171366 
L 55.051295 122.659368 
L 54.983229 122.948305 
L 54.710964 126.970117 
L 54.574832 124.789697 
L 54.506766 124.951509 
L 54.4387 126.495144 
L 54.370634 126.185981 
L 54.234502 123.232 
L 54.09837 122.757627 
L 53.962238 124.777045 
L 53.894172 124.647016 
L 53.826106 124.516542 
L 53.689974 124.896421 
L 53.621907 126.314533 
L 53.553841 125.653271 
L 53.349643 123.806162 
L 53.281577 124.295671 
L 53.145445 123.405865 
L 53.077379 124.766432 
L 53.009313 124.007808 
L 52.873181 124.906578 
L 52.805115 123.784673 
L 52.737049 123.972095 
L 52.396718 127.910477 
L 52.056388 121.906359 
L 51.988322 121.952075 
L 51.85219 125.46269 
L 51.784124 124.700423 
L 51.716058 124.348711 
L 51.647992 125.495805 
L 51.443793 122.716729 
L 51.375727 122.135567 
L 51.239595 124.150724 
L 51.171529 123.170957 
L 51.103463 123.528516 
L 51.035397 123.385029 
L 50.899265 122.575974 
L 50.831199 122.548396 
L 50.627001 125.615046 
L 50.558935 125.478134 
L 50.354736 123.091456 
L 50.28667 123.735678 
L 50.082472 119.831704 
L 50.014406 120.30616 
L 49.878274 121.679598 
L 49.674076 125.763829 
L 49.60601 125.555584 
L 49.537944 123.505099 
L 49.469878 123.640079 
L 49.197613 127.331156 
L 49.061481 125.318727 
L 48.993415 125.600213 
L 48.857283 123.698837 
L 48.789217 123.749285 
L 48.585019 125.538355 
L 48.516953 124.458357 
L 48.448887 124.501818 
L 48.380821 125.226768 
L 48.312755 125.140522 
L 48.176622 123.522123 
L 48.108556 123.658175 
L 48.04049 124.348041 
L 47.972424 123.753426 
L 47.836292 119.506737 
L 47.768226 120.436679 
L 47.632094 121.929489 
L 47.564028 121.986425 
L 47.495962 121.613316 
L 47.291764 125.534863 
L 47.223698 125.521471 
L 47.155632 125.609046 
L 46.951433 124.265377 
L 46.883367 123.06536 
L 46.815301 123.800861 
L 46.747235 123.721635 
L 46.611103 124.070052 
L 46.543037 123.702832 
L 46.474971 124.229035 
L 46.338839 120.655317 
L 46.270773 121.710071 
L 46.202707 123.58809 
L 46.134641 122.440589 
L 46.066575 120.890487 
L 45.998508 121.20494 
L 45.79431 124.401611 
L 45.726244 124.606161 
L 45.522046 121.940637 
L 45.45398 122.130525 
L 45.317848 124.474147 
L 45.249782 124.265497 
L 45.181716 123.551314 
L 45.11365 124.161794 
L 45.045584 122.17658 
L 44.977518 122.704607 
L 44.841385 124.278289 
L 44.705253 123.874915 
L 44.501055 125.05945 
L 44.432989 124.736637 
L 44.296857 122.561334 
L 44.228791 122.934116 
L 44.160725 121.932789 
L 44.092659 122.468437 
L 43.956527 123.909952 
L 43.820394 123.87782 
L 43.616196 125.698107 
L 43.54813 125.236004 
L 43.343932 122.642281 
L 43.275866 122.981432 
L 43.139734 124.82578 
L 43.071668 124.526074 
L 43.003602 123.533595 
L 42.86747 125.30607 
L 42.731337 121.499129 
L 42.595205 122.999548 
L 42.527139 122.793662 
L 42.254875 126.138952 
L 42.186809 126.024487 
L 42.118743 126.215236 
L 41.846479 120.203495 
L 41.574214 124.591779 
L 41.506148 124.195653 
L 41.30195 121.937388 
L 41.233884 121.977627 
L 41.097752 120.2228 
L 40.96162 123.039248 
L 40.893554 122.675124 
L 40.825488 122.794504 
L 40.689356 124.181808 
L 40.62129 124.11417 
L 40.485157 121.48188 
L 40.417091 122.096892 
L 40.349025 121.300598 
L 40.212893 122.491333 
L 40.144827 122.281869 
L 40.008695 120.909152 
L 39.804497 124.53922 
L 39.736431 124.590895 
L 39.668365 123.277173 
L 39.600299 123.325237 
L 39.532233 123.244285 
L 39.3961 123.792151 
L 39.328034 123.689639 
L 39.123836 122.054727 
L 38.987704 123.424199 
L 38.851572 123.054015 
L 38.71544 120.715686 
L 38.647374 120.544101 
L 38.307043 123.776921 
L 38.238977 123.720936 
L 38.170911 123.473448 
L 38.102845 124.403983 
L 38.034779 123.942076 
L 37.966713 121.819663 
L 37.898647 122.237306 
L 37.762515 125.657814 
L 37.490251 122.961245 
L 37.422185 122.518529 
L 37.354119 121.180944 
L 37.14992 124.608109 
L 37.013788 124.148658 
L 36.945722 124.580592 
L 36.80959 122.083343 
L 36.741524 122.501398 
L 36.673458 122.295059 
L 36.605392 120.9983 
L 36.401194 124.63882 
L 36.333128 124.478031 
L 36.265062 123.371642 
L 36.196996 124.332789 
L 36.128929 123.893583 
L 36.060863 123.836952 
L 35.856665 126.334194 
L 35.720533 121.491776 
L 35.652467 121.565298 
L 35.584401 122.587757 
L 35.516335 122.191008 
L 35.448269 122.659188 
L 35.380203 123.930204 
L 35.312137 123.406514 
L 35.244071 121.073168 
L 35.107939 124.313798 
L 35.039872 123.785418 
L 34.90374 125.080787 
L 34.835674 123.992927 
L 34.767608 124.529857 
L 34.699542 125.06042 
L 34.495344 121.358271 
L 34.359212 124.466613 
L 34.291146 124.235085 
L 34.22308 124.43601 
L 34.155014 125.202517 
L 33.882749 121.574428 
L 33.814683 121.899703 
L 33.678551 123.538133 
L 33.610485 123.434958 
L 33.406287 121.911498 
L 33.338221 122.21041 
L 33.202089 123.778301 
L 33.065957 122.766483 
L 32.929825 123.403509 
L 32.725626 121.558439 
L 32.65756 122.0548 
L 32.521428 125.107483 
L 32.453362 123.374666 
L 32.385296 123.419382 
L 32.31723 123.544793 
L 32.181098 123.172008 
L 32.113032 122.657527 
L 32.044966 124.029468 
L 31.9769 123.456122 
L 31.908834 122.516998 
L 31.840768 122.984719 
L 31.704635 122.009475 
L 31.636569 122.040115 
L 31.432371 123.395248 
L 31.364305 124.172445 
L 31.296239 123.790279 
L 31.092041 122.946368 
L 30.955909 122.088086 
L 30.887843 122.129028 
L 30.751711 124.998442 
L 30.615578 122.699573 
L 30.479446 125.280726 
L 30.41138 125.120034 
L 30.275248 124.904363 
L 30.139116 122.571742 
L 30.07105 122.835711 
L 30.002984 122.655603 
L 29.934918 121.619423 
L 29.798786 124.29931 
L 29.73072 124.143029 
" style="fill:none;stroke:#3f007d;stroke-linecap:square;stroke-width:1.5;"/>
   </g>
   <g id="patch_3">
    <path d="M 29.763 133.56 
L 29.763 18.3168 
" style="fill:none;stroke:#000000;stroke-linecap:square;stroke-linejoin:miter;stroke-width:0.8;"/>
   </g>
   <g id="patch_4">
    <path d="M 29.763 133.56 
L 214.2936 133.56 
" style="fill:none;stroke:#000000;stroke-linecap:square;stroke-linejoin:miter;stroke-width:0.8;"/>
   </g>
  </g>
 </g>
 <defs>
  <clipPath id="p0c6f93ac25">
   <rect height="115.2432" width="184.5306" x="29.763" y="18.3168"/>
  </clipPath>
 </defs>
</svg>
