<?xml version="1.0" encoding="utf-8" standalone="no"?>
<!DOCTYPE svg PUBLIC "-//W3C//DTD SVG 1.1//EN"
  "http://www.w3.org/Graphics/SVG/1.1/DTD/svg11.dtd">
<svg xmlns:xlink="http://www.w3.org/1999/xlink" width="238.104pt" height="152.64pt" viewBox="0 0 238.104 152.64" xmlns="http://www.w3.org/2000/svg" version="1.1">
 <metadata>
  <rdf:RDF xmlns:dc="http://purl.org/dc/elements/1.1/" xmlns:cc="http://creativecommons.org/ns#" xmlns:rdf="http://www.w3.org/1999/02/22-rdf-syntax-ns#">
   <cc:Work>
    <dc:type rdf:resource="http://purl.org/dc/dcmitype/StillImage"/>
    <dc:date>2024-01-26T14:29:52.119698</dc:date>
    <dc:format>image/svg+xml</dc:format>
    <dc:creator>
     <cc:Agent>
      <dc:title>Matplotlib v3.7.0, https://matplotlib.org/</dc:title>
     </cc:Agent>
    </dc:creator>
   </cc:Work>
  </rdf:RDF>
 </metadata>
 <defs>
  <style type="text/css">*{stroke-linejoin: round; stroke-linecap: butt}</style>
 </defs>
 <g id="figure_1">
  <g id="patch_1">
   <path d="M 0 152.64 
L 238.104 152.64 
L 238.104 0 
L 0 0 
L 0 152.64 
z
" style="fill: none"/>
  </g>
  <g id="axes_1">
   <g id="patch_2">
    <path d="M 29.763 135.8496 
L 214.2936 135.8496 
L 214.2936 18.3168 
L 29.763 18.3168 
L 29.763 135.8496 
z
" style="fill: none"/>
   </g>
   <g id="matplotlib.axis_1">
    <g id="xtick_1">
     <g id="line2d_1">
      <defs>
       <path id="m9132a44a61" d="M 0 0 
L 0 3.5 
" style="stroke: #000000; stroke-width: 0.8"/>
      </defs>
      <g>
       <use xlink:href="#m9132a44a61" x="191.227275" y="135.8496" style="stroke: #000000; stroke-width: 0.8"/>
      </g>
     </g>
     <g id="text_1">
      <!-- −120.2 -->
      <g transform="translate(175.796025 150.007413) scale(0.1 -0.1)">
       <defs>
        <path id="ArialMT-2212" d="M 3381 1997 
L 356 1997 
L 356 2522 
L 3381 2522 
L 3381 1997 
z
" transform="scale(0.015625)"/>
        <path id="ArialMT-31" d="M 2384 0 
L 1822 0 
L 1822 3584 
Q 1619 3391 1289 3197 
Q 959 3003 697 2906 
L 697 3450 
Q 1169 3672 1522 3987 
Q 1875 4303 2022 4600 
L 2384 4600 
L 2384 0 
z
" transform="scale(0.015625)"/>
        <path id="ArialMT-32" d="M 3222 541 
L 3222 0 
L 194 0 
Q 188 203 259 391 
Q 375 700 629 1000 
Q 884 1300 1366 1694 
Q 2113 2306 2375 2664 
Q 2638 3022 2638 3341 
Q 2638 3675 2398 3904 
Q 2159 4134 1775 4134 
Q 1369 4134 1125 3890 
Q 881 3647 878 3216 
L 300 3275 
Q 359 3922 746 4261 
Q 1134 4600 1788 4600 
Q 2447 4600 2831 4234 
Q 3216 3869 3216 3328 
Q 3216 3053 3103 2787 
Q 2991 2522 2730 2228 
Q 2469 1934 1863 1422 
Q 1356 997 1212 845 
Q 1069 694 975 541 
L 3222 541 
z
" transform="scale(0.015625)"/>
        <path id="ArialMT-30" d="M 266 2259 
Q 266 3072 433 3567 
Q 600 4063 929 4331 
Q 1259 4600 1759 4600 
Q 2128 4600 2406 4451 
Q 2684 4303 2865 4023 
Q 3047 3744 3150 3342 
Q 3253 2941 3253 2259 
Q 3253 1453 3087 958 
Q 2922 463 2592 192 
Q 2263 -78 1759 -78 
Q 1097 -78 719 397 
Q 266 969 266 2259 
z
M 844 2259 
Q 844 1131 1108 757 
Q 1372 384 1759 384 
Q 2147 384 2411 759 
Q 2675 1134 2675 2259 
Q 2675 3391 2411 3762 
Q 2147 4134 1753 4134 
Q 1366 4134 1134 3806 
Q 844 3388 844 2259 
z
" transform="scale(0.015625)"/>
        <path id="ArialMT-2e" d="M 581 0 
L 581 641 
L 1222 641 
L 1222 0 
L 581 0 
z
" transform="scale(0.015625)"/>
       </defs>
       <use xlink:href="#ArialMT-2212"/>
       <use xlink:href="#ArialMT-31" x="58.398438"/>
       <use xlink:href="#ArialMT-32" x="114.013672"/>
       <use xlink:href="#ArialMT-30" x="169.628906"/>
       <use xlink:href="#ArialMT-2e" x="225.244141"/>
       <use xlink:href="#ArialMT-32" x="253.027344"/>
      </g>
     </g>
    </g>
    <g id="xtick_2">
     <g id="line2d_2">
      <g>
       <use xlink:href="#m9132a44a61" x="145.094625" y="135.8496" style="stroke: #000000; stroke-width: 0.8"/>
      </g>
     </g>
     <g id="text_2">
      <!-- −120.0 -->
      <g transform="translate(129.663375 150.007413) scale(0.1 -0.1)">
       <use xlink:href="#ArialMT-2212"/>
       <use xlink:href="#ArialMT-31" x="58.398438"/>
       <use xlink:href="#ArialMT-32" x="114.013672"/>
       <use xlink:href="#ArialMT-30" x="169.628906"/>
       <use xlink:href="#ArialMT-2e" x="225.244141"/>
       <use xlink:href="#ArialMT-30" x="253.027344"/>
      </g>
     </g>
    </g>
    <g id="xtick_3">
     <g id="line2d_3">
      <g>
       <use xlink:href="#m9132a44a61" x="98.961975" y="135.8496" style="stroke: #000000; stroke-width: 0.8"/>
      </g>
     </g>
     <g id="text_3">
      <!-- −119.8 -->
      <g transform="translate(83.899475 150.007413) scale(0.1 -0.1)">
       <defs>
        <path id="ArialMT-39" d="M 350 1059 
L 891 1109 
Q 959 728 1153 556 
Q 1347 384 1650 384 
Q 1909 384 2104 503 
Q 2300 622 2425 820 
Q 2550 1019 2634 1356 
Q 2719 1694 2719 2044 
Q 2719 2081 2716 2156 
Q 2547 1888 2255 1720 
Q 1963 1553 1622 1553 
Q 1053 1553 659 1965 
Q 266 2378 266 3053 
Q 266 3750 677 4175 
Q 1088 4600 1706 4600 
Q 2153 4600 2523 4359 
Q 2894 4119 3086 3673 
Q 3278 3228 3278 2384 
Q 3278 1506 3087 986 
Q 2897 466 2520 194 
Q 2144 -78 1638 -78 
Q 1100 -78 759 220 
Q 419 519 350 1059 
z
M 2653 3081 
Q 2653 3566 2395 3850 
Q 2138 4134 1775 4134 
Q 1400 4134 1122 3828 
Q 844 3522 844 3034 
Q 844 2597 1108 2323 
Q 1372 2050 1759 2050 
Q 2150 2050 2401 2323 
Q 2653 2597 2653 3081 
z
" transform="scale(0.015625)"/>
        <path id="ArialMT-38" d="M 1131 2484 
Q 781 2613 612 2850 
Q 444 3088 444 3419 
Q 444 3919 803 4259 
Q 1163 4600 1759 4600 
Q 2359 4600 2725 4251 
Q 3091 3903 3091 3403 
Q 3091 3084 2923 2848 
Q 2756 2613 2416 2484 
Q 2838 2347 3058 2040 
Q 3278 1734 3278 1309 
Q 3278 722 2862 322 
Q 2447 -78 1769 -78 
Q 1091 -78 675 323 
Q 259 725 259 1325 
Q 259 1772 486 2073 
Q 713 2375 1131 2484 
z
M 1019 3438 
Q 1019 3113 1228 2906 
Q 1438 2700 1772 2700 
Q 2097 2700 2305 2904 
Q 2513 3109 2513 3406 
Q 2513 3716 2298 3927 
Q 2084 4138 1766 4138 
Q 1444 4138 1231 3931 
Q 1019 3725 1019 3438 
z
M 838 1322 
Q 838 1081 952 856 
Q 1066 631 1291 507 
Q 1516 384 1775 384 
Q 2178 384 2440 643 
Q 2703 903 2703 1303 
Q 2703 1709 2433 1975 
Q 2163 2241 1756 2241 
Q 1359 2241 1098 1978 
Q 838 1716 838 1322 
z
" transform="scale(0.015625)"/>
       </defs>
       <use xlink:href="#ArialMT-2212"/>
       <use xlink:href="#ArialMT-31" x="58.398438"/>
       <use xlink:href="#ArialMT-31" x="106.638672"/>
       <use xlink:href="#ArialMT-39" x="162.253906"/>
       <use xlink:href="#ArialMT-2e" x="217.869141"/>
       <use xlink:href="#ArialMT-38" x="245.652344"/>
      </g>
     </g>
    </g>
    <g id="xtick_4">
     <g id="line2d_4">
      <g>
       <use xlink:href="#m9132a44a61" x="52.829325" y="135.8496" style="stroke: #000000; stroke-width: 0.8"/>
      </g>
     </g>
     <g id="text_4">
      <!-- −119.6 -->
      <g transform="translate(37.766825 150.007413) scale(0.1 -0.1)">
       <defs>
        <path id="ArialMT-36" d="M 3184 3459 
L 2625 3416 
Q 2550 3747 2413 3897 
Q 2184 4138 1850 4138 
Q 1581 4138 1378 3988 
Q 1113 3794 959 3422 
Q 806 3050 800 2363 
Q 1003 2672 1297 2822 
Q 1591 2972 1913 2972 
Q 2475 2972 2870 2558 
Q 3266 2144 3266 1488 
Q 3266 1056 3080 686 
Q 2894 316 2569 119 
Q 2244 -78 1831 -78 
Q 1128 -78 684 439 
Q 241 956 241 2144 
Q 241 3472 731 4075 
Q 1159 4600 1884 4600 
Q 2425 4600 2770 4297 
Q 3116 3994 3184 3459 
z
M 888 1484 
Q 888 1194 1011 928 
Q 1134 663 1356 523 
Q 1578 384 1822 384 
Q 2178 384 2434 671 
Q 2691 959 2691 1453 
Q 2691 1928 2437 2201 
Q 2184 2475 1800 2475 
Q 1419 2475 1153 2201 
Q 888 1928 888 1484 
z
" transform="scale(0.015625)"/>
       </defs>
       <use xlink:href="#ArialMT-2212"/>
       <use xlink:href="#ArialMT-31" x="58.398438"/>
       <use xlink:href="#ArialMT-31" x="106.638672"/>
       <use xlink:href="#ArialMT-39" x="162.253906"/>
       <use xlink:href="#ArialMT-2e" x="217.869141"/>
       <use xlink:href="#ArialMT-36" x="245.652344"/>
      </g>
     </g>
    </g>
    <g id="text_5">
     <!-- $\mathrm{^{19}F}$ (ppm) -->
     <g transform="translate(100.0283 165.094913) scale(0.1 -0.1)">
      <defs>
       <path id="DejaVuSans-31" d="M 794 531 
L 1825 531 
L 1825 4091 
L 703 3866 
L 703 4441 
L 1819 4666 
L 2450 4666 
L 2450 531 
L 3481 531 
L 3481 0 
L 794 0 
L 794 531 
z
" transform="scale(0.015625)"/>
       <path id="DejaVuSans-39" d="M 703 97 
L 703 672 
Q 941 559 1184 500 
Q 1428 441 1663 441 
Q 2288 441 2617 861 
Q 2947 1281 2994 2138 
Q 2813 1869 2534 1725 
Q 2256 1581 1919 1581 
Q 1219 1581 811 2004 
Q 403 2428 403 3163 
Q 403 3881 828 4315 
Q 1253 4750 1959 4750 
Q 2769 4750 3195 4129 
Q 3622 3509 3622 2328 
Q 3622 1225 3098 567 
Q 2575 -91 1691 -91 
Q 1453 -91 1209 -44 
Q 966 3 703 97 
z
M 1959 2075 
Q 2384 2075 2632 2365 
Q 2881 2656 2881 3163 
Q 2881 3666 2632 3958 
Q 2384 4250 1959 4250 
Q 1534 4250 1286 3958 
Q 1038 3666 1038 3163 
Q 1038 2656 1286 2365 
Q 1534 2075 1959 2075 
z
" transform="scale(0.015625)"/>
       <path id="DejaVuSans-46" d="M 628 4666 
L 3309 4666 
L 3309 4134 
L 1259 4134 
L 1259 2759 
L 3109 2759 
L 3109 2228 
L 1259 2228 
L 1259 0 
L 628 0 
L 628 4666 
z
" transform="scale(0.015625)"/>
       <path id="ArialMT-20" transform="scale(0.015625)"/>
       <path id="ArialMT-28" d="M 1497 -1347 
Q 1031 -759 709 28 
Q 388 816 388 1659 
Q 388 2403 628 3084 
Q 909 3875 1497 4659 
L 1900 4659 
Q 1522 4009 1400 3731 
Q 1209 3300 1100 2831 
Q 966 2247 966 1656 
Q 966 153 1900 -1347 
L 1497 -1347 
z
" transform="scale(0.015625)"/>
       <path id="ArialMT-70" d="M 422 -1272 
L 422 3319 
L 934 3319 
L 934 2888 
Q 1116 3141 1344 3267 
Q 1572 3394 1897 3394 
Q 2322 3394 2647 3175 
Q 2972 2956 3137 2557 
Q 3303 2159 3303 1684 
Q 3303 1175 3120 767 
Q 2938 359 2589 142 
Q 2241 -75 1856 -75 
Q 1575 -75 1351 44 
Q 1128 163 984 344 
L 984 -1272 
L 422 -1272 
z
M 931 1641 
Q 931 1000 1190 694 
Q 1450 388 1819 388 
Q 2194 388 2461 705 
Q 2728 1022 2728 1688 
Q 2728 2322 2467 2637 
Q 2206 2953 1844 2953 
Q 1484 2953 1207 2617 
Q 931 2281 931 1641 
z
" transform="scale(0.015625)"/>
       <path id="ArialMT-6d" d="M 422 0 
L 422 3319 
L 925 3319 
L 925 2853 
Q 1081 3097 1340 3245 
Q 1600 3394 1931 3394 
Q 2300 3394 2536 3241 
Q 2772 3088 2869 2813 
Q 3263 3394 3894 3394 
Q 4388 3394 4653 3120 
Q 4919 2847 4919 2278 
L 4919 0 
L 4359 0 
L 4359 2091 
Q 4359 2428 4304 2576 
Q 4250 2725 4106 2815 
Q 3963 2906 3769 2906 
Q 3419 2906 3187 2673 
Q 2956 2441 2956 1928 
L 2956 0 
L 2394 0 
L 2394 2156 
Q 2394 2531 2256 2718 
Q 2119 2906 1806 2906 
Q 1569 2906 1367 2781 
Q 1166 2656 1075 2415 
Q 984 2175 984 1722 
L 984 0 
L 422 0 
z
" transform="scale(0.015625)"/>
       <path id="ArialMT-29" d="M 791 -1347 
L 388 -1347 
Q 1322 153 1322 1656 
Q 1322 2244 1188 2822 
Q 1081 3291 891 3722 
Q 769 4003 388 4659 
L 791 4659 
Q 1378 3875 1659 3084 
Q 1900 2403 1900 1659 
Q 1900 816 1576 28 
Q 1253 -759 791 -1347 
z
" transform="scale(0.015625)"/>
      </defs>
      <use xlink:href="#DejaVuSans-31" transform="translate(0.957031 39.046875) scale(0.7)"/>
      <use xlink:href="#DejaVuSans-39" transform="translate(45.493164 39.046875) scale(0.7)"/>
      <use xlink:href="#DejaVuSans-46" transform="translate(92.763672 0.765625)"/>
      <use xlink:href="#ArialMT-20" transform="translate(150.283203 0.765625)"/>
      <use xlink:href="#ArialMT-28" transform="translate(178.066406 0.765625)"/>
      <use xlink:href="#ArialMT-70" transform="translate(211.367188 0.765625)"/>
      <use xlink:href="#ArialMT-70" transform="translate(266.982422 0.765625)"/>
      <use xlink:href="#ArialMT-6d" transform="translate(322.597656 0.765625)"/>
      <use xlink:href="#ArialMT-29" transform="translate(405.898438 0.765625)"/>
     </g>
    </g>
   </g>
   <g id="matplotlib.axis_2">
    <g id="text_6">
     <!-- Intensity -->
     <g transform="translate(23.658312 95.702731) rotate(-90) scale(0.1 -0.1)">
      <defs>
       <path id="ArialMT-49" d="M 597 0 
L 597 4581 
L 1203 4581 
L 1203 0 
L 597 0 
z
" transform="scale(0.015625)"/>
       <path id="ArialMT-6e" d="M 422 0 
L 422 3319 
L 928 3319 
L 928 2847 
Q 1294 3394 1984 3394 
Q 2284 3394 2536 3286 
Q 2788 3178 2913 3003 
Q 3038 2828 3088 2588 
Q 3119 2431 3119 2041 
L 3119 0 
L 2556 0 
L 2556 2019 
Q 2556 2363 2490 2533 
Q 2425 2703 2258 2804 
Q 2091 2906 1866 2906 
Q 1506 2906 1245 2678 
Q 984 2450 984 1813 
L 984 0 
L 422 0 
z
" transform="scale(0.015625)"/>
       <path id="ArialMT-74" d="M 1650 503 
L 1731 6 
Q 1494 -44 1306 -44 
Q 1000 -44 831 53 
Q 663 150 594 308 
Q 525 466 525 972 
L 525 2881 
L 113 2881 
L 113 3319 
L 525 3319 
L 525 4141 
L 1084 4478 
L 1084 3319 
L 1650 3319 
L 1650 2881 
L 1084 2881 
L 1084 941 
Q 1084 700 1114 631 
Q 1144 563 1211 522 
Q 1278 481 1403 481 
Q 1497 481 1650 503 
z
" transform="scale(0.015625)"/>
       <path id="ArialMT-65" d="M 2694 1069 
L 3275 997 
Q 3138 488 2766 206 
Q 2394 -75 1816 -75 
Q 1088 -75 661 373 
Q 234 822 234 1631 
Q 234 2469 665 2931 
Q 1097 3394 1784 3394 
Q 2450 3394 2872 2941 
Q 3294 2488 3294 1666 
Q 3294 1616 3291 1516 
L 816 1516 
Q 847 969 1125 678 
Q 1403 388 1819 388 
Q 2128 388 2347 550 
Q 2566 713 2694 1069 
z
M 847 1978 
L 2700 1978 
Q 2663 2397 2488 2606 
Q 2219 2931 1791 2931 
Q 1403 2931 1139 2672 
Q 875 2413 847 1978 
z
" transform="scale(0.015625)"/>
       <path id="ArialMT-73" d="M 197 991 
L 753 1078 
Q 800 744 1014 566 
Q 1228 388 1613 388 
Q 2000 388 2187 545 
Q 2375 703 2375 916 
Q 2375 1106 2209 1216 
Q 2094 1291 1634 1406 
Q 1016 1563 777 1677 
Q 538 1791 414 1992 
Q 291 2194 291 2438 
Q 291 2659 392 2848 
Q 494 3038 669 3163 
Q 800 3259 1026 3326 
Q 1253 3394 1513 3394 
Q 1903 3394 2198 3281 
Q 2494 3169 2634 2976 
Q 2775 2784 2828 2463 
L 2278 2388 
Q 2241 2644 2061 2787 
Q 1881 2931 1553 2931 
Q 1166 2931 1000 2803 
Q 834 2675 834 2503 
Q 834 2394 903 2306 
Q 972 2216 1119 2156 
Q 1203 2125 1616 2013 
Q 2213 1853 2448 1751 
Q 2684 1650 2818 1456 
Q 2953 1263 2953 975 
Q 2953 694 2789 445 
Q 2625 197 2315 61 
Q 2006 -75 1616 -75 
Q 969 -75 630 194 
Q 291 463 197 991 
z
" transform="scale(0.015625)"/>
       <path id="ArialMT-69" d="M 425 3934 
L 425 4581 
L 988 4581 
L 988 3934 
L 425 3934 
z
M 425 0 
L 425 3319 
L 988 3319 
L 988 0 
L 425 0 
z
" transform="scale(0.015625)"/>
       <path id="ArialMT-79" d="M 397 -1278 
L 334 -750 
Q 519 -800 656 -800 
Q 844 -800 956 -737 
Q 1069 -675 1141 -563 
Q 1194 -478 1313 -144 
Q 1328 -97 1363 -6 
L 103 3319 
L 709 3319 
L 1400 1397 
Q 1534 1031 1641 628 
Q 1738 1016 1872 1384 
L 2581 3319 
L 3144 3319 
L 1881 -56 
Q 1678 -603 1566 -809 
Q 1416 -1088 1222 -1217 
Q 1028 -1347 759 -1347 
Q 597 -1347 397 -1278 
z
" transform="scale(0.015625)"/>
      </defs>
      <use xlink:href="#ArialMT-49"/>
      <use xlink:href="#ArialMT-6e" x="27.783203"/>
      <use xlink:href="#ArialMT-74" x="83.398438"/>
      <use xlink:href="#ArialMT-65" x="111.181641"/>
      <use xlink:href="#ArialMT-6e" x="166.796875"/>
      <use xlink:href="#ArialMT-73" x="222.412109"/>
      <use xlink:href="#ArialMT-69" x="272.412109"/>
      <use xlink:href="#ArialMT-74" x="294.628906"/>
      <use xlink:href="#ArialMT-79" x="322.412109"/>
     </g>
    </g>
   </g>
   <g id="line2d_5">
    <path d="M 239.104 126.441001 
L 237.899771 126.570497 
L 236.196924 127.171965 
L 234.494077 127.522305 
L 232.791231 128.254647 
L 231.088384 128.164892 
L 229.385537 128.245263 
L 227.682691 128.90429 
L 225.979844 128.999385 
L 224.276997 128.347159 
L 222.57415 128.643097 
L 220.871304 128.315186 
L 219.168457 126.825232 
L 217.46561 125.48402 
L 214.059917 127.015815 
L 212.35707 126.840936 
L 210.654223 127.292507 
L 208.951377 127.163201 
L 207.24853 127.877402 
L 203.842837 125.829794 
L 202.13999 126.674881 
L 200.437143 126.298642 
L 198.734296 127.086639 
L 197.03145 128.028762 
L 195.328603 126.944232 
L 193.625756 126.287246 
L 191.92291 127.512401 
L 190.220063 128.244553 
L 188.517216 127.906303 
L 186.814369 126.797788 
L 185.111523 127.280156 
L 183.408676 126.84917 
L 181.705829 127.648642 
L 180.002983 129.519065 
L 178.300136 129.748298 
L 176.597289 127.926446 
L 174.894442 126.964525 
L 173.191596 127.457493 
L 171.488749 126.596198 
L 169.785902 126.308197 
L 168.083056 126.876237 
L 166.380209 127.626698 
L 164.677362 127.278827 
L 162.974515 128.324868 
L 161.271669 127.234368 
L 159.568822 126.930888 
L 157.865975 126.455152 
L 156.163129 127.546998 
L 154.460282 127.946449 
L 152.757435 128.046847 
L 151.054588 126.144617 
L 149.351742 126.298763 
L 147.648895 125.967559 
L 145.946048 127.452949 
L 144.243202 126.514545 
L 142.540355 128.495819 
L 140.837508 127.540537 
L 139.134662 128.262657 
L 137.431815 126.716904 
L 135.728968 126.877243 
L 134.026121 124.864059 
L 132.323275 125.421772 
L 130.620428 122.948107 
L 128.917581 122.25284 
L 127.214735 115.077613 
L 125.511888 105.590571 
L 123.809041 55.12828 
L 122.106194 23.6592 
L 120.403348 81.776921 
L 118.700501 107.975878 
L 116.997654 117.191028 
L 115.294808 120.096382 
L 113.591961 122.711562 
L 111.889114 124.429636 
L 110.186267 125.325091 
L 108.483421 125.023424 
L 106.780574 124.529118 
L 103.374881 124.706804 
L 101.672034 125.026658 
L 99.969187 125.593334 
L 98.26634 125.731777 
L 96.563494 126.280727 
L 94.860647 127.32371 
L 93.1578 127.036747 
L 91.454954 127.955761 
L 89.752107 127.827638 
L 88.04926 128.088146 
L 86.346413 128.047471 
L 84.643567 129.170095 
L 82.94072 129.998529 
L 81.237873 129.75341 
L 79.535027 129.088917 
L 76.129333 126.896862 
L 72.72364 126.163802 
L 71.020793 126.890544 
L 69.317946 126.913379 
L 67.6151 126.49139 
L 65.912253 125.655079 
L 64.209406 125.787172 
L 62.506559 126.526821 
L 60.803713 127.43534 
L 59.100866 127.242858 
L 57.398019 127.992017 
L 55.695173 127.067371 
L 53.992326 126.92977 
L 52.289479 125.446246 
L 50.586632 125.954301 
L 48.883786 126.657183 
L 47.180939 126.318561 
L 45.478092 125.049438 
L 43.775246 126.623966 
L 42.072399 127.621215 
L 40.369552 127.507688 
L 38.666705 127.280291 
L 36.963859 128.477524 
L 35.261012 127.647343 
L 28.449625 127.43054 
L 26.746778 128.087115 
L 25.043932 127.794811 
L 23.341085 128.012623 
L 21.638238 127.175876 
L 19.935392 126.206517 
L 16.529698 125.635953 
L 14.826852 126.657633 
L 13.124005 126.17882 
L 11.421158 126.344193 
L 9.718311 127.013012 
L 8.015465 127.008402 
L 6.312618 126.230766 
L 2.906925 125.935263 
L 1.204078 126.060664 
L -0.498769 127.308538 
L -1 127.035225 
L -1 127.035225 
" clip-path="url(#pcc3c218244)" style="fill: none; stroke: #8683bd; stroke-width: 1.5; stroke-linecap: square"/>
   </g>
   <g id="line2d_6">
    <path d="M 124.412827 23.6592 
L 139.405938 23.6592 
" clip-path="url(#pcc3c218244)" style="fill: none; stroke: #808080; stroke-linecap: square"/>
   </g>
   <g id="line2d_7">
    <path d="M 239.104 127.11197 
L 236.196924 127.545806 
L 234.494077 127.252027 
L 232.791231 127.423133 
L 231.088384 127.879713 
L 229.385537 128.531682 
L 225.979844 128.06522 
L 224.276997 127.427405 
L 220.871304 126.698116 
L 219.168457 126.007469 
L 217.46561 127.393513 
L 215.762764 128.502793 
L 214.059917 128.628521 
L 212.35707 127.575037 
L 210.654223 125.670661 
L 208.951377 126.154656 
L 207.24853 126.228768 
L 205.545683 125.290393 
L 203.842837 125.885096 
L 202.13999 126.819458 
L 200.437143 125.613774 
L 198.734296 125.507156 
L 197.03145 125.246412 
L 195.328603 125.941715 
L 193.625756 128.072071 
L 191.92291 128.861007 
L 190.220063 127.675854 
L 188.517216 126.218977 
L 185.111523 126.035618 
L 183.408676 125.189062 
L 180.002983 126.536116 
L 178.300136 127.923371 
L 176.597289 126.865994 
L 174.894442 127.266713 
L 173.191596 128.031079 
L 171.488749 128.459975 
L 169.785902 129.578021 
L 168.083056 129.832378 
L 166.380209 127.847726 
L 164.677362 127.013522 
L 161.271669 126.653937 
L 159.568822 126.061774 
L 157.865975 125.687107 
L 156.163129 124.532609 
L 154.460282 125.163381 
L 152.757435 124.830711 
L 151.054588 125.804573 
L 149.351742 125.567628 
L 147.648895 125.944699 
L 145.946048 126.050499 
L 144.243202 125.717783 
L 142.540355 124.807657 
L 140.837508 126.051634 
L 139.134662 125.075821 
L 137.431815 124.898666 
L 135.728968 119.756404 
L 134.026121 113.028896 
L 132.323275 84.951137 
L 130.620428 47.906665 
L 128.917581 82.052658 
L 127.214735 110.569374 
L 125.511888 117.719634 
L 123.809041 122.300954 
L 122.106194 122.492443 
L 118.700501 124.961657 
L 116.997654 126.334059 
L 115.294808 126.021951 
L 113.591961 126.727047 
L 111.889114 126.709791 
L 110.186267 127.866454 
L 108.483421 126.829242 
L 106.780574 127.062066 
L 105.077727 125.874722 
L 103.374881 126.164411 
L 101.672034 127.437712 
L 99.969187 127.492724 
L 98.26634 125.067431 
L 96.563494 125.860377 
L 94.860647 127.225557 
L 93.1578 128.389423 
L 91.454954 129.16869 
L 89.752107 128.113298 
L 86.346413 126.317549 
L 84.643567 125.714534 
L 82.94072 126.548857 
L 81.237873 125.966712 
L 79.535027 126.590479 
L 77.83218 126.373947 
L 74.426486 126.856792 
L 72.72364 126.176791 
L 71.020793 125.282259 
L 69.317946 126.823078 
L 67.6151 128.024604 
L 65.912253 128.408027 
L 64.209406 127.212811 
L 62.506559 127.68483 
L 60.803713 127.10062 
L 59.100866 126.662955 
L 57.398019 126.736619 
L 55.695173 128.003679 
L 53.992326 128.146206 
L 52.289479 127.674541 
L 50.586632 127.372644 
L 48.883786 126.261589 
L 47.180939 126.768776 
L 45.478092 128.410117 
L 43.775246 128.351348 
L 42.072399 127.602678 
L 40.369552 127.856703 
L 38.666705 127.245659 
L 36.963859 126.92108 
L 35.261012 126.30926 
L 31.855319 126.745956 
L 30.152472 126.058098 
L 23.341085 127.568253 
L 21.638238 128.819807 
L 19.935392 128.451811 
L 18.232545 127.651826 
L 16.529698 128.278903 
L 14.826852 127.910663 
L 13.124005 128.58889 
L 11.421158 128.930872 
L 9.718311 128.742235 
L 8.015465 128.141187 
L 6.312618 127.197405 
L 4.609771 126.619701 
L 2.906925 127.753896 
L 1.204078 128.009305 
L -0.498769 128.811222 
L -1 128.756537 
L -1 128.756537 
" clip-path="url(#pcc3c218244)" style="fill: none; stroke: #5b3495; stroke-width: 1.5; stroke-linecap: square"/>
   </g>
   <g id="line2d_8">
    <path d="M 132.92706 47.906665 
L 147.920172 47.906665 
" clip-path="url(#pcc3c218244)" style="fill: none; stroke: #808080; stroke-linecap: square"/>
   </g>
   <g id="line2d_9">
    <path d="M 239.104 127.935732 
L 237.899771 127.020288 
L 236.196924 126.990203 
L 234.494077 127.105356 
L 232.791231 126.313063 
L 231.088384 125.833492 
L 229.385537 126.464354 
L 227.682691 126.582747 
L 225.979844 127.306861 
L 222.57415 128.076579 
L 220.871304 127.652857 
L 219.168457 126.508067 
L 215.762764 127.253612 
L 212.35707 127.138037 
L 210.654223 126.704015 
L 208.951377 126.550523 
L 207.24853 125.845434 
L 205.545683 126.664552 
L 202.13999 126.228658 
L 200.437143 125.591708 
L 198.734296 126.391946 
L 197.03145 127.050839 
L 195.328603 126.90085 
L 193.625756 127.624192 
L 191.92291 126.815524 
L 188.517216 126.637138 
L 186.814369 126.727216 
L 185.111523 128.552499 
L 183.408676 128.76437 
L 181.705829 128.188582 
L 180.002983 127.013613 
L 178.300136 127.702371 
L 176.597289 128.872992 
L 174.894442 128.428729 
L 173.191596 127.576539 
L 171.488749 126.905906 
L 168.083056 126.184215 
L 166.380209 126.074443 
L 164.677362 125.650066 
L 162.974515 126.091692 
L 161.271669 126.922777 
L 159.568822 127.52687 
L 157.865975 128.39199 
L 156.163129 128.564817 
L 154.460282 127.37977 
L 152.757435 126.398266 
L 151.054588 126.139166 
L 147.648895 126.575428 
L 145.946048 125.991179 
L 144.243202 125.672876 
L 139.134662 128.021196 
L 137.431815 127.170152 
L 135.728968 125.83948 
L 134.026121 126.054328 
L 132.323275 127.417008 
L 130.620428 127.325177 
L 128.917581 126.573633 
L 127.214735 123.729674 
L 125.511888 118.677779 
L 123.809041 99.336685 
L 122.106194 102.009887 
L 120.403348 118.875791 
L 118.700501 122.682175 
L 116.997654 124.616681 
L 115.294808 123.924481 
L 113.591961 124.753018 
L 111.889114 125.760332 
L 110.186267 127.860678 
L 108.483421 128.390549 
L 106.780574 128.105038 
L 105.077727 127.283514 
L 103.374881 127.017083 
L 101.672034 126.260054 
L 99.969187 126.497804 
L 98.26634 126.995255 
L 96.563494 127.831368 
L 94.860647 127.856244 
L 93.1578 128.443849 
L 91.454954 128.568499 
L 89.752107 128.32481 
L 88.04926 127.6098 
L 86.346413 127.796278 
L 84.643567 128.333856 
L 82.94072 128.194536 
L 81.237873 127.076429 
L 77.83218 125.947901 
L 76.129333 125.832462 
L 72.72364 125.201799 
L 71.020793 125.344055 
L 69.317946 125.815857 
L 67.6151 126.656249 
L 64.209406 126.268863 
L 62.506559 126.703585 
L 60.803713 126.456097 
L 59.100866 126.577159 
L 57.398019 125.927381 
L 55.695173 125.693272 
L 53.992326 126.558034 
L 52.289479 126.631649 
L 50.586632 125.972011 
L 48.883786 126.113462 
L 47.180939 127.475164 
L 45.478092 129.461367 
L 43.775246 129.787455 
L 42.072399 128.776253 
L 40.369552 128.283802 
L 36.963859 126.813093 
L 35.261012 126.838216 
L 33.558165 128.238135 
L 31.855319 128.456522 
L 30.152472 126.375861 
L 28.449625 125.12893 
L 25.043932 126.28301 
L 23.341085 127.018696 
L 21.638238 126.651679 
L 19.935392 126.744681 
L 16.529698 126.065388 
L 14.826852 126.13489 
L 13.124005 126.992553 
L 11.421158 127.440499 
L 9.718311 128.084518 
L 8.015465 128.313913 
L 6.312618 126.656909 
L 4.609771 125.749272 
L 1.204078 125.128114 
L -0.498769 125.417824 
L -1 125.620328 
L -1 125.620328 
" clip-path="url(#pcc3c218244)" style="fill: none; stroke: #3f007d; stroke-width: 1.5; stroke-linecap: square"/>
   </g>
   <g id="line2d_10">
    <path d="M 126.115674 99.336685 
L 141.108785 99.336685 
" clip-path="url(#pcc3c218244)" style="fill: none; stroke: #808080; stroke-linecap: square"/>
   </g>
   <g id="patch_3">
    <path d="M 29.763 135.8496 
L 29.763 18.3168 
" style="fill: none; stroke: #000000; stroke-width: 0.8; stroke-linejoin: miter; stroke-linecap: square"/>
   </g>
   <g id="patch_4">
    <path d="M 29.763 135.8496 
L 214.2936 135.8496 
" style="fill: none; stroke: #000000; stroke-width: 0.8; stroke-linejoin: miter; stroke-linecap: square"/>
   </g>
  </g>
 </g>
 <defs>
  <clipPath id="pcc3c218244">
   <rect x="29.763" y="18.3168" width="184.5306" height="117.5328"/>
  </clipPath>
 </defs>
</svg>
