<?xml version="1.0" encoding="utf-8" standalone="no"?>
<!DOCTYPE svg PUBLIC "-//W3C//DTD SVG 1.1//EN"
  "http://www.w3.org/Graphics/SVG/1.1/DTD/svg11.dtd">
<!-- Created with matplotlib (https://matplotlib.org/) -->
<svg height="152.64pt" version="1.1" viewBox="0 0 238.104 152.64" width="238.104pt" xmlns="http://www.w3.org/2000/svg" xmlns:xlink="http://www.w3.org/1999/xlink">
 <metadata>
  <rdf:RDF xmlns:cc="http://creativecommons.org/ns#" xmlns:dc="http://purl.org/dc/elements/1.1/" xmlns:rdf="http://www.w3.org/1999/02/22-rdf-syntax-ns#">
   <cc:Work>
    <dc:type rdf:resource="http://purl.org/dc/dcmitype/StillImage"/>
    <dc:date>2024-02-21T12:38:23.116863</dc:date>
    <dc:format>image/svg+xml</dc:format>
    <dc:creator>
     <cc:Agent>
      <dc:title>Matplotlib v3.3.4, https://matplotlib.org/</dc:title>
     </cc:Agent>
    </dc:creator>
   </cc:Work>
  </rdf:RDF>
 </metadata>
 <defs>
  <style type="text/css">*{stroke-linecap:butt;stroke-linejoin:round;}</style>
 </defs>
 <g id="figure_1">
  <g id="patch_1">
   <path d="M 0 152.64 
L 238.104 152.64 
L 238.104 0 
L 0 0 
z
" style="fill:none;"/>
  </g>
  <g id="axes_1">
   <g id="patch_2">
    <path d="M 29.763 133.56 
L 214.2936 133.56 
L 214.2936 18.3168 
L 29.763 18.3168 
z
" style="fill:none;"/>
   </g>
   <g id="matplotlib.axis_1">
    <g id="xtick_1">
     <g id="line2d_1">
      <defs>
       <path d="M 0 0 
L 0 3.5 
" id="m49eb4bee92" style="stroke:#000000;stroke-width:0.8;"/>
      </defs>
      <g>
       <use style="stroke:#000000;stroke-width:0.8;" x="214.2936" xlink:href="#m49eb4bee92" y="133.56"/>
      </g>
     </g>
     <g id="text_1">
      <!-- −130 -->
      <g transform="translate(203.031881 147.717813)scale(0.1 -0.1)">
       <defs>
        <path d="M 52.828125 31.203125 
L 5.5625 31.203125 
L 5.5625 39.40625 
L 52.828125 39.40625 
z
" id="ArialMT-8722"/>
        <path d="M 37.25 0 
L 28.46875 0 
L 28.46875 56 
Q 25.296875 52.984375 20.140625 49.953125 
Q 14.984375 46.921875 10.890625 45.40625 
L 10.890625 53.90625 
Q 18.265625 57.375 23.78125 62.296875 
Q 29.296875 67.234375 31.59375 71.875 
L 37.25 71.875 
z
" id="ArialMT-49"/>
        <path d="M 4.203125 18.890625 
L 12.984375 20.0625 
Q 14.5 12.59375 18.140625 9.296875 
Q 21.78125 6 27 6 
Q 33.203125 6 37.46875 10.296875 
Q 41.75 14.59375 41.75 20.953125 
Q 41.75 27 37.796875 30.921875 
Q 33.84375 34.859375 27.734375 34.859375 
Q 25.25 34.859375 21.53125 33.890625 
L 22.515625 41.609375 
Q 23.390625 41.5 23.921875 41.5 
Q 29.546875 41.5 34.03125 44.421875 
Q 38.53125 47.359375 38.53125 53.46875 
Q 38.53125 58.296875 35.25 61.46875 
Q 31.984375 64.65625 26.8125 64.65625 
Q 21.6875 64.65625 18.265625 61.421875 
Q 14.84375 58.203125 13.875 51.765625 
L 5.078125 53.328125 
Q 6.6875 62.15625 12.390625 67.015625 
Q 18.109375 71.875 26.609375 71.875 
Q 32.46875 71.875 37.390625 69.359375 
Q 42.328125 66.84375 44.9375 62.5 
Q 47.5625 58.15625 47.5625 53.265625 
Q 47.5625 48.640625 45.0625 44.828125 
Q 42.578125 41.015625 37.703125 38.765625 
Q 44.046875 37.3125 47.5625 32.6875 
Q 51.078125 28.078125 51.078125 21.140625 
Q 51.078125 11.765625 44.234375 5.25 
Q 37.40625 -1.265625 26.953125 -1.265625 
Q 17.53125 -1.265625 11.296875 4.34375 
Q 5.078125 9.96875 4.203125 18.890625 
z
" id="ArialMT-51"/>
        <path d="M 4.15625 35.296875 
Q 4.15625 48 6.765625 55.734375 
Q 9.375 63.484375 14.515625 67.671875 
Q 19.671875 71.875 27.484375 71.875 
Q 33.25 71.875 37.59375 69.546875 
Q 41.9375 67.234375 44.765625 62.859375 
Q 47.609375 58.5 49.21875 52.21875 
Q 50.828125 45.953125 50.828125 35.296875 
Q 50.828125 22.703125 48.234375 14.96875 
Q 45.65625 7.234375 40.5 3 
Q 35.359375 -1.21875 27.484375 -1.21875 
Q 17.140625 -1.21875 11.234375 6.203125 
Q 4.15625 15.140625 4.15625 35.296875 
z
M 13.1875 35.296875 
Q 13.1875 17.671875 17.3125 11.828125 
Q 21.4375 6 27.484375 6 
Q 33.546875 6 37.671875 11.859375 
Q 41.796875 17.71875 41.796875 35.296875 
Q 41.796875 52.984375 37.671875 58.78125 
Q 33.546875 64.59375 27.390625 64.59375 
Q 21.34375 64.59375 17.71875 59.46875 
Q 13.1875 52.9375 13.1875 35.296875 
z
" id="ArialMT-48"/>
       </defs>
       <use xlink:href="#ArialMT-8722"/>
       <use x="58.398438" xlink:href="#ArialMT-49"/>
       <use x="114.013672" xlink:href="#ArialMT-51"/>
       <use x="169.628906" xlink:href="#ArialMT-48"/>
      </g>
     </g>
    </g>
    <g id="xtick_2">
     <g id="line2d_2">
      <g>
       <use style="stroke:#000000;stroke-width:0.8;" x="168.16095" xlink:href="#m49eb4bee92" y="133.56"/>
      </g>
     </g>
     <g id="text_2">
      <!-- −125 -->
      <g transform="translate(156.899231 147.717813)scale(0.1 -0.1)">
       <defs>
        <path d="M 50.34375 8.453125 
L 50.34375 0 
L 3.03125 0 
Q 2.9375 3.171875 4.046875 6.109375 
Q 5.859375 10.9375 9.828125 15.625 
Q 13.8125 20.3125 21.34375 26.46875 
Q 33.015625 36.03125 37.109375 41.625 
Q 41.21875 47.21875 41.21875 52.203125 
Q 41.21875 57.421875 37.46875 61 
Q 33.734375 64.59375 27.734375 64.59375 
Q 21.390625 64.59375 17.578125 60.78125 
Q 13.765625 56.984375 13.71875 50.25 
L 4.6875 51.171875 
Q 5.609375 61.28125 11.65625 66.578125 
Q 17.71875 71.875 27.9375 71.875 
Q 38.234375 71.875 44.234375 66.15625 
Q 50.25 60.453125 50.25 52 
Q 50.25 47.703125 48.484375 43.546875 
Q 46.734375 39.40625 42.65625 34.8125 
Q 38.578125 30.21875 29.109375 22.21875 
Q 21.1875 15.578125 18.9375 13.203125 
Q 16.703125 10.84375 15.234375 8.453125 
z
" id="ArialMT-50"/>
        <path d="M 4.15625 18.75 
L 13.375 19.53125 
Q 14.40625 12.796875 18.140625 9.390625 
Q 21.875 6 27.15625 6 
Q 33.5 6 37.890625 10.78125 
Q 42.28125 15.578125 42.28125 23.484375 
Q 42.28125 31 38.0625 35.34375 
Q 33.84375 39.703125 27 39.703125 
Q 22.75 39.703125 19.328125 37.765625 
Q 15.921875 35.84375 13.96875 32.765625 
L 5.71875 33.84375 
L 12.640625 70.609375 
L 48.25 70.609375 
L 48.25 62.203125 
L 19.671875 62.203125 
L 15.828125 42.96875 
Q 22.265625 47.46875 29.34375 47.46875 
Q 38.71875 47.46875 45.15625 40.96875 
Q 51.609375 34.46875 51.609375 24.265625 
Q 51.609375 14.546875 45.953125 7.46875 
Q 39.0625 -1.21875 27.15625 -1.21875 
Q 17.390625 -1.21875 11.203125 4.25 
Q 5.03125 9.71875 4.15625 18.75 
z
" id="ArialMT-53"/>
       </defs>
       <use xlink:href="#ArialMT-8722"/>
       <use x="58.398438" xlink:href="#ArialMT-49"/>
       <use x="114.013672" xlink:href="#ArialMT-50"/>
       <use x="169.628906" xlink:href="#ArialMT-53"/>
      </g>
     </g>
    </g>
    <g id="xtick_3">
     <g id="line2d_3">
      <g>
       <use style="stroke:#000000;stroke-width:0.8;" x="122.0283" xlink:href="#m49eb4bee92" y="133.56"/>
      </g>
     </g>
     <g id="text_3">
      <!-- −120 -->
      <g transform="translate(110.766581 147.717813)scale(0.1 -0.1)">
       <use xlink:href="#ArialMT-8722"/>
       <use x="58.398438" xlink:href="#ArialMT-49"/>
       <use x="114.013672" xlink:href="#ArialMT-50"/>
       <use x="169.628906" xlink:href="#ArialMT-48"/>
      </g>
     </g>
    </g>
    <g id="xtick_4">
     <g id="line2d_4">
      <g>
       <use style="stroke:#000000;stroke-width:0.8;" x="75.89565" xlink:href="#m49eb4bee92" y="133.56"/>
      </g>
     </g>
     <g id="text_4">
      <!-- −115 -->
      <g transform="translate(65.002681 147.717813)scale(0.1 -0.1)">
       <use xlink:href="#ArialMT-8722"/>
       <use x="58.398438" xlink:href="#ArialMT-49"/>
       <use x="106.638672" xlink:href="#ArialMT-49"/>
       <use x="162.253906" xlink:href="#ArialMT-53"/>
      </g>
     </g>
    </g>
    <g id="xtick_5">
     <g id="line2d_5">
      <g>
       <use style="stroke:#000000;stroke-width:0.8;" x="29.763" xlink:href="#m49eb4bee92" y="133.56"/>
      </g>
     </g>
     <g id="text_5">
      <!-- −110 -->
      <g transform="translate(18.870031 147.717813)scale(0.1 -0.1)">
       <use xlink:href="#ArialMT-8722"/>
       <use x="58.398438" xlink:href="#ArialMT-49"/>
       <use x="106.638672" xlink:href="#ArialMT-49"/>
       <use x="162.253906" xlink:href="#ArialMT-48"/>
      </g>
     </g>
    </g>
    <g id="text_6">
     <!-- $\mathrm{^{19}F}$ (ppm) -->
     <g transform="translate(100.0283 162.805313)scale(0.1 -0.1)">
      <defs>
       <path d="M 12.40625 8.296875 
L 28.515625 8.296875 
L 28.515625 63.921875 
L 10.984375 60.40625 
L 10.984375 69.390625 
L 28.421875 72.90625 
L 38.28125 72.90625 
L 38.28125 8.296875 
L 54.390625 8.296875 
L 54.390625 0 
L 12.40625 0 
z
" id="DejaVuSans-49"/>
       <path d="M 10.984375 1.515625 
L 10.984375 10.5 
Q 14.703125 8.734375 18.5 7.8125 
Q 22.3125 6.890625 25.984375 6.890625 
Q 35.75 6.890625 40.890625 13.453125 
Q 46.046875 20.015625 46.78125 33.40625 
Q 43.953125 29.203125 39.59375 26.953125 
Q 35.25 24.703125 29.984375 24.703125 
Q 19.046875 24.703125 12.671875 31.3125 
Q 6.296875 37.9375 6.296875 49.421875 
Q 6.296875 60.640625 12.9375 67.421875 
Q 19.578125 74.21875 30.609375 74.21875 
Q 43.265625 74.21875 49.921875 64.515625 
Q 56.59375 54.828125 56.59375 36.375 
Q 56.59375 19.140625 48.40625 8.859375 
Q 40.234375 -1.421875 26.421875 -1.421875 
Q 22.703125 -1.421875 18.890625 -0.6875 
Q 15.09375 0.046875 10.984375 1.515625 
z
M 30.609375 32.421875 
Q 37.25 32.421875 41.125 36.953125 
Q 45.015625 41.5 45.015625 49.421875 
Q 45.015625 57.28125 41.125 61.84375 
Q 37.25 66.40625 30.609375 66.40625 
Q 23.96875 66.40625 20.09375 61.84375 
Q 16.21875 57.28125 16.21875 49.421875 
Q 16.21875 41.5 20.09375 36.953125 
Q 23.96875 32.421875 30.609375 32.421875 
z
" id="DejaVuSans-57"/>
       <path d="M 9.8125 72.90625 
L 51.703125 72.90625 
L 51.703125 64.59375 
L 19.671875 64.59375 
L 19.671875 43.109375 
L 48.578125 43.109375 
L 48.578125 34.8125 
L 19.671875 34.8125 
L 19.671875 0 
L 9.8125 0 
z
" id="DejaVuSans-70"/>
       <path id="ArialMT-32"/>
       <path d="M 23.390625 -21.046875 
Q 16.109375 -11.859375 11.078125 0.4375 
Q 6.0625 12.75 6.0625 25.921875 
Q 6.0625 37.546875 9.8125 48.1875 
Q 14.203125 60.546875 23.390625 72.796875 
L 29.6875 72.796875 
Q 23.78125 62.640625 21.875 58.296875 
Q 18.890625 51.5625 17.1875 44.234375 
Q 15.09375 35.109375 15.09375 25.875 
Q 15.09375 2.390625 29.6875 -21.046875 
z
" id="ArialMT-40"/>
       <path d="M 6.59375 -19.875 
L 6.59375 51.859375 
L 14.59375 51.859375 
L 14.59375 45.125 
Q 17.4375 49.078125 21 51.046875 
Q 24.5625 53.03125 29.640625 53.03125 
Q 36.28125 53.03125 41.359375 49.609375 
Q 46.4375 46.1875 49.015625 39.953125 
Q 51.609375 33.734375 51.609375 26.3125 
Q 51.609375 18.359375 48.75 11.984375 
Q 45.90625 5.609375 40.453125 2.21875 
Q 35.015625 -1.171875 29 -1.171875 
Q 24.609375 -1.171875 21.109375 0.6875 
Q 17.625 2.546875 15.375 5.375 
L 15.375 -19.875 
z
M 14.546875 25.640625 
Q 14.546875 15.625 18.59375 10.84375 
Q 22.65625 6.0625 28.421875 6.0625 
Q 34.28125 6.0625 38.453125 11.015625 
Q 42.625 15.96875 42.625 26.375 
Q 42.625 36.28125 38.546875 41.203125 
Q 34.46875 46.140625 28.8125 46.140625 
Q 23.1875 46.140625 18.859375 40.890625 
Q 14.546875 35.640625 14.546875 25.640625 
z
" id="ArialMT-112"/>
       <path d="M 6.59375 0 
L 6.59375 51.859375 
L 14.453125 51.859375 
L 14.453125 44.578125 
Q 16.890625 48.390625 20.9375 50.703125 
Q 25 53.03125 30.171875 53.03125 
Q 35.9375 53.03125 39.625 50.640625 
Q 43.3125 48.25 44.828125 43.953125 
Q 50.984375 53.03125 60.84375 53.03125 
Q 68.5625 53.03125 72.703125 48.75 
Q 76.859375 44.484375 76.859375 35.59375 
L 76.859375 0 
L 68.109375 0 
L 68.109375 32.671875 
Q 68.109375 37.9375 67.25 40.25 
Q 66.40625 42.578125 64.15625 43.984375 
Q 61.921875 45.40625 58.890625 45.40625 
Q 53.421875 45.40625 49.796875 41.765625 
Q 46.1875 38.140625 46.1875 30.125 
L 46.1875 0 
L 37.40625 0 
L 37.40625 33.6875 
Q 37.40625 39.546875 35.25 42.46875 
Q 33.109375 45.40625 28.21875 45.40625 
Q 24.515625 45.40625 21.359375 43.453125 
Q 18.21875 41.5 16.796875 37.734375 
Q 15.375 33.984375 15.375 26.90625 
L 15.375 0 
z
" id="ArialMT-109"/>
       <path d="M 12.359375 -21.046875 
L 6.0625 -21.046875 
Q 20.65625 2.390625 20.65625 25.875 
Q 20.65625 35.0625 18.5625 44.09375 
Q 16.890625 51.421875 13.921875 58.15625 
Q 12.015625 62.546875 6.0625 72.796875 
L 12.359375 72.796875 
Q 21.53125 60.546875 25.921875 48.1875 
Q 29.6875 37.546875 29.6875 25.921875 
Q 29.6875 12.75 24.625 0.4375 
Q 19.578125 -11.859375 12.359375 -21.046875 
z
" id="ArialMT-41"/>
      </defs>
      <use transform="translate(0.957031 39.046875)scale(0.7)" xlink:href="#DejaVuSans-49"/>
      <use transform="translate(45.493164 39.046875)scale(0.7)" xlink:href="#DejaVuSans-57"/>
      <use transform="translate(92.763672 0.765625)" xlink:href="#DejaVuSans-70"/>
      <use transform="translate(150.283203 0.765625)" xlink:href="#ArialMT-32"/>
      <use transform="translate(178.066406 0.765625)" xlink:href="#ArialMT-40"/>
      <use transform="translate(211.367188 0.765625)" xlink:href="#ArialMT-112"/>
      <use transform="translate(266.982422 0.765625)" xlink:href="#ArialMT-112"/>
      <use transform="translate(322.597656 0.765625)" xlink:href="#ArialMT-109"/>
      <use transform="translate(405.898438 0.765625)" xlink:href="#ArialMT-41"/>
     </g>
    </g>
   </g>
   <g id="matplotlib.axis_2">
    <g id="ytick_1">
     <g id="line2d_6">
      <defs>
       <path d="M 0 0 
L -3.5 0 
" id="m3fdc359fd2" style="stroke:#000000;stroke-width:0.8;"/>
      </defs>
      <g>
       <use style="stroke:#000000;stroke-width:0.8;" x="29.763" xlink:href="#m3fdc359fd2" y="121.417652"/>
      </g>
     </g>
    </g>
    <g id="ytick_2">
     <g id="line2d_7">
      <g>
       <use style="stroke:#000000;stroke-width:0.8;" x="29.763" xlink:href="#m3fdc359fd2" y="95.696304"/>
      </g>
     </g>
    </g>
    <g id="ytick_3">
     <g id="line2d_8">
      <g>
       <use style="stroke:#000000;stroke-width:0.8;" x="29.763" xlink:href="#m3fdc359fd2" y="69.974956"/>
      </g>
     </g>
    </g>
    <g id="ytick_4">
     <g id="line2d_9">
      <g>
       <use style="stroke:#000000;stroke-width:0.8;" x="29.763" xlink:href="#m3fdc359fd2" y="44.253608"/>
      </g>
     </g>
    </g>
    <g id="ytick_5">
     <g id="line2d_10">
      <g>
       <use style="stroke:#000000;stroke-width:0.8;" x="29.763" xlink:href="#m3fdc359fd2" y="18.53226"/>
      </g>
     </g>
    </g>
    <g id="text_7">
     <!-- Intensity -->
     <g transform="translate(16.658312 94.557931)rotate(-90)scale(0.1 -0.1)">
      <defs>
       <path d="M 9.328125 0 
L 9.328125 71.578125 
L 18.796875 71.578125 
L 18.796875 0 
z
" id="ArialMT-73"/>
       <path d="M 6.59375 0 
L 6.59375 51.859375 
L 14.5 51.859375 
L 14.5 44.484375 
Q 20.21875 53.03125 31 53.03125 
Q 35.6875 53.03125 39.625 51.34375 
Q 43.5625 49.65625 45.515625 46.921875 
Q 47.46875 44.1875 48.25 40.4375 
Q 48.734375 37.984375 48.734375 31.890625 
L 48.734375 0 
L 39.9375 0 
L 39.9375 31.546875 
Q 39.9375 36.921875 38.90625 39.578125 
Q 37.890625 42.234375 35.28125 43.8125 
Q 32.671875 45.40625 29.15625 45.40625 
Q 23.53125 45.40625 19.453125 41.84375 
Q 15.375 38.28125 15.375 28.328125 
L 15.375 0 
z
" id="ArialMT-110"/>
       <path d="M 25.78125 7.859375 
L 27.046875 0.09375 
Q 23.34375 -0.6875 20.40625 -0.6875 
Q 15.625 -0.6875 12.984375 0.828125 
Q 10.359375 2.34375 9.28125 4.8125 
Q 8.203125 7.28125 8.203125 15.1875 
L 8.203125 45.015625 
L 1.765625 45.015625 
L 1.765625 51.859375 
L 8.203125 51.859375 
L 8.203125 64.703125 
L 16.9375 69.96875 
L 16.9375 51.859375 
L 25.78125 51.859375 
L 25.78125 45.015625 
L 16.9375 45.015625 
L 16.9375 14.703125 
Q 16.9375 10.9375 17.40625 9.859375 
Q 17.875 8.796875 18.921875 8.15625 
Q 19.96875 7.515625 21.921875 7.515625 
Q 23.390625 7.515625 25.78125 7.859375 
z
" id="ArialMT-116"/>
       <path d="M 42.09375 16.703125 
L 51.171875 15.578125 
Q 49.03125 7.625 43.21875 3.21875 
Q 37.40625 -1.171875 28.375 -1.171875 
Q 17 -1.171875 10.328125 5.828125 
Q 3.65625 12.84375 3.65625 25.484375 
Q 3.65625 38.578125 10.390625 45.796875 
Q 17.140625 53.03125 27.875 53.03125 
Q 38.28125 53.03125 44.875 45.953125 
Q 51.46875 38.875 51.46875 26.03125 
Q 51.46875 25.25 51.421875 23.6875 
L 12.75 23.6875 
Q 13.234375 15.140625 17.578125 10.59375 
Q 21.921875 6.0625 28.421875 6.0625 
Q 33.25 6.0625 36.671875 8.59375 
Q 40.09375 11.140625 42.09375 16.703125 
z
M 13.234375 30.90625 
L 42.1875 30.90625 
Q 41.609375 37.453125 38.875 40.71875 
Q 34.671875 45.796875 27.984375 45.796875 
Q 21.921875 45.796875 17.796875 41.75 
Q 13.671875 37.703125 13.234375 30.90625 
z
" id="ArialMT-101"/>
       <path d="M 3.078125 15.484375 
L 11.765625 16.84375 
Q 12.5 11.625 15.84375 8.84375 
Q 19.1875 6.0625 25.203125 6.0625 
Q 31.25 6.0625 34.171875 8.515625 
Q 37.109375 10.984375 37.109375 14.3125 
Q 37.109375 17.28125 34.515625 19 
Q 32.71875 20.171875 25.53125 21.96875 
Q 15.875 24.421875 12.140625 26.203125 
Q 8.40625 27.984375 6.46875 31.125 
Q 4.546875 34.28125 4.546875 38.09375 
Q 4.546875 41.546875 6.125 44.5 
Q 7.71875 47.46875 10.453125 49.421875 
Q 12.5 50.921875 16.03125 51.96875 
Q 19.578125 53.03125 23.640625 53.03125 
Q 29.734375 53.03125 34.34375 51.265625 
Q 38.96875 49.515625 41.15625 46.5 
Q 43.359375 43.5 44.1875 38.484375 
L 35.59375 37.3125 
Q 35.015625 41.3125 32.203125 43.546875 
Q 29.390625 45.796875 24.265625 45.796875 
Q 18.21875 45.796875 15.625 43.796875 
Q 13.03125 41.796875 13.03125 39.109375 
Q 13.03125 37.40625 14.109375 36.03125 
Q 15.1875 34.625 17.484375 33.6875 
Q 18.796875 33.203125 25.25 31.453125 
Q 34.578125 28.953125 38.25 27.359375 
Q 41.9375 25.78125 44.03125 22.75 
Q 46.140625 19.734375 46.140625 15.234375 
Q 46.140625 10.84375 43.578125 6.953125 
Q 41.015625 3.078125 36.171875 0.953125 
Q 31.34375 -1.171875 25.25 -1.171875 
Q 15.140625 -1.171875 9.84375 3.03125 
Q 4.546875 7.234375 3.078125 15.484375 
z
" id="ArialMT-115"/>
       <path d="M 6.640625 61.46875 
L 6.640625 71.578125 
L 15.4375 71.578125 
L 15.4375 61.46875 
z
M 6.640625 0 
L 6.640625 51.859375 
L 15.4375 51.859375 
L 15.4375 0 
z
" id="ArialMT-105"/>
       <path d="M 6.203125 -19.96875 
L 5.21875 -11.71875 
Q 8.109375 -12.5 10.25 -12.5 
Q 13.1875 -12.5 14.9375 -11.515625 
Q 16.703125 -10.546875 17.828125 -8.796875 
Q 18.65625 -7.46875 20.515625 -2.25 
Q 20.75 -1.515625 21.296875 -0.09375 
L 1.609375 51.859375 
L 11.078125 51.859375 
L 21.875 21.828125 
Q 23.96875 16.109375 25.640625 9.8125 
Q 27.15625 15.875 29.25 21.625 
L 40.328125 51.859375 
L 49.125 51.859375 
L 29.390625 -0.875 
Q 26.21875 -9.421875 24.46875 -12.640625 
Q 22.125 -17 19.09375 -19.015625 
Q 16.0625 -21.046875 11.859375 -21.046875 
Q 9.328125 -21.046875 6.203125 -19.96875 
z
" id="ArialMT-121"/>
      </defs>
      <use xlink:href="#ArialMT-73"/>
      <use x="27.783203" xlink:href="#ArialMT-110"/>
      <use x="83.398438" xlink:href="#ArialMT-116"/>
      <use x="111.181641" xlink:href="#ArialMT-101"/>
      <use x="166.796875" xlink:href="#ArialMT-110"/>
      <use x="222.412109" xlink:href="#ArialMT-115"/>
      <use x="272.412109" xlink:href="#ArialMT-105"/>
      <use x="294.628906" xlink:href="#ArialMT-116"/>
      <use x="322.412109" xlink:href="#ArialMT-121"/>
     </g>
    </g>
   </g>
   <g id="line2d_11">
    <path clip-path="url(#pb99f8528c0)" d="M 214.32588 117.886242 
L 214.189748 120.218855 
L 214.121682 119.119977 
L 213.781352 124.961999 
L 213.713286 125.001881 
L 213.64522 124.734887 
L 213.509088 120.291509 
L 213.372956 114.994931 
L 213.168757 123.081662 
L 212.964559 116.726249 
L 212.896493 116.78762 
L 212.624229 121.601994 
L 212.420031 123.98505 
L 212.147766 120.738123 
L 212.0797 120.337854 
L 211.807436 116.144523 
L 211.73937 116.581702 
L 211.535172 120.804201 
L 211.467106 121.364193 
L 211.39904 119.630979 
L 211.194842 122.005366 
L 210.990643 120.918919 
L 210.922577 121.59475 
L 210.718379 117.548106 
L 210.650313 118.902233 
L 210.446115 122.528669 
L 210.309983 121.338091 
L 210.173851 125.024808 
L 210.105785 124.063757 
L 210.037718 124.521971 
L 209.969652 124.216797 
L 209.83352 121.092321 
L 209.765454 120.738839 
L 209.629322 119.016188 
L 209.357058 122.886937 
L 209.15286 119.470369 
L 209.084794 118.608533 
L 209.016728 120.049377 
L 208.880595 117.551496 
L 208.676397 120.645403 
L 208.608331 120.439204 
L 208.540265 119.449881 
L 208.472199 119.932239 
L 208.336067 119.369785 
L 208.268001 119.378127 
L 208.131869 122.555427 
L 208.063803 121.820276 
L 207.995737 123.88082 
L 207.927671 123.47284 
L 207.723472 118.049043 
L 207.58734 115.972547 
L 207.519274 116.759829 
L 207.383142 119.225132 
L 207.315076 117.51037 
L 207.24701 118.886112 
L 207.178944 117.831878 
L 206.90668 123.686398 
L 206.770547 117.371183 
L 206.566349 124.467619 
L 206.498283 123.378027 
L 206.430217 123.484587 
L 206.362151 123.066778 
L 206.294085 119.776237 
L 206.226019 120.273329 
L 206.157953 120.410349 
L 206.089887 119.8266 
L 205.749557 123.649103 
L 205.613424 121.057499 
L 205.409226 123.385181 
L 205.34116 124.400508 
L 205.136962 120.455021 
L 205.00083 123.614175 
L 204.796632 120.406712 
L 204.728566 121.248901 
L 204.6605 120.824206 
L 204.456301 118.544616 
L 204.388235 118.954009 
L 204.320169 118.789289 
L 204.115971 123.21634 
L 203.979839 122.699137 
L 203.707575 115.333029 
L 203.571443 118.796848 
L 203.503376 117.680919 
L 203.43531 117.761123 
L 203.367244 117.966397 
L 203.231112 122.494531 
L 203.026914 120.832387 
L 202.958848 120.183882 
L 202.75465 124.162781 
L 202.618518 124.568221 
L 202.482386 123.179514 
L 202.414319 123.995385 
L 202.346253 122.805504 
L 202.278187 124.740762 
L 202.142055 121.499707 
L 201.937857 125.548997 
L 201.801725 122.277078 
L 201.733659 123.327674 
L 201.529461 119.318881 
L 201.461395 118.63783 
L 201.393329 120.519688 
L 201.325263 119.397965 
L 201.257196 117.274079 
L 201.18913 118.135576 
L 201.121064 119.064594 
L 201.052998 121.526975 
L 200.984932 120.857261 
L 200.780734 117.613545 
L 200.712668 117.767497 
L 200.644602 116.991122 
L 200.50847 124.032496 
L 200.440404 122.585501 
L 200.304272 118.375862 
L 200.032007 122.713378 
L 199.963941 125.708899 
L 199.895875 123.862245 
L 199.759743 121.436815 
L 199.691677 122.44358 
L 199.623611 121.677234 
L 199.487479 116.936439 
L 199.351347 120.982129 
L 199.215215 125.270345 
L 198.94295 120.987816 
L 198.738752 126.724461 
L 198.60262 122.058689 
L 198.534554 124.287855 
L 198.466488 123.608046 
L 198.398422 123.128009 
L 198.330356 124.032372 
L 198.194224 119.02831 
L 198.126158 120.619625 
L 197.921959 117.011124 
L 197.853893 117.582427 
L 197.717761 121.872658 
L 197.581629 120.817981 
L 197.513563 121.939911 
L 197.445497 121.908183 
L 197.241299 118.65818 
L 197.173233 119.073183 
L 197.105167 120.894217 
L 196.969035 117.028271 
L 196.900968 118.021874 
L 196.69677 125.468317 
L 196.492572 119.35827 
L 196.152242 123.391175 
L 196.084176 126.731294 
L 196.01611 124.74209 
L 195.811911 120.598199 
L 195.675779 125.637357 
L 195.471581 119.54019 
L 195.335449 123.407078 
L 195.131251 121.009576 
L 195.063185 120.570893 
L 194.995119 123.53419 
L 194.927053 123.008857 
L 194.790921 119.968141 
L 194.722854 120.335651 
L 194.518656 123.941443 
L 194.314458 121.782542 
L 194.178326 124.152145 
L 194.11026 122.00511 
L 194.042194 122.85764 
L 193.974128 125.118457 
L 193.837996 122.330662 
L 193.76993 124.156239 
L 193.701864 123.671818 
L 193.633797 121.325018 
L 193.565731 121.563488 
L 193.497665 122.280433 
L 193.429599 121.521684 
L 193.361533 123.841381 
L 193.293467 122.927556 
L 193.225401 122.734279 
L 193.157335 126.238065 
L 193.089269 126.051288 
L 193.021203 124.190707 
L 192.953137 125.114386 
L 192.885071 124.929753 
L 192.680873 118.93743 
L 192.612807 118.119822 
L 192.408608 121.206534 
L 192.272476 118.764437 
L 192.136344 125.365964 
L 192.068278 122.232034 
L 192.000212 122.332027 
L 191.932146 123.259042 
L 191.86408 122.74568 
L 191.796014 122.337292 
L 191.591816 117.952406 
L 191.455683 119.840971 
L 191.387617 119.963349 
L 191.319551 120.700626 
L 191.251485 120.077431 
L 191.115353 125.061292 
L 191.047287 123.536852 
L 190.979221 121.589133 
L 190.843089 125.061478 
L 190.775023 124.421168 
L 190.570825 116.889819 
L 190.502759 117.001617 
L 190.29856 123.87075 
L 190.230494 121.871409 
L 190.162428 121.093384 
L 190.094362 121.612574 
L 189.822098 118.269454 
L 189.6179 121.825989 
L 189.549834 121.30111 
L 189.481768 120.945622 
L 189.413702 119.199776 
L 189.345636 120.051263 
L 189.141437 121.736279 
L 189.073371 122.777508 
L 188.937239 118.12137 
L 188.869173 121.913611 
L 188.801107 121.846653 
L 188.733041 119.493199 
L 188.596909 124.607658 
L 188.528843 123.491784 
L 188.324645 121.490444 
L 188.256579 122.294396 
L 188.188512 125.270458 
L 188.120446 125.024127 
L 187.916248 120.641565 
L 187.848182 120.951954 
L 187.71205 125.969059 
L 187.643984 124.100304 
L 187.575918 121.700229 
L 187.507852 122.741259 
L 187.37172 123.480011 
L 187.235588 117.666807 
L 187.167522 118.215457 
L 186.895257 127.692336 
L 186.827191 127.32792 
L 186.554927 119.444169 
L 186.486861 120.582759 
L 186.418795 121.344589 
L 186.350729 120.955752 
L 186.214597 118.656101 
L 186.078465 123.789682 
L 186.010398 123.15165 
L 185.942332 123.366002 
L 185.738134 118.257267 
L 185.670068 119.691409 
L 185.602002 121.941494 
L 185.533936 121.461071 
L 185.46587 121.995811 
L 185.329738 125.639511 
L 185.193606 121.282095 
L 185.12554 117.378301 
L 185.057474 117.925316 
L 184.921342 119.939884 
L 184.717143 116.717303 
L 184.649077 117.272321 
L 184.512945 122.078069 
L 184.376813 121.374562 
L 184.240681 122.781109 
L 184.104549 121.745838 
L 184.036483 120.418519 
L 183.968417 120.737616 
L 183.832285 123.298087 
L 183.696152 119.14141 
L 183.628086 119.734659 
L 183.56002 119.452951 
L 183.423888 113.158227 
L 183.355822 114.386003 
L 183.21969 118.960763 
L 183.151624 118.248327 
L 183.083558 118.597887 
L 183.015492 119.800861 
L 182.947426 119.061205 
L 182.87936 118.598897 
L 182.811294 118.728356 
L 182.675161 115.988424 
L 182.470963 119.978221 
L 182.334831 121.794709 
L 182.130633 120.089626 
L 182.062567 120.133748 
L 181.994501 121.044573 
L 181.858369 119.184961 
L 181.518038 123.988574 
L 181.381906 120.870423 
L 181.177708 121.878048 
L 181.041576 119.518088 
L 180.97351 121.464941 
L 180.905444 121.088671 
L 180.837378 120.910945 
L 180.769312 121.233232 
L 180.701246 119.524208 
L 180.63318 120.573676 
L 180.497047 123.06721 
L 180.428981 121.326228 
L 180.360915 122.560892 
L 180.292849 122.130529 
L 180.224783 122.742832 
L 180.156717 122.260054 
L 180.088651 119.964585 
L 180.020585 121.219076 
L 179.952519 121.668755 
L 179.884453 121.011414 
L 179.816387 121.9297 
L 179.680255 119.441123 
L 179.544123 124.167792 
L 179.476057 122.947129 
L 179.271858 126.441269 
L 178.999594 119.476412 
L 178.931528 120.29956 
L 178.863462 120.655106 
L 178.795396 122.129055 
L 178.72733 122.052302 
L 178.250867 100.933751 
L 178.182801 98.761465 
L 177.910537 123.869413 
L 177.638273 119.896693 
L 177.434075 124.824872 
L 177.297943 122.240163 
L 177.16181 117.989301 
L 176.889546 124.049341 
L 176.685348 118.154105 
L 176.617282 118.246441 
L 176.549216 119.622972 
L 176.48115 118.72107 
L 176.276952 124.035203 
L 176.140819 122.848525 
L 176.072753 123.899941 
L 176.004687 123.626793 
L 175.800489 121.360336 
L 175.664357 120.20881 
L 175.596291 120.309647 
L 175.528225 121.817798 
L 175.255961 118.22424 
L 175.119829 122.643822 
L 175.051762 122.131407 
L 174.91563 126.885908 
L 174.779498 122.140248 
L 174.711432 122.983953 
L 174.5753 126.171685 
L 174.303036 118.787834 
L 174.23497 117.785539 
L 174.166904 119.163134 
L 174.098838 118.672954 
L 174.030772 118.040105 
L 173.962705 119.422526 
L 173.894639 118.057067 
L 173.826573 118.646933 
L 173.690441 123.722818 
L 173.622375 122.465501 
L 173.486243 118.003378 
L 173.418177 118.921929 
L 173.077847 124.938088 
L 173.009781 125.065526 
L 172.941715 124.355308 
L 172.737516 119.315242 
L 172.66945 119.935814 
L 172.533318 124.288152 
L 172.397186 120.334438 
L 172.32912 120.227889 
L 172.192988 117.481995 
L 171.98879 120.287041 
L 171.920724 120.099159 
L 171.716525 121.866452 
L 171.580393 121.808438 
L 171.444261 119.722494 
L 171.308129 124.000216 
L 171.240063 123.052708 
L 171.171997 123.166372 
L 171.103931 124.999964 
L 171.035865 124.173148 
L 170.967799 119.51123 
L 170.899733 119.615156 
L 170.831667 119.586235 
L 170.763601 118.826979 
L 170.695534 119.654382 
L 170.627468 118.628334 
L 170.287138 125.71513 
L 170.08294 121.487822 
L 170.014874 121.571404 
L 169.878742 125.157256 
L 169.674544 120.761717 
L 169.606478 120.005111 
L 169.402279 125.674401 
L 169.334213 125.13029 
L 169.266147 125.642661 
L 169.198081 124.676047 
L 169.061949 119.056514 
L 168.993883 118.814061 
L 168.789685 121.738716 
L 168.721619 118.53216 
L 168.653553 119.652683 
L 168.449354 124.350482 
L 168.313222 120.047644 
L 168.245156 121.635935 
L 168.17709 123.823281 
L 168.040958 121.407252 
L 167.904826 123.758065 
L 167.632562 119.959864 
L 167.564496 121.404126 
L 167.49643 121.206921 
L 167.360297 121.42658 
L 167.292231 120.891199 
L 167.156099 123.77411 
L 166.951901 122.474115 
L 166.747703 119.447617 
L 166.611571 117.943736 
L 166.543505 118.710528 
L 166.475439 118.161441 
L 166.339307 120.343766 
L 166.27124 123.877157 
L 166.203174 123.84204 
L 166.067042 119.914388 
L 165.998976 119.887025 
L 165.93091 118.236451 
L 165.862844 118.553656 
L 165.658646 124.269137 
L 165.59058 122.759241 
L 165.522514 122.851108 
L 165.454448 122.136037 
L 165.25025 124.25283 
L 165.114117 121.171599 
L 164.977985 115.59428 
L 164.841853 121.030045 
L 164.773787 120.309468 
L 164.705721 119.551114 
L 164.569589 120.466302 
L 164.501523 123.162535 
L 164.433457 122.513557 
L 164.365391 120.232762 
L 164.297325 121.027616 
L 164.229259 122.524564 
L 164.161193 121.711029 
L 164.093126 121.593086 
L 163.888928 117.484497 
L 163.752796 121.83451 
L 163.480532 117.467772 
L 163.276334 120.723923 
L 163.208268 122.474173 
L 163.140202 121.799403 
L 163.072136 121.805109 
L 163.004069 122.890431 
L 162.867937 120.329956 
L 162.799871 120.163365 
L 162.731805 120.921728 
L 162.663739 120.444423 
L 162.527607 121.624745 
L 162.459541 121.045193 
L 162.391475 123.925999 
L 162.323409 123.611638 
L 162.255343 122.491698 
L 162.187277 122.660384 
L 162.119211 122.326137 
L 161.983079 124.613331 
L 161.915012 124.453475 
L 161.846946 124.888258 
L 161.77888 122.759297 
L 161.710814 122.921612 
L 161.642748 125.151379 
L 161.574682 124.013957 
L 161.506616 123.854884 
L 161.370484 124.990295 
L 161.302418 122.657787 
L 161.234352 122.949501 
L 161.166286 125.377286 
L 161.09822 122.530938 
L 161.030154 122.883335 
L 160.894022 126.006357 
L 160.825955 125.132389 
L 160.757889 123.454036 
L 160.689823 123.571187 
L 160.621757 123.564039 
L 160.485625 121.200256 
L 160.349493 124.229012 
L 160.281427 123.957801 
L 160.213361 122.538566 
L 160.145295 124.376145 
L 160.077229 124.044659 
L 159.873031 119.34109 
L 159.804965 121.361648 
L 159.736898 120.467081 
L 159.668832 121.248306 
L 159.464634 118.193511 
L 159.396568 119.514622 
L 159.328502 118.963242 
L 159.260436 117.050483 
L 159.19237 117.505441 
L 158.920106 123.13807 
L 158.85204 122.689277 
L 158.647841 124.5969 
L 158.579775 124.488012 
L 158.511709 123.933277 
L 158.443643 125.277988 
L 158.375577 124.443379 
L 158.307511 121.844483 
L 158.239445 122.645313 
L 158.171379 125.117841 
L 157.899115 118.348057 
L 157.831049 121.270522 
L 157.762983 120.232027 
L 157.694917 120.349391 
L 157.626851 120.760034 
L 157.558784 122.307093 
L 157.422652 118.246746 
L 157.218454 121.892985 
L 157.150388 122.062898 
L 157.082322 123.198128 
L 157.014256 126.222631 
L 156.741992 120.239698 
L 156.673926 119.071709 
L 156.60586 119.207696 
L 156.537794 119.060336 
L 156.469727 119.271748 
L 156.401661 120.136319 
L 156.265529 119.013734 
L 156.129397 121.857617 
L 156.061331 120.868943 
L 155.993265 120.921505 
L 155.925199 121.879692 
L 155.857133 120.560871 
L 155.721001 122.944457 
L 155.584869 119.085769 
L 155.448737 120.297768 
L 155.38067 119.125994 
L 155.176472 121.345897 
L 154.972274 116.955477 
L 154.904208 119.00508 
L 154.836142 118.237173 
L 154.768076 118.103979 
L 154.631944 124.737792 
L 154.427746 119.333725 
L 154.35968 119.515699 
L 154.223547 121.053441 
L 154.155481 119.962091 
L 154.019349 122.4285 
L 153.951283 120.711687 
L 153.883217 121.069901 
L 153.815151 124.090453 
L 153.747085 121.934003 
L 153.679019 122.451833 
L 153.610953 123.2182 
L 153.542887 123.007399 
L 153.406755 120.393089 
L 153.338689 120.437759 
L 153.270623 122.372031 
L 153.13449 118.751247 
L 152.998358 121.351315 
L 152.930292 121.105592 
L 152.726094 116.125243 
L 152.589962 122.23546 
L 152.521896 122.087456 
L 152.385764 117.693992 
L 152.249632 123.054495 
L 152.181566 122.695695 
L 151.977367 120.482143 
L 151.909301 120.916616 
L 151.841235 123.075252 
L 151.705103 119.594614 
L 151.637037 119.970283 
L 151.500905 123.938431 
L 151.160575 117.853103 
L 150.88831 123.335765 
L 150.820244 123.473401 
L 150.752178 123.302722 
L 150.684112 124.413603 
L 150.479914 120.023024 
L 150.343782 124.907624 
L 150.139584 120.179786 
L 150.003452 122.979112 
L 149.935386 120.518148 
L 149.867319 121.165028 
L 149.799253 121.745602 
L 149.663121 124.513107 
L 149.595055 122.16947 
L 149.526989 123.375617 
L 149.390857 118.751264 
L 149.322791 119.74677 
L 149.254725 120.534127 
L 149.118593 115.185533 
L 149.050527 116.186823 
L 148.778262 121.730106 
L 148.64213 117.988787 
L 148.574064 118.325088 
L 148.505998 118.097035 
L 148.369866 123.288263 
L 148.3018 122.727213 
L 148.233734 122.657332 
L 148.165668 121.843058 
L 148.097602 122.197793 
L 148.029536 123.761387 
L 147.96147 123.102676 
L 147.893404 123.873559 
L 147.825338 123.292485 
L 147.757272 120.489668 
L 147.689205 120.765819 
L 147.621139 120.520099 
L 147.485007 118.407443 
L 147.212743 123.309722 
L 147.144677 121.384747 
L 147.008545 124.917251 
L 146.872413 119.995595 
L 146.804347 120.310084 
L 146.600148 122.459764 
L 146.532082 122.103897 
L 146.39595 124.3755 
L 146.259818 120.711119 
L 146.191752 121.673999 
L 146.05562 124.979431 
L 145.919488 121.687138 
L 145.851422 123.197324 
L 145.783356 122.879879 
L 145.71529 121.811057 
L 145.647224 122.080893 
L 145.579158 123.480246 
L 145.511091 122.828001 
L 145.443025 123.073492 
L 145.238827 122.220866 
L 145.102695 118.136799 
L 145.034629 118.226923 
L 144.898497 119.808927 
L 144.830431 119.541883 
L 144.694299 121.890581 
L 144.490101 118.399277 
L 144.422034 119.280259 
L 144.14977 124.955816 
L 144.081704 124.464006 
L 144.013638 124.862145 
L 143.945572 124.542568 
L 143.605242 118.580944 
L 143.537176 118.826582 
L 143.46911 118.482377 
L 143.332977 123.482162 
L 143.196845 120.683632 
L 143.060713 123.992711 
L 142.924581 118.196349 
L 142.856515 119.159059 
L 142.720383 120.535883 
L 142.652317 119.953319 
L 142.448119 120.938859 
L 142.311987 124.852391 
L 142.24392 124.58642 
L 142.175854 126.025775 
L 141.835524 117.733308 
L 141.56326 126.768118 
L 141.495194 126.912182 
L 141.359062 121.487474 
L 141.290996 122.61208 
L 141.154863 124.438975 
L 141.086797 121.778364 
L 140.882599 127.560453 
L 140.610335 121.426485 
L 140.542269 121.810552 
L 140.474203 121.086008 
L 140.338071 126.510754 
L 140.270005 126.055529 
L 140.133873 121.22139 
L 140.065806 122.64229 
L 139.99774 122.586697 
L 139.929674 122.981727 
L 139.793542 125.971338 
L 139.589344 120.084248 
L 139.521278 121.530065 
L 139.385146 120.777604 
L 139.31708 118.450358 
L 139.112882 126.61886 
L 138.976749 122.814508 
L 138.908683 124.780792 
L 138.840617 124.263085 
L 138.704485 118.665462 
L 138.568353 123.282112 
L 138.500287 123.113699 
L 138.296089 120.668161 
L 138.228023 122.357705 
L 138.159957 121.289904 
L 138.091891 119.850669 
L 137.955759 122.737618 
L 137.819626 121.527864 
L 137.547362 127.104244 
L 137.207032 119.110119 
L 136.934768 122.935475 
L 136.866702 121.090251 
L 136.798636 122.485564 
L 136.662503 121.058225 
L 136.526371 122.441541 
L 136.458305 124.30185 
L 136.390239 123.502087 
L 136.322173 121.05005 
L 136.186041 123.501684 
L 136.117975 122.368511 
L 136.049909 124.302974 
L 135.981843 123.424949 
L 135.777645 115.478196 
L 135.709579 118.019585 
L 135.641512 117.997267 
L 135.573446 117.598225 
L 135.301182 121.735052 
L 135.233116 120.802165 
L 135.16505 118.303856 
L 134.960852 121.849053 
L 134.82472 117.579655 
L 134.756654 118.203337 
L 134.688588 118.738668 
L 134.552455 121.391755 
L 134.484389 120.592439 
L 134.416323 118.12342 
L 134.348257 119.572516 
L 134.280191 119.914121 
L 134.212125 120.980034 
L 134.144059 120.74423 
L 134.075993 120.378549 
L 134.007927 121.202565 
L 133.803729 126.714158 
L 133.667597 127.167499 
L 133.599531 126.75411 
L 133.463398 123.550862 
L 133.395332 123.54397 
L 133.327266 122.186627 
L 133.2592 123.619199 
L 132.986936 119.529876 
L 132.714672 123.101304 
L 132.646606 122.310993 
L 132.510474 120.82435 
L 132.374341 122.48128 
L 132.306275 122.212181 
L 132.170143 126.173763 
L 131.965945 122.30204 
L 131.897879 124.051445 
L 131.829813 122.002732 
L 131.761747 122.249978 
L 131.693681 124.147217 
L 131.625615 123.051807 
L 131.557549 120.367406 
L 131.489483 121.048616 
L 131.421417 122.235882 
L 131.285284 119.20882 
L 131.217218 119.030608 
L 131.081086 121.24859 
L 131.01302 121.329243 
L 130.808822 124.05505 
L 130.604624 118.971699 
L 130.400426 124.886946 
L 130.33236 124.215952 
L 130.128161 121.029148 
L 130.060095 119.64669 
L 129.992029 119.959839 
L 129.923963 120.867508 
L 129.855897 123.728427 
L 129.787831 122.499741 
L 129.651699 119.375515 
L 129.583633 120.624651 
L 129.515567 125.174161 
L 129.447501 124.244327 
L 129.039104 117.407197 
L 128.971038 117.312311 
L 128.698774 121.318134 
L 128.562642 117.245709 
L 128.42651 122.357949 
L 128.358444 121.952668 
L 128.222312 124.610841 
L 128.154246 124.380232 
L 128.08618 123.132734 
L 128.018113 124.466752 
L 127.950047 123.675984 
L 127.677783 115.654502 
L 127.541651 122.662791 
L 127.473585 122.545611 
L 127.269387 120.691938 
L 127.133255 116.039009 
L 127.065189 116.749394 
L 126.929056 120.068489 
L 126.86099 119.509068 
L 126.588726 123.18895 
L 126.52066 123.513345 
L 126.452594 124.451102 
L 126.248396 116.131688 
L 125.976132 117.323506 
L 125.771933 125.866478 
L 125.703867 125.564891 
L 125.431603 118.199129 
L 125.159339 124.431806 
L 125.023207 121.165131 
L 124.955141 121.980014 
L 124.887075 119.542361 
L 124.819009 120.131074 
L 124.750942 119.805132 
L 124.682876 120.439094 
L 124.478678 123.280206 
L 124.27448 122.573266 
L 124.206414 123.299141 
L 124.070282 122.192267 
L 124.002216 124.231274 
L 123.93415 123.894019 
L 123.798018 123.393923 
L 123.525753 119.830846 
L 123.389621 122.967616 
L 123.321555 122.711326 
L 123.253489 121.189338 
L 123.185423 121.881927 
L 123.117357 124.834492 
L 122.981225 117.649997 
L 122.913159 118.465699 
L 122.777027 122.743366 
L 122.708961 122.222199 
L 122.572828 119.041129 
L 122.504762 121.679346 
L 122.436696 120.917201 
L 122.300564 121.862051 
L 122.232498 120.723135 
L 122.096366 124.919637 
L 121.892168 123.016541 
L 121.824102 123.479147 
L 121.68797 115.731088 
L 121.551838 103.314032 
L 121.415705 23.555127 
L 121.347639 52.320999 
L 121.211507 108.380204 
L 121.007309 121.071489 
L 120.803111 116.063726 
L 120.666979 125.235054 
L 120.598913 124.553845 
L 120.530847 119.75912 
L 120.462781 119.773136 
L 120.394715 119.096977 
L 120.326648 121.082655 
L 120.258582 119.886855 
L 120.190516 119.278762 
L 120.12245 119.707122 
L 119.986318 121.661661 
L 119.850186 119.090154 
L 119.78212 119.004602 
L 119.714054 119.887858 
L 119.645988 122.85291 
L 119.577922 122.634494 
L 119.44179 120.597392 
L 119.373724 121.52307 
L 119.237591 117.684797 
L 119.169525 117.733311 
L 118.965327 123.014631 
L 118.761129 117.282556 
L 118.624997 121.837898 
L 118.488865 116.782819 
L 118.284667 120.745046 
L 118.216601 120.725697 
L 118.012402 118.790449 
L 117.87627 121.899769 
L 117.740138 119.5167 
L 117.604006 121.460024 
L 117.399808 119.805988 
L 117.331742 118.034776 
L 117.263676 118.784146 
L 117.19561 119.743536 
L 116.991411 117.292203 
L 116.787213 120.748922 
L 116.651081 124.66931 
L 116.514949 120.810523 
L 116.446883 121.020303 
L 116.378817 119.463287 
L 116.310751 119.658604 
L 116.242685 119.926231 
L 116.106553 117.440373 
L 116.038487 117.377109 
L 115.902354 122.654255 
L 115.834288 120.520162 
L 115.698156 121.340009 
L 115.63009 119.478614 
L 115.562024 119.952073 
L 115.425892 123.750622 
L 115.017496 116.727396 
L 114.813297 121.889885 
L 114.677165 116.581943 
L 114.609099 117.916044 
L 114.336835 125.343267 
L 114.268769 122.253322 
L 114.132637 126.129971 
L 114.064571 123.314056 
L 113.996505 123.642713 
L 113.928439 123.361726 
L 113.860373 121.186138 
L 113.72424 124.216013 
L 113.588108 123.642166 
L 113.451976 120.998417 
L 113.38391 121.21892 
L 113.315844 124.103924 
L 113.247778 123.642124 
L 113.04358 121.180011 
L 112.975514 121.934195 
L 112.635183 115.289079 
L 112.567117 116.145389 
L 112.226787 121.074765 
L 112.090655 119.524342 
L 111.954523 126.201029 
L 111.614192 119.178795 
L 111.546126 118.192742 
L 111.47806 118.961659 
L 111.409994 118.237114 
L 111.205796 121.742531 
L 111.001598 118.000291 
L 110.7974 121.46479 
L 110.729334 120.049634 
L 110.661268 120.8478 
L 110.525135 119.767167 
L 110.320937 124.788403 
L 110.252871 125.145605 
L 109.980607 120.643183 
L 109.912541 120.312194 
L 109.844475 120.440384 
L 109.708343 117.856182 
L 109.504145 123.558455 
L 109.436078 122.462748 
L 109.299946 123.779965 
L 109.23188 123.215989 
L 109.095748 118.798737 
L 108.959616 123.038681 
L 108.89155 122.718476 
L 108.823484 121.542092 
L 108.755418 122.001181 
L 108.619286 123.417022 
L 108.483154 122.819316 
L 108.415088 122.949165 
L 108.210889 119.95673 
L 108.142823 120.681212 
L 107.870559 118.249298 
L 107.666361 122.328893 
L 107.598295 123.602394 
L 107.530229 122.846916 
L 107.257964 118.294402 
L 107.053766 123.840886 
L 106.917634 121.170694 
L 106.781502 119.491128 
L 106.577304 124.004336 
L 106.509238 125.058574 
L 106.373106 122.04219 
L 106.236974 123.548856 
L 106.168907 122.012991 
L 106.100841 122.454604 
L 106.032775 124.041049 
L 105.896643 120.084921 
L 105.828577 121.72909 
L 105.760511 121.456 
L 105.692445 122.058198 
L 105.624379 121.778688 
L 105.488247 118.561118 
L 105.352115 121.968713 
L 105.147917 119.714774 
L 105.079851 118.709875 
L 105.011784 119.193365 
L 104.943718 119.929527 
L 104.875652 119.741911 
L 104.807586 119.553734 
L 104.73952 117.364842 
L 104.671454 118.253684 
L 104.603388 119.363011 
L 104.467256 118.346139 
L 104.331124 120.896196 
L 104.194992 118.21876 
L 104.126926 119.861675 
L 104.05886 118.988226 
L 103.990794 119.149368 
L 103.718529 126.009909 
L 103.582397 121.565438 
L 103.378199 115.617393 
L 103.242067 122.854217 
L 103.174001 122.699823 
L 103.037869 121.208765 
L 102.969803 119.886583 
L 102.765604 124.686579 
L 102.697538 124.259577 
L 102.629472 123.672813 
L 102.561406 126.025361 
L 102.49334 125.677997 
L 102.357208 122.557315 
L 102.289142 123.521208 
L 102.221076 122.871082 
L 102.15301 120.539642 
L 102.084944 121.405978 
L 102.016878 120.983478 
L 101.948812 121.564538 
L 101.81268 125.857413 
L 101.744613 124.066052 
L 101.676547 122.70642 
L 101.608481 124.669486 
L 101.336217 117.938025 
L 101.268151 118.305519 
L 101.063953 124.757557 
L 100.995887 122.504052 
L 100.791689 118.390972 
L 100.58749 123.40789 
L 100.519424 124.402137 
L 100.451358 122.990512 
L 100.383292 123.359953 
L 100.24716 122.402203 
L 100.179094 123.094116 
L 100.042962 119.091105 
L 99.974896 120.235542 
L 99.838764 124.154356 
L 99.634566 121.252882 
L 99.566499 119.42468 
L 99.498433 119.976825 
L 99.362301 121.170345 
L 99.226169 123.879892 
L 99.090037 121.768469 
L 98.953905 125.756225 
L 98.817773 121.614178 
L 98.681641 124.323205 
L 98.613575 123.883055 
L 98.477442 118.885853 
L 98.409376 120.15015 
L 98.34131 122.419911 
L 98.273244 120.350531 
L 98.205178 120.644196 
L 98.137112 121.151202 
L 98.069046 121.139735 
L 97.796782 116.158376 
L 97.728716 117.191311 
L 97.592584 121.854346 
L 97.524518 121.095723 
L 97.320319 126.996761 
L 97.048055 118.629733 
L 96.979989 119.06326 
L 96.843857 119.83972 
L 96.775791 123.084468 
L 96.707725 122.745142 
L 96.571593 119.130905 
L 96.503527 120.628505 
L 96.163196 124.428022 
L 96.027064 120.022773 
L 95.958998 121.439568 
L 95.890932 121.366362 
L 95.822866 120.587957 
L 95.618668 126.101811 
L 95.41447 123.101543 
L 95.278338 124.395695 
L 95.142205 121.192718 
L 94.938007 117.064261 
L 94.869941 118.248632 
L 94.801875 117.674867 
L 94.597677 116.417626 
L 94.461545 120.057414 
L 94.393479 119.142617 
L 94.189281 115.913061 
L 94.121214 115.721728 
L 94.053148 117.091071 
L 93.917016 123.662023 
L 93.84895 123.079197 
L 93.780884 122.965183 
L 93.712818 122.513463 
L 93.644752 124.635981 
L 93.576686 123.509648 
L 93.50862 123.246456 
L 93.440554 123.965752 
L 93.372488 123.462814 
L 93.236356 125.327263 
L 93.16829 124.409974 
L 92.964091 117.644734 
L 92.896025 118.804975 
L 92.827959 117.728527 
L 92.759893 118.198762 
L 92.487629 126.068646 
L 92.215365 120.684805 
L 92.147299 119.104416 
L 92.079233 119.449175 
L 91.9431 125.281863 
L 91.875034 125.176965 
L 91.806968 125.696915 
L 91.670836 120.788816 
L 91.60277 122.846937 
L 91.534704 121.665086 
L 91.466638 119.699837 
L 91.398572 119.994897 
L 91.126308 126.909954 
L 91.058242 126.700101 
L 90.649845 115.538582 
L 90.581779 115.924462 
L 90.513713 120.773289 
L 90.445647 119.020717 
L 90.377581 118.366616 
L 90.309515 120.057729 
L 90.241449 119.694638 
L 90.037251 117.158618 
L 89.764987 122.980565 
L 89.560788 118.520534 
L 89.492722 120.801823 
L 89.288524 116.620448 
L 89.01626 119.07153 
L 88.948194 118.873642 
L 88.812062 117.788344 
L 88.607863 122.785585 
L 88.471731 126.184944 
L 88.063335 116.721784 
L 87.791071 122.900246 
L 87.654939 122.434565 
L 87.586873 123.601864 
L 87.518806 122.365937 
L 87.45074 118.925463 
L 87.382674 119.372318 
L 87.314608 123.655405 
L 87.246542 123.57602 
L 87.178476 120.742442 
L 87.11041 121.474028 
L 86.974278 122.583523 
L 86.838146 119.621667 
L 86.702014 122.627955 
L 86.633948 122.874573 
L 86.565882 121.950556 
L 86.497816 123.988275 
L 86.429749 123.670943 
L 86.361683 122.070267 
L 86.293617 122.243086 
L 86.225551 123.60872 
L 86.021353 118.370426 
L 85.953287 119.892192 
L 85.885221 122.227521 
L 85.749089 118.476692 
L 85.681023 119.111961 
L 85.544891 121.776402 
L 85.476825 121.195989 
L 85.408759 121.889206 
L 85.340692 121.537673 
L 85.272626 121.753135 
L 85.136494 118.522588 
L 85.000362 121.950988 
L 84.932296 121.297261 
L 84.86423 121.46899 
L 84.796164 120.902 
L 84.728098 121.138019 
L 84.660032 122.817051 
L 84.591966 120.213942 
L 84.5239 122.069438 
L 84.455834 121.458781 
L 84.387768 119.939575 
L 84.319702 120.452497 
L 84.251635 119.59772 
L 84.183569 121.718343 
L 84.115503 120.552059 
L 84.047437 118.619098 
L 83.843239 120.474483 
L 83.775173 121.202126 
L 83.707107 124.137035 
L 83.639041 123.664252 
L 83.570975 123.632572 
L 83.502909 122.68361 
L 83.434843 120.03441 
L 83.366777 120.954998 
L 83.298711 120.786052 
L 82.95838 115.209744 
L 82.822248 126.183027 
L 82.754182 125.199264 
L 82.61805 122.668306 
L 82.549984 123.812457 
L 82.345786 112.70423 
L 82.27772 115.111432 
L 82.073521 122.821576 
L 81.937389 120.211356 
L 81.665125 128.296655 
L 81.528993 121.077528 
L 81.460927 121.346146 
L 81.052531 124.667667 
L 80.916398 125.222939 
L 80.848332 124.106757 
L 80.780266 124.411123 
L 80.7122 124.972719 
L 80.644134 123.302891 
L 80.576068 124.877578 
L 80.508002 124.652144 
L 80.439936 122.569041 
L 80.37187 123.099654 
L 80.303804 122.71527 
L 80.235738 121.507681 
L 80.167672 122.244164 
L 79.963474 124.105139 
L 79.555077 116.503329 
L 79.282813 120.887543 
L 79.214747 118.540642 
L 79.078615 121.196755 
L 78.942483 119.05373 
L 78.80635 119.344963 
L 78.602152 121.552033 
L 78.534086 119.780404 
L 78.46602 120.158226 
L 78.329888 124.087583 
L 78.193756 120.566534 
L 77.989558 124.971479 
L 77.921492 124.668029 
L 77.649227 121.769405 
L 77.581161 122.86178 
L 77.513095 122.751121 
L 77.445029 123.176326 
L 77.308897 125.237151 
L 77.240831 124.408062 
L 77.172765 125.168157 
L 77.036633 123.021895 
L 76.968567 119.751456 
L 76.832435 124.979962 
L 76.764369 124.867109 
L 76.696303 122.496295 
L 76.628236 122.786198 
L 76.56017 123.228948 
L 76.492104 122.39266 
L 76.424038 123.32274 
L 76.287906 121.695903 
L 76.21984 121.644167 
L 76.151774 124.137029 
L 76.083708 123.654539 
L 75.947576 120.679457 
L 75.87951 120.799545 
L 75.743378 124.387148 
L 75.675312 123.879561 
L 75.539179 120.6397 
L 75.403047 120.173761 
L 75.334981 120.991224 
L 75.198849 124.811729 
L 75.062717 121.825665 
L 74.994651 122.149519 
L 74.858519 119.273763 
L 74.722387 122.010398 
L 74.586255 119.717906 
L 74.382056 122.731974 
L 74.31399 121.620141 
L 74.177858 123.773514 
L 74.109792 123.089288 
L 73.905594 119.298922 
L 73.837528 118.677192 
L 73.701396 122.16213 
L 73.63333 121.464478 
L 73.565264 120.987448 
L 73.361066 123.373599 
L 73.292999 122.310388 
L 73.088801 115.533518 
L 73.020735 116.179187 
L 72.952669 114.621227 
L 72.884603 114.655512 
L 72.680405 119.846116 
L 72.612339 118.779194 
L 72.544273 120.24516 
L 72.476207 118.883109 
L 72.203942 124.730917 
L 72.135876 124.024266 
L 71.999744 119.690691 
L 71.795546 122.63868 
L 71.72748 121.504135 
L 71.455216 117.511201 
L 71.38715 117.922417 
L 71.319084 120.426698 
L 71.251018 120.352687 
L 71.182952 117.90486 
L 71.114885 118.343578 
L 70.842621 122.060152 
L 70.774555 120.197584 
L 70.706489 120.632513 
L 70.638423 119.539908 
L 70.434225 123.327902 
L 70.366159 123.342803 
L 70.161961 119.1544 
L 70.025828 122.351072 
L 69.957762 124.561252 
L 69.889696 123.679899 
L 69.82163 122.539892 
L 69.753564 123.539087 
L 69.549366 120.474888 
L 69.4813 121.258682 
L 69.413234 123.609316 
L 69.345168 123.121954 
L 69.277102 121.253441 
L 69.209036 121.792221 
L 69.14097 122.790838 
L 69.004838 126.009158 
L 68.868705 120.444757 
L 68.800639 120.858858 
L 68.664507 125.05425 
L 68.460309 121.399963 
L 68.324177 116.211274 
L 68.256111 116.229829 
L 67.983847 125.338585 
L 67.915781 127.491715 
L 67.779648 122.639558 
L 67.643516 122.117225 
L 67.57545 122.28871 
L 67.507384 124.75014 
L 67.23512 117.720608 
L 67.167054 119.003961 
L 67.098988 118.362756 
L 66.826724 120.790033 
L 66.758657 122.739975 
L 66.690591 121.992614 
L 66.622525 122.080533 
L 66.554459 121.832558 
L 66.418327 119.099437 
L 66.350261 118.903203 
L 66.282195 119.370652 
L 66.077997 125.910689 
L 65.941865 123.158127 
L 65.873799 123.379648 
L 65.805733 124.264823 
L 65.6696 122.129843 
L 65.533468 118.313475 
L 65.465402 118.93329 
L 65.32927 122.297044 
L 65.261204 122.082719 
L 65.125072 117.920893 
L 64.852808 122.419067 
L 64.716676 118.169157 
L 64.64861 119.19044 
L 64.580543 119.118228 
L 64.512477 117.668089 
L 64.444411 118.321231 
L 64.172147 124.240255 
L 64.036015 119.553387 
L 63.967949 120.165496 
L 63.695685 116.291781 
L 63.559553 120.117743 
L 63.491486 117.276865 
L 63.42342 119.058665 
L 63.287288 122.923123 
L 63.219222 122.825958 
L 63.08309 119.119175 
L 62.946958 120.611456 
L 62.810826 118.726831 
L 62.674694 122.110149 
L 62.470496 117.880829 
L 62.402429 118.876268 
L 62.062099 127.752184 
L 61.857901 125.78532 
L 61.721769 126.719722 
L 61.449505 119.146845 
L 61.313372 120.972074 
L 61.245306 118.999408 
L 61.17724 119.04448 
L 61.109174 121.646125 
L 61.041108 121.570197 
L 60.973042 121.967937 
L 60.83691 124.413108 
L 60.768844 123.204913 
L 60.700778 124.482755 
L 60.564646 122.863201 
L 60.49658 123.867119 
L 60.428514 122.675535 
L 60.360448 122.751099 
L 60.156249 124.748893 
L 59.952051 120.689772 
L 59.815919 124.379954 
L 59.747853 124.160781 
L 59.679787 124.335763 
L 59.543655 121.783997 
L 59.475589 121.88647 
L 59.407523 123.139069 
L 59.203325 118.205188 
L 59.067192 119.264644 
L 58.999126 118.712436 
L 58.93106 119.492428 
L 58.794928 123.138265 
L 58.726862 122.952412 
L 58.658796 122.189204 
L 58.59073 119.833524 
L 58.522664 120.999157 
L 58.114268 126.600524 
L 57.842003 118.029211 
L 57.773937 118.785335 
L 57.637805 123.730332 
L 57.569739 121.913588 
L 57.433607 118.526785 
L 57.365541 118.713481 
L 57.229409 120.729901 
L 57.161343 117.615857 
L 57.025211 125.036312 
L 56.957145 123.600557 
L 56.821012 123.870774 
L 56.68488 125.170731 
L 56.548748 123.347872 
L 56.480682 123.687981 
L 56.34455 119.101753 
L 56.276484 115.47262 
L 56.208418 116.274446 
L 56.00422 122.646535 
L 55.936154 122.569363 
L 55.800021 123.798108 
L 55.731955 123.728385 
L 55.595823 124.206515 
L 55.459691 120.490862 
L 55.391625 120.915363 
L 55.255493 122.181808 
L 55.119361 119.407287 
L 54.983229 121.150231 
L 54.915163 120.543531 
L 54.847097 120.974772 
L 54.710964 118.500725 
L 54.642898 117.48203 
L 54.574832 117.919676 
L 54.234502 124.946575 
L 54.166436 123.778957 
L 54.09837 125.350279 
L 53.894172 119.770899 
L 53.75804 116.745759 
L 53.417709 124.446478 
L 53.349643 124.567326 
L 53.145445 121.103364 
L 53.009313 121.129115 
L 52.941247 121.896859 
L 52.805115 117.549532 
L 52.737049 118.224621 
L 52.668983 120.521648 
L 52.600917 119.945783 
L 52.53285 117.355831 
L 52.464784 118.458735 
L 52.396718 118.494618 
L 52.328652 116.61215 
L 51.988322 125.692548 
L 51.920256 124.69753 
L 51.784124 122.958284 
L 51.716058 119.809038 
L 51.647992 121.370792 
L 51.51186 117.866391 
L 51.375727 121.525693 
L 51.307661 125.760836 
L 51.239595 125.285131 
L 51.171529 125.264516 
L 51.035397 127.419053 
L 50.899265 122.709366 
L 50.763133 128.321673 
L 50.627001 122.658895 
L 50.558935 123.305915 
L 50.218604 117.087917 
L 50.150538 117.802799 
L 49.878274 124.753926 
L 49.674076 120.322026 
L 49.469878 116.18632 
L 49.401812 115.35997 
L 49.197613 121.51443 
L 49.129547 119.378246 
L 49.061481 119.429556 
L 48.789217 125.964334 
L 48.721151 125.965558 
L 48.516953 119.532571 
L 48.448887 120.721131 
L 48.380821 120.632725 
L 48.244689 115.461283 
L 48.04049 119.678672 
L 47.972424 119.339769 
L 47.904358 119.392634 
L 47.836292 119.406037 
L 47.768226 119.775576 
L 47.632094 122.525147 
L 47.564028 122.510002 
L 47.495962 121.801387 
L 47.35983 122.386934 
L 47.291764 124.908671 
L 47.223698 123.91598 
L 47.155632 121.263867 
L 47.087565 123.320471 
L 47.019499 122.623365 
L 46.883367 119.222152 
L 46.543037 125.638385 
L 46.406905 120.695273 
L 46.270773 123.095705 
L 46.202707 120.859793 
L 46.134641 122.111082 
L 46.066575 123.438497 
L 45.862376 116.761662 
L 45.726244 120.266329 
L 45.658178 118.781064 
L 45.590112 118.979271 
L 45.385914 122.504582 
L 45.249782 120.429106 
L 45.11365 121.836286 
L 45.045584 121.500335 
L 44.909451 118.948118 
L 44.773319 120.900684 
L 44.637187 120.406665 
L 44.569121 121.37038 
L 44.432989 117.008947 
L 44.364923 118.09856 
L 44.160725 123.14297 
L 44.092659 122.010697 
L 43.956527 123.547982 
L 43.888461 123.06581 
L 43.820394 125.691154 
L 43.54813 116.624722 
L 43.411998 115.24752 
L 43.275866 120.326204 
L 43.2078 120.198968 
L 43.071668 123.102369 
L 43.003602 122.433733 
L 42.86747 118.995284 
L 42.595205 122.949431 
L 42.527139 121.352436 
L 42.391007 124.677146 
L 42.118743 120.07524 
L 41.982611 122.991181 
L 41.846479 119.669922 
L 41.710347 124.845617 
L 41.642281 123.824591 
L 41.574214 123.244396 
L 41.438082 125.293156 
L 41.233884 121.11943 
L 41.165818 120.647946 
L 41.097752 119.206041 
L 41.029686 119.415219 
L 40.96162 119.140926 
L 40.825488 122.489236 
L 40.757422 120.985752 
L 40.62129 122.538647 
L 40.485157 120.394715 
L 40.280959 124.893453 
L 40.212893 125.001 
L 40.008695 117.337364 
L 39.940629 117.408347 
L 39.668365 122.685146 
L 39.600299 123.066895 
L 39.464167 122.026907 
L 39.3961 122.361198 
L 39.328034 122.578626 
L 39.259968 123.929026 
L 39.191902 123.654157 
L 39.05577 123.927498 
L 38.987704 124.48101 
L 38.783506 117.525851 
L 38.647374 123.470885 
L 38.307043 119.339784 
L 38.238977 119.316542 
L 38.102845 121.548482 
L 37.966713 119.426418 
L 37.830581 117.311139 
L 37.626383 124.887439 
L 37.558317 123.856486 
L 37.422185 121.847158 
L 37.354119 121.709273 
L 37.217986 123.368614 
L 37.013788 119.844767 
L 36.945722 118.184152 
L 36.741524 123.234133 
L 36.537326 120.979242 
L 36.401194 123.617038 
L 36.265062 121.543185 
L 36.196996 121.619847 
L 36.128929 121.265898 
L 35.992797 117.360379 
L 35.720533 124.479377 
L 35.380203 117.344086 
L 35.107939 123.952515 
L 35.039872 123.744283 
L 34.90374 124.224408 
L 34.835674 124.041048 
L 34.699542 119.358318 
L 34.495344 121.918094 
L 34.427278 122.095539 
L 34.291146 123.030463 
L 34.155014 121.54247 
L 34.086948 119.443752 
L 33.950815 122.691988 
L 33.814683 117.598054 
L 33.610485 119.862302 
L 33.542419 119.156727 
L 33.474353 116.215586 
L 33.406287 117.184192 
L 33.202089 119.459406 
L 33.134023 119.612757 
L 32.997891 119.301777 
L 32.929825 120.643443 
L 32.725626 118.726456 
L 32.521428 122.096332 
L 32.453362 122.734972 
L 32.249164 116.892811 
L 32.113032 121.275528 
L 32.044966 121.250937 
L 31.840768 123.237852 
L 31.772701 123.949667 
L 31.704635 120.750634 
L 31.636569 121.262691 
L 31.568503 125.266129 
L 31.500437 123.439991 
L 31.432371 120.735509 
L 31.364305 120.787173 
L 31.228173 119.732654 
L 31.092041 122.699513 
L 30.955909 119.73972 
L 30.887843 120.125961 
L 30.683644 124.435356 
L 30.615578 124.103403 
L 30.547512 120.609786 
L 30.479446 121.539189 
L 30.41138 121.990064 
L 30.343314 117.983823 
L 30.275248 120.39654 
L 30.207182 121.634515 
L 30.139116 120.221649 
L 30.07105 120.540443 
L 29.934918 124.961931 
L 29.866852 123.975559 
L 29.798786 124.126492 
L 29.73072 125.199408 
L 29.73072 125.199408 
" style="fill:none;stroke:#08306b;stroke-linecap:square;stroke-width:1.5;"/>
   </g>
   <g id="patch_3">
    <path d="M 29.763 133.56 
L 29.763 18.3168 
" style="fill:none;stroke:#000000;stroke-linecap:square;stroke-linejoin:miter;stroke-width:0.8;"/>
   </g>
   <g id="patch_4">
    <path d="M 29.763 133.56 
L 214.2936 133.56 
" style="fill:none;stroke:#000000;stroke-linecap:square;stroke-linejoin:miter;stroke-width:0.8;"/>
   </g>
  </g>
 </g>
 <defs>
  <clipPath id="pb99f8528c0">
   <rect height="115.2432" width="184.5306" x="29.763" y="18.3168"/>
  </clipPath>
 </defs>
</svg>
