<?xml version="1.0" encoding="utf-8" standalone="no"?>
<!DOCTYPE svg PUBLIC "-//W3C//DTD SVG 1.1//EN"
  "http://www.w3.org/Graphics/SVG/1.1/DTD/svg11.dtd">
<!-- Created with matplotlib (https://matplotlib.org/) -->
<svg height="152.64pt" version="1.1" viewBox="0 0 238.104 152.64" width="238.104pt" xmlns="http://www.w3.org/2000/svg" xmlns:xlink="http://www.w3.org/1999/xlink">
 <metadata>
  <rdf:RDF xmlns:cc="http://creativecommons.org/ns#" xmlns:dc="http://purl.org/dc/elements/1.1/" xmlns:rdf="http://www.w3.org/1999/02/22-rdf-syntax-ns#">
   <cc:Work>
    <dc:type rdf:resource="http://purl.org/dc/dcmitype/StillImage"/>
    <dc:date>2024-02-21T12:38:23.029434</dc:date>
    <dc:format>image/svg+xml</dc:format>
    <dc:creator>
     <cc:Agent>
      <dc:title>Matplotlib v3.3.4, https://matplotlib.org/</dc:title>
     </cc:Agent>
    </dc:creator>
   </cc:Work>
  </rdf:RDF>
 </metadata>
 <defs>
  <style type="text/css">*{stroke-linecap:butt;stroke-linejoin:round;}</style>
 </defs>
 <g id="figure_1">
  <g id="patch_1">
   <path d="M 0 152.64 
L 238.104 152.64 
L 238.104 0 
L 0 0 
z
" style="fill:none;"/>
  </g>
  <g id="axes_1">
   <g id="patch_2">
    <path d="M 29.763 133.56 
L 214.2936 133.56 
L 214.2936 18.3168 
L 29.763 18.3168 
z
" style="fill:none;"/>
   </g>
   <g id="matplotlib.axis_1">
    <g id="xtick_1">
     <g id="line2d_1">
      <defs>
       <path d="M 0 0 
L 0 3.5 
" id="mb66db88aa4" style="stroke:#000000;stroke-width:0.8;"/>
      </defs>
      <g>
       <use style="stroke:#000000;stroke-width:0.8;" x="214.2936" xlink:href="#mb66db88aa4" y="133.56"/>
      </g>
     </g>
     <g id="text_1">
      <!-- −130 -->
      <g transform="translate(203.031881 147.717813)scale(0.1 -0.1)">
       <defs>
        <path d="M 52.828125 31.203125 
L 5.5625 31.203125 
L 5.5625 39.40625 
L 52.828125 39.40625 
z
" id="ArialMT-8722"/>
        <path d="M 37.25 0 
L 28.46875 0 
L 28.46875 56 
Q 25.296875 52.984375 20.140625 49.953125 
Q 14.984375 46.921875 10.890625 45.40625 
L 10.890625 53.90625 
Q 18.265625 57.375 23.78125 62.296875 
Q 29.296875 67.234375 31.59375 71.875 
L 37.25 71.875 
z
" id="ArialMT-49"/>
        <path d="M 4.203125 18.890625 
L 12.984375 20.0625 
Q 14.5 12.59375 18.140625 9.296875 
Q 21.78125 6 27 6 
Q 33.203125 6 37.46875 10.296875 
Q 41.75 14.59375 41.75 20.953125 
Q 41.75 27 37.796875 30.921875 
Q 33.84375 34.859375 27.734375 34.859375 
Q 25.25 34.859375 21.53125 33.890625 
L 22.515625 41.609375 
Q 23.390625 41.5 23.921875 41.5 
Q 29.546875 41.5 34.03125 44.421875 
Q 38.53125 47.359375 38.53125 53.46875 
Q 38.53125 58.296875 35.25 61.46875 
Q 31.984375 64.65625 26.8125 64.65625 
Q 21.6875 64.65625 18.265625 61.421875 
Q 14.84375 58.203125 13.875 51.765625 
L 5.078125 53.328125 
Q 6.6875 62.15625 12.390625 67.015625 
Q 18.109375 71.875 26.609375 71.875 
Q 32.46875 71.875 37.390625 69.359375 
Q 42.328125 66.84375 44.9375 62.5 
Q 47.5625 58.15625 47.5625 53.265625 
Q 47.5625 48.640625 45.0625 44.828125 
Q 42.578125 41.015625 37.703125 38.765625 
Q 44.046875 37.3125 47.5625 32.6875 
Q 51.078125 28.078125 51.078125 21.140625 
Q 51.078125 11.765625 44.234375 5.25 
Q 37.40625 -1.265625 26.953125 -1.265625 
Q 17.53125 -1.265625 11.296875 4.34375 
Q 5.078125 9.96875 4.203125 18.890625 
z
" id="ArialMT-51"/>
        <path d="M 4.15625 35.296875 
Q 4.15625 48 6.765625 55.734375 
Q 9.375 63.484375 14.515625 67.671875 
Q 19.671875 71.875 27.484375 71.875 
Q 33.25 71.875 37.59375 69.546875 
Q 41.9375 67.234375 44.765625 62.859375 
Q 47.609375 58.5 49.21875 52.21875 
Q 50.828125 45.953125 50.828125 35.296875 
Q 50.828125 22.703125 48.234375 14.96875 
Q 45.65625 7.234375 40.5 3 
Q 35.359375 -1.21875 27.484375 -1.21875 
Q 17.140625 -1.21875 11.234375 6.203125 
Q 4.15625 15.140625 4.15625 35.296875 
z
M 13.1875 35.296875 
Q 13.1875 17.671875 17.3125 11.828125 
Q 21.4375 6 27.484375 6 
Q 33.546875 6 37.671875 11.859375 
Q 41.796875 17.71875 41.796875 35.296875 
Q 41.796875 52.984375 37.671875 58.78125 
Q 33.546875 64.59375 27.390625 64.59375 
Q 21.34375 64.59375 17.71875 59.46875 
Q 13.1875 52.9375 13.1875 35.296875 
z
" id="ArialMT-48"/>
       </defs>
       <use xlink:href="#ArialMT-8722"/>
       <use x="58.398438" xlink:href="#ArialMT-49"/>
       <use x="114.013672" xlink:href="#ArialMT-51"/>
       <use x="169.628906" xlink:href="#ArialMT-48"/>
      </g>
     </g>
    </g>
    <g id="xtick_2">
     <g id="line2d_2">
      <g>
       <use style="stroke:#000000;stroke-width:0.8;" x="168.16095" xlink:href="#mb66db88aa4" y="133.56"/>
      </g>
     </g>
     <g id="text_2">
      <!-- −125 -->
      <g transform="translate(156.899231 147.717813)scale(0.1 -0.1)">
       <defs>
        <path d="M 50.34375 8.453125 
L 50.34375 0 
L 3.03125 0 
Q 2.9375 3.171875 4.046875 6.109375 
Q 5.859375 10.9375 9.828125 15.625 
Q 13.8125 20.3125 21.34375 26.46875 
Q 33.015625 36.03125 37.109375 41.625 
Q 41.21875 47.21875 41.21875 52.203125 
Q 41.21875 57.421875 37.46875 61 
Q 33.734375 64.59375 27.734375 64.59375 
Q 21.390625 64.59375 17.578125 60.78125 
Q 13.765625 56.984375 13.71875 50.25 
L 4.6875 51.171875 
Q 5.609375 61.28125 11.65625 66.578125 
Q 17.71875 71.875 27.9375 71.875 
Q 38.234375 71.875 44.234375 66.15625 
Q 50.25 60.453125 50.25 52 
Q 50.25 47.703125 48.484375 43.546875 
Q 46.734375 39.40625 42.65625 34.8125 
Q 38.578125 30.21875 29.109375 22.21875 
Q 21.1875 15.578125 18.9375 13.203125 
Q 16.703125 10.84375 15.234375 8.453125 
z
" id="ArialMT-50"/>
        <path d="M 4.15625 18.75 
L 13.375 19.53125 
Q 14.40625 12.796875 18.140625 9.390625 
Q 21.875 6 27.15625 6 
Q 33.5 6 37.890625 10.78125 
Q 42.28125 15.578125 42.28125 23.484375 
Q 42.28125 31 38.0625 35.34375 
Q 33.84375 39.703125 27 39.703125 
Q 22.75 39.703125 19.328125 37.765625 
Q 15.921875 35.84375 13.96875 32.765625 
L 5.71875 33.84375 
L 12.640625 70.609375 
L 48.25 70.609375 
L 48.25 62.203125 
L 19.671875 62.203125 
L 15.828125 42.96875 
Q 22.265625 47.46875 29.34375 47.46875 
Q 38.71875 47.46875 45.15625 40.96875 
Q 51.609375 34.46875 51.609375 24.265625 
Q 51.609375 14.546875 45.953125 7.46875 
Q 39.0625 -1.21875 27.15625 -1.21875 
Q 17.390625 -1.21875 11.203125 4.25 
Q 5.03125 9.71875 4.15625 18.75 
z
" id="ArialMT-53"/>
       </defs>
       <use xlink:href="#ArialMT-8722"/>
       <use x="58.398438" xlink:href="#ArialMT-49"/>
       <use x="114.013672" xlink:href="#ArialMT-50"/>
       <use x="169.628906" xlink:href="#ArialMT-53"/>
      </g>
     </g>
    </g>
    <g id="xtick_3">
     <g id="line2d_3">
      <g>
       <use style="stroke:#000000;stroke-width:0.8;" x="122.0283" xlink:href="#mb66db88aa4" y="133.56"/>
      </g>
     </g>
     <g id="text_3">
      <!-- −120 -->
      <g transform="translate(110.766581 147.717813)scale(0.1 -0.1)">
       <use xlink:href="#ArialMT-8722"/>
       <use x="58.398438" xlink:href="#ArialMT-49"/>
       <use x="114.013672" xlink:href="#ArialMT-50"/>
       <use x="169.628906" xlink:href="#ArialMT-48"/>
      </g>
     </g>
    </g>
    <g id="xtick_4">
     <g id="line2d_4">
      <g>
       <use style="stroke:#000000;stroke-width:0.8;" x="75.89565" xlink:href="#mb66db88aa4" y="133.56"/>
      </g>
     </g>
     <g id="text_4">
      <!-- −115 -->
      <g transform="translate(65.002681 147.717813)scale(0.1 -0.1)">
       <use xlink:href="#ArialMT-8722"/>
       <use x="58.398438" xlink:href="#ArialMT-49"/>
       <use x="106.638672" xlink:href="#ArialMT-49"/>
       <use x="162.253906" xlink:href="#ArialMT-53"/>
      </g>
     </g>
    </g>
    <g id="xtick_5">
     <g id="line2d_5">
      <g>
       <use style="stroke:#000000;stroke-width:0.8;" x="29.763" xlink:href="#mb66db88aa4" y="133.56"/>
      </g>
     </g>
     <g id="text_5">
      <!-- −110 -->
      <g transform="translate(18.870031 147.717813)scale(0.1 -0.1)">
       <use xlink:href="#ArialMT-8722"/>
       <use x="58.398438" xlink:href="#ArialMT-49"/>
       <use x="106.638672" xlink:href="#ArialMT-49"/>
       <use x="162.253906" xlink:href="#ArialMT-48"/>
      </g>
     </g>
    </g>
    <g id="text_6">
     <!-- $\mathrm{^{19}F}$ (ppm) -->
     <g transform="translate(100.0283 162.805313)scale(0.1 -0.1)">
      <defs>
       <path d="M 12.40625 8.296875 
L 28.515625 8.296875 
L 28.515625 63.921875 
L 10.984375 60.40625 
L 10.984375 69.390625 
L 28.421875 72.90625 
L 38.28125 72.90625 
L 38.28125 8.296875 
L 54.390625 8.296875 
L 54.390625 0 
L 12.40625 0 
z
" id="DejaVuSans-49"/>
       <path d="M 10.984375 1.515625 
L 10.984375 10.5 
Q 14.703125 8.734375 18.5 7.8125 
Q 22.3125 6.890625 25.984375 6.890625 
Q 35.75 6.890625 40.890625 13.453125 
Q 46.046875 20.015625 46.78125 33.40625 
Q 43.953125 29.203125 39.59375 26.953125 
Q 35.25 24.703125 29.984375 24.703125 
Q 19.046875 24.703125 12.671875 31.3125 
Q 6.296875 37.9375 6.296875 49.421875 
Q 6.296875 60.640625 12.9375 67.421875 
Q 19.578125 74.21875 30.609375 74.21875 
Q 43.265625 74.21875 49.921875 64.515625 
Q 56.59375 54.828125 56.59375 36.375 
Q 56.59375 19.140625 48.40625 8.859375 
Q 40.234375 -1.421875 26.421875 -1.421875 
Q 22.703125 -1.421875 18.890625 -0.6875 
Q 15.09375 0.046875 10.984375 1.515625 
z
M 30.609375 32.421875 
Q 37.25 32.421875 41.125 36.953125 
Q 45.015625 41.5 45.015625 49.421875 
Q 45.015625 57.28125 41.125 61.84375 
Q 37.25 66.40625 30.609375 66.40625 
Q 23.96875 66.40625 20.09375 61.84375 
Q 16.21875 57.28125 16.21875 49.421875 
Q 16.21875 41.5 20.09375 36.953125 
Q 23.96875 32.421875 30.609375 32.421875 
z
" id="DejaVuSans-57"/>
       <path d="M 9.8125 72.90625 
L 51.703125 72.90625 
L 51.703125 64.59375 
L 19.671875 64.59375 
L 19.671875 43.109375 
L 48.578125 43.109375 
L 48.578125 34.8125 
L 19.671875 34.8125 
L 19.671875 0 
L 9.8125 0 
z
" id="DejaVuSans-70"/>
       <path id="ArialMT-32"/>
       <path d="M 23.390625 -21.046875 
Q 16.109375 -11.859375 11.078125 0.4375 
Q 6.0625 12.75 6.0625 25.921875 
Q 6.0625 37.546875 9.8125 48.1875 
Q 14.203125 60.546875 23.390625 72.796875 
L 29.6875 72.796875 
Q 23.78125 62.640625 21.875 58.296875 
Q 18.890625 51.5625 17.1875 44.234375 
Q 15.09375 35.109375 15.09375 25.875 
Q 15.09375 2.390625 29.6875 -21.046875 
z
" id="ArialMT-40"/>
       <path d="M 6.59375 -19.875 
L 6.59375 51.859375 
L 14.59375 51.859375 
L 14.59375 45.125 
Q 17.4375 49.078125 21 51.046875 
Q 24.5625 53.03125 29.640625 53.03125 
Q 36.28125 53.03125 41.359375 49.609375 
Q 46.4375 46.1875 49.015625 39.953125 
Q 51.609375 33.734375 51.609375 26.3125 
Q 51.609375 18.359375 48.75 11.984375 
Q 45.90625 5.609375 40.453125 2.21875 
Q 35.015625 -1.171875 29 -1.171875 
Q 24.609375 -1.171875 21.109375 0.6875 
Q 17.625 2.546875 15.375 5.375 
L 15.375 -19.875 
z
M 14.546875 25.640625 
Q 14.546875 15.625 18.59375 10.84375 
Q 22.65625 6.0625 28.421875 6.0625 
Q 34.28125 6.0625 38.453125 11.015625 
Q 42.625 15.96875 42.625 26.375 
Q 42.625 36.28125 38.546875 41.203125 
Q 34.46875 46.140625 28.8125 46.140625 
Q 23.1875 46.140625 18.859375 40.890625 
Q 14.546875 35.640625 14.546875 25.640625 
z
" id="ArialMT-112"/>
       <path d="M 6.59375 0 
L 6.59375 51.859375 
L 14.453125 51.859375 
L 14.453125 44.578125 
Q 16.890625 48.390625 20.9375 50.703125 
Q 25 53.03125 30.171875 53.03125 
Q 35.9375 53.03125 39.625 50.640625 
Q 43.3125 48.25 44.828125 43.953125 
Q 50.984375 53.03125 60.84375 53.03125 
Q 68.5625 53.03125 72.703125 48.75 
Q 76.859375 44.484375 76.859375 35.59375 
L 76.859375 0 
L 68.109375 0 
L 68.109375 32.671875 
Q 68.109375 37.9375 67.25 40.25 
Q 66.40625 42.578125 64.15625 43.984375 
Q 61.921875 45.40625 58.890625 45.40625 
Q 53.421875 45.40625 49.796875 41.765625 
Q 46.1875 38.140625 46.1875 30.125 
L 46.1875 0 
L 37.40625 0 
L 37.40625 33.6875 
Q 37.40625 39.546875 35.25 42.46875 
Q 33.109375 45.40625 28.21875 45.40625 
Q 24.515625 45.40625 21.359375 43.453125 
Q 18.21875 41.5 16.796875 37.734375 
Q 15.375 33.984375 15.375 26.90625 
L 15.375 0 
z
" id="ArialMT-109"/>
       <path d="M 12.359375 -21.046875 
L 6.0625 -21.046875 
Q 20.65625 2.390625 20.65625 25.875 
Q 20.65625 35.0625 18.5625 44.09375 
Q 16.890625 51.421875 13.921875 58.15625 
Q 12.015625 62.546875 6.0625 72.796875 
L 12.359375 72.796875 
Q 21.53125 60.546875 25.921875 48.1875 
Q 29.6875 37.546875 29.6875 25.921875 
Q 29.6875 12.75 24.625 0.4375 
Q 19.578125 -11.859375 12.359375 -21.046875 
z
" id="ArialMT-41"/>
      </defs>
      <use transform="translate(0.957031 39.046875)scale(0.7)" xlink:href="#DejaVuSans-49"/>
      <use transform="translate(45.493164 39.046875)scale(0.7)" xlink:href="#DejaVuSans-57"/>
      <use transform="translate(92.763672 0.765625)" xlink:href="#DejaVuSans-70"/>
      <use transform="translate(150.283203 0.765625)" xlink:href="#ArialMT-32"/>
      <use transform="translate(178.066406 0.765625)" xlink:href="#ArialMT-40"/>
      <use transform="translate(211.367188 0.765625)" xlink:href="#ArialMT-112"/>
      <use transform="translate(266.982422 0.765625)" xlink:href="#ArialMT-112"/>
      <use transform="translate(322.597656 0.765625)" xlink:href="#ArialMT-109"/>
      <use transform="translate(405.898438 0.765625)" xlink:href="#ArialMT-41"/>
     </g>
    </g>
   </g>
   <g id="matplotlib.axis_2">
    <g id="ytick_1">
     <g id="line2d_6">
      <defs>
       <path d="M 0 0 
L -3.5 0 
" id="mbe5f9ac674" style="stroke:#000000;stroke-width:0.8;"/>
      </defs>
      <g>
       <use style="stroke:#000000;stroke-width:0.8;" x="29.763" xlink:href="#mbe5f9ac674" y="121.76813"/>
      </g>
     </g>
    </g>
    <g id="ytick_2">
     <g id="line2d_7">
      <g>
       <use style="stroke:#000000;stroke-width:0.8;" x="29.763" xlink:href="#mbe5f9ac674" y="75.687012"/>
      </g>
     </g>
    </g>
    <g id="ytick_3">
     <g id="line2d_8">
      <g>
       <use style="stroke:#000000;stroke-width:0.8;" x="29.763" xlink:href="#mbe5f9ac674" y="29.605893"/>
      </g>
     </g>
    </g>
    <g id="text_7">
     <!-- Intensity -->
     <g transform="translate(16.658312 94.557931)rotate(-90)scale(0.1 -0.1)">
      <defs>
       <path d="M 9.328125 0 
L 9.328125 71.578125 
L 18.796875 71.578125 
L 18.796875 0 
z
" id="ArialMT-73"/>
       <path d="M 6.59375 0 
L 6.59375 51.859375 
L 14.5 51.859375 
L 14.5 44.484375 
Q 20.21875 53.03125 31 53.03125 
Q 35.6875 53.03125 39.625 51.34375 
Q 43.5625 49.65625 45.515625 46.921875 
Q 47.46875 44.1875 48.25 40.4375 
Q 48.734375 37.984375 48.734375 31.890625 
L 48.734375 0 
L 39.9375 0 
L 39.9375 31.546875 
Q 39.9375 36.921875 38.90625 39.578125 
Q 37.890625 42.234375 35.28125 43.8125 
Q 32.671875 45.40625 29.15625 45.40625 
Q 23.53125 45.40625 19.453125 41.84375 
Q 15.375 38.28125 15.375 28.328125 
L 15.375 0 
z
" id="ArialMT-110"/>
       <path d="M 25.78125 7.859375 
L 27.046875 0.09375 
Q 23.34375 -0.6875 20.40625 -0.6875 
Q 15.625 -0.6875 12.984375 0.828125 
Q 10.359375 2.34375 9.28125 4.8125 
Q 8.203125 7.28125 8.203125 15.1875 
L 8.203125 45.015625 
L 1.765625 45.015625 
L 1.765625 51.859375 
L 8.203125 51.859375 
L 8.203125 64.703125 
L 16.9375 69.96875 
L 16.9375 51.859375 
L 25.78125 51.859375 
L 25.78125 45.015625 
L 16.9375 45.015625 
L 16.9375 14.703125 
Q 16.9375 10.9375 17.40625 9.859375 
Q 17.875 8.796875 18.921875 8.15625 
Q 19.96875 7.515625 21.921875 7.515625 
Q 23.390625 7.515625 25.78125 7.859375 
z
" id="ArialMT-116"/>
       <path d="M 42.09375 16.703125 
L 51.171875 15.578125 
Q 49.03125 7.625 43.21875 3.21875 
Q 37.40625 -1.171875 28.375 -1.171875 
Q 17 -1.171875 10.328125 5.828125 
Q 3.65625 12.84375 3.65625 25.484375 
Q 3.65625 38.578125 10.390625 45.796875 
Q 17.140625 53.03125 27.875 53.03125 
Q 38.28125 53.03125 44.875 45.953125 
Q 51.46875 38.875 51.46875 26.03125 
Q 51.46875 25.25 51.421875 23.6875 
L 12.75 23.6875 
Q 13.234375 15.140625 17.578125 10.59375 
Q 21.921875 6.0625 28.421875 6.0625 
Q 33.25 6.0625 36.671875 8.59375 
Q 40.09375 11.140625 42.09375 16.703125 
z
M 13.234375 30.90625 
L 42.1875 30.90625 
Q 41.609375 37.453125 38.875 40.71875 
Q 34.671875 45.796875 27.984375 45.796875 
Q 21.921875 45.796875 17.796875 41.75 
Q 13.671875 37.703125 13.234375 30.90625 
z
" id="ArialMT-101"/>
       <path d="M 3.078125 15.484375 
L 11.765625 16.84375 
Q 12.5 11.625 15.84375 8.84375 
Q 19.1875 6.0625 25.203125 6.0625 
Q 31.25 6.0625 34.171875 8.515625 
Q 37.109375 10.984375 37.109375 14.3125 
Q 37.109375 17.28125 34.515625 19 
Q 32.71875 20.171875 25.53125 21.96875 
Q 15.875 24.421875 12.140625 26.203125 
Q 8.40625 27.984375 6.46875 31.125 
Q 4.546875 34.28125 4.546875 38.09375 
Q 4.546875 41.546875 6.125 44.5 
Q 7.71875 47.46875 10.453125 49.421875 
Q 12.5 50.921875 16.03125 51.96875 
Q 19.578125 53.03125 23.640625 53.03125 
Q 29.734375 53.03125 34.34375 51.265625 
Q 38.96875 49.515625 41.15625 46.5 
Q 43.359375 43.5 44.1875 38.484375 
L 35.59375 37.3125 
Q 35.015625 41.3125 32.203125 43.546875 
Q 29.390625 45.796875 24.265625 45.796875 
Q 18.21875 45.796875 15.625 43.796875 
Q 13.03125 41.796875 13.03125 39.109375 
Q 13.03125 37.40625 14.109375 36.03125 
Q 15.1875 34.625 17.484375 33.6875 
Q 18.796875 33.203125 25.25 31.453125 
Q 34.578125 28.953125 38.25 27.359375 
Q 41.9375 25.78125 44.03125 22.75 
Q 46.140625 19.734375 46.140625 15.234375 
Q 46.140625 10.84375 43.578125 6.953125 
Q 41.015625 3.078125 36.171875 0.953125 
Q 31.34375 -1.171875 25.25 -1.171875 
Q 15.140625 -1.171875 9.84375 3.03125 
Q 4.546875 7.234375 3.078125 15.484375 
z
" id="ArialMT-115"/>
       <path d="M 6.640625 61.46875 
L 6.640625 71.578125 
L 15.4375 71.578125 
L 15.4375 61.46875 
z
M 6.640625 0 
L 6.640625 51.859375 
L 15.4375 51.859375 
L 15.4375 0 
z
" id="ArialMT-105"/>
       <path d="M 6.203125 -19.96875 
L 5.21875 -11.71875 
Q 8.109375 -12.5 10.25 -12.5 
Q 13.1875 -12.5 14.9375 -11.515625 
Q 16.703125 -10.546875 17.828125 -8.796875 
Q 18.65625 -7.46875 20.515625 -2.25 
Q 20.75 -1.515625 21.296875 -0.09375 
L 1.609375 51.859375 
L 11.078125 51.859375 
L 21.875 21.828125 
Q 23.96875 16.109375 25.640625 9.8125 
Q 27.15625 15.875 29.25 21.625 
L 40.328125 51.859375 
L 49.125 51.859375 
L 29.390625 -0.875 
Q 26.21875 -9.421875 24.46875 -12.640625 
Q 22.125 -17 19.09375 -19.015625 
Q 16.0625 -21.046875 11.859375 -21.046875 
Q 9.328125 -21.046875 6.203125 -19.96875 
z
" id="ArialMT-121"/>
      </defs>
      <use xlink:href="#ArialMT-73"/>
      <use x="27.783203" xlink:href="#ArialMT-110"/>
      <use x="83.398438" xlink:href="#ArialMT-116"/>
      <use x="111.181641" xlink:href="#ArialMT-101"/>
      <use x="166.796875" xlink:href="#ArialMT-110"/>
      <use x="222.412109" xlink:href="#ArialMT-115"/>
      <use x="272.412109" xlink:href="#ArialMT-105"/>
      <use x="294.628906" xlink:href="#ArialMT-116"/>
      <use x="322.412109" xlink:href="#ArialMT-121"/>
     </g>
    </g>
   </g>
   <g id="line2d_9">
    <path clip-path="url(#p8eb338125b)" d="M 214.32588 121.631721 
L 214.189748 119.796178 
L 214.121682 120.475656 
L 213.98555 121.145066 
L 213.781352 117.663071 
L 213.577154 124.060194 
L 213.509088 123.035985 
L 213.236823 119.460631 
L 213.168757 116.961978 
L 213.100691 117.598731 
L 213.032625 117.177601 
L 212.896493 119.911733 
L 212.760361 116.62412 
L 212.556163 118.649484 
L 212.488097 118.845304 
L 212.215832 123.426673 
L 212.147766 122.282315 
L 212.0797 122.78441 
L 211.875502 123.970631 
L 211.73937 119.622482 
L 211.671304 119.872031 
L 211.535172 123.117206 
L 211.330974 119.110015 
L 211.194842 121.969464 
L 211.058709 119.310874 
L 210.990643 119.861012 
L 210.922577 119.826253 
L 210.854511 120.532358 
L 210.786445 118.569762 
L 210.718379 118.70665 
L 210.650313 118.726084 
L 210.582247 117.518174 
L 210.378049 122.307735 
L 210.309983 122.828635 
L 210.241917 122.679577 
L 210.173851 121.180466 
L 210.105785 121.705151 
L 209.969652 122.241526 
L 209.901586 124.61225 
L 209.697388 117.970955 
L 209.629322 119.943847 
L 209.561256 122.080562 
L 209.49319 121.121366 
L 209.357058 118.75147 
L 209.288992 119.120132 
L 209.15286 120.506447 
L 208.948661 119.346807 
L 208.812529 120.231325 
L 208.540265 126.730655 
L 208.472199 126.401864 
L 208.336067 122.379188 
L 208.268001 125.573953 
L 208.199935 124.036484 
L 207.995737 120.569687 
L 207.927671 121.223528 
L 207.859604 120.753104 
L 207.791538 120.802284 
L 207.723472 121.837357 
L 207.519274 119.920766 
L 207.383142 124.182876 
L 207.315076 123.262453 
L 207.178944 122.033154 
L 207.110878 123.590425 
L 207.042812 122.389026 
L 206.974746 122.520905 
L 206.90668 124.830514 
L 206.838614 123.774631 
L 206.770547 123.937006 
L 206.702481 123.172629 
L 206.634415 123.845234 
L 206.362151 120.617269 
L 206.294085 120.541048 
L 206.226019 120.711377 
L 206.157953 120.070401 
L 205.953755 123.692055 
L 205.885689 124.369369 
L 205.817623 122.97569 
L 205.749557 122.991347 
L 205.545358 124.599219 
L 205.136962 119.001488 
L 205.068896 120.296262 
L 205.00083 119.871291 
L 204.796632 120.65047 
L 204.728566 122.251298 
L 204.6605 121.720176 
L 204.592433 121.494048 
L 204.524367 119.804724 
L 204.456301 121.551668 
L 204.388235 121.518124 
L 204.320169 121.408879 
L 204.252103 123.310862 
L 204.184037 122.990927 
L 203.911773 121.654585 
L 203.843707 121.411377 
L 203.775641 122.821979 
L 203.707575 122.704113 
L 203.639509 122.587557 
L 203.571443 121.997131 
L 203.503376 122.170184 
L 203.367244 124.023839 
L 203.026914 118.697243 
L 202.958848 119.613273 
L 202.822716 124.490789 
L 202.686584 117.989399 
L 202.618518 119.022489 
L 202.482386 116.290406 
L 202.414319 117.473941 
L 202.142055 125.615193 
L 202.073989 125.087888 
L 202.005923 125.114506 
L 201.937857 127.109234 
L 201.801725 120.764474 
L 201.733659 121.971762 
L 201.665593 121.946511 
L 201.597527 121.081592 
L 201.529461 121.12507 
L 201.393329 124.334234 
L 201.325263 123.761563 
L 201.052998 117.26243 
L 200.8488 120.593334 
L 200.780734 119.297828 
L 200.712668 120.367221 
L 200.576536 124.345296 
L 200.372338 118.149249 
L 200.304272 118.176021 
L 200.168139 120.768149 
L 200.100073 120.341119 
L 199.895875 124.162297 
L 199.555545 119.674515 
L 199.419413 120.938486 
L 199.351347 119.066817 
L 199.283281 120.070506 
L 199.215215 119.714784 
L 199.147149 117.485007 
L 199.079082 118.486263 
L 198.94295 124.973754 
L 198.806818 120.12836 
L 198.670686 121.638254 
L 198.466488 125.64172 
L 198.26229 120.097108 
L 197.921959 125.729901 
L 197.785827 122.588224 
L 197.649695 120.056478 
L 197.513563 122.543627 
L 197.445497 121.932677 
L 197.241299 117.633241 
L 197.037101 125.14381 
L 196.969035 124.787904 
L 196.832902 126.654566 
L 196.560638 119.449927 
L 196.492572 120.705192 
L 196.220308 124.978557 
L 196.152242 123.882461 
L 196.084176 122.813107 
L 195.948044 125.239083 
L 195.811911 120.945541 
L 195.743845 121.582512 
L 195.539647 124.092105 
L 195.471581 125.154617 
L 195.403515 124.992204 
L 195.131251 123.253389 
L 195.063185 125.12084 
L 194.995119 124.747954 
L 194.858987 121.594779 
L 194.790921 122.827093 
L 194.654788 120.558472 
L 194.586722 121.113204 
L 194.45059 123.869663 
L 194.246392 121.134244 
L 194.178326 120.627702 
L 194.042194 124.184559 
L 193.974128 123.990058 
L 193.837996 121.493425 
L 193.701864 123.150035 
L 193.633797 122.211797 
L 193.565731 119.347575 
L 193.497665 120.244909 
L 193.361533 122.921766 
L 193.157335 121.279739 
L 192.953137 122.166701 
L 192.817005 120.862721 
L 192.54474 123.96871 
L 192.476674 123.002286 
L 192.340542 120.595711 
L 192.20441 122.646125 
L 192.136344 124.235907 
L 192.068278 123.722654 
L 191.932146 120.223227 
L 191.796014 121.888011 
L 191.727948 119.243601 
L 191.659882 120.564609 
L 191.52375 124.240821 
L 191.387617 119.81153 
L 191.115353 124.937649 
L 190.979221 120.755489 
L 190.843089 121.908383 
L 190.775023 120.091358 
L 190.706957 120.896485 
L 190.638891 120.970478 
L 190.502759 119.658081 
L 190.29856 124.464576 
L 190.162428 120.456494 
L 189.95823 123.39268 
L 189.890164 124.259322 
L 189.754032 120.531718 
L 189.481768 123.95951 
L 189.345636 122.466172 
L 189.277569 123.191633 
L 189.073371 119.282579 
L 189.005305 119.561437 
L 188.937239 119.457872 
L 188.733041 120.281895 
L 188.596909 118.772984 
L 188.324645 121.525517 
L 188.188512 126.965814 
L 188.120446 124.058297 
L 188.05238 124.599394 
L 187.984314 124.252928 
L 187.916248 124.436272 
L 187.780116 121.188088 
L 187.507852 121.984955 
L 187.439786 123.084511 
L 187.303654 120.160888 
L 187.099455 125.393907 
L 186.963323 119.019255 
L 186.827191 119.777577 
L 186.554927 122.98185 
L 186.486861 122.564625 
L 186.350729 118.233036 
L 186.214597 120.221667 
L 186.146531 122.010691 
L 186.010398 118.316342 
L 185.8062 125.513995 
L 185.602002 121.401522 
L 185.533936 121.500205 
L 185.397804 123.238992 
L 185.261672 121.089724 
L 185.12554 124.754408 
L 185.057474 124.385834 
L 184.989408 124.123539 
L 184.785209 121.634284 
L 184.717143 122.11102 
L 184.444879 117.387091 
L 184.240681 124.048821 
L 184.172615 123.525806 
L 184.036483 119.045717 
L 183.968417 116.661219 
L 183.696152 122.741205 
L 183.628086 122.634067 
L 183.56002 123.716261 
L 183.491954 123.110741 
L 183.355822 120.161946 
L 183.151624 125.219119 
L 182.947426 120.434263 
L 182.87936 121.196235 
L 182.743228 120.590934 
L 182.675161 120.618293 
L 182.470963 125.849408 
L 181.858369 118.130242 
L 181.586104 122.898532 
L 181.518038 122.921119 
L 181.31384 119.974908 
L 181.177708 123.171906 
L 181.109642 123.081792 
L 180.97351 121.052098 
L 180.63318 124.808677 
L 180.428981 121.159158 
L 180.360915 120.169945 
L 180.224783 121.979206 
L 180.156717 122.128016 
L 180.088651 122.729324 
L 179.884453 119.683129 
L 179.748321 123.73307 
L 179.612189 119.985527 
L 179.544123 121.048956 
L 179.476057 120.501991 
L 179.40799 118.636275 
L 179.339924 118.653378 
L 179.203792 123.423678 
L 179.135726 122.421439 
L 179.06766 120.863629 
L 178.931528 125.270677 
L 178.659264 121.600617 
L 178.591198 121.607819 
L 178.455066 118.693046 
L 178.318933 123.793602 
L 178.250867 122.817309 
L 178.046669 118.335242 
L 177.842471 123.180735 
L 177.774405 123.017519 
L 177.706339 120.717954 
L 177.638273 121.116854 
L 177.434075 124.601319 
L 177.366009 124.622106 
L 177.229876 121.404528 
L 176.957612 126.641554 
L 176.753414 123.460915 
L 176.617282 123.496966 
L 176.413084 121.765978 
L 176.345018 122.420051 
L 175.868555 115.28126 
L 175.800489 116.255233 
L 175.732423 114.469713 
L 175.664357 115.560504 
L 175.460159 121.694284 
L 175.255961 117.64785 
L 175.119829 121.687903 
L 175.051762 121.496421 
L 174.847564 119.445055 
L 174.711432 119.067893 
L 174.643366 119.294258 
L 174.5753 119.137104 
L 174.439168 117.526052 
L 174.371102 117.743209 
L 174.098838 123.820374 
L 173.894639 119.203128 
L 173.826573 120.091076 
L 173.758507 119.641454 
L 173.690441 118.422072 
L 173.622375 118.474244 
L 173.554309 120.732923 
L 173.486243 119.654968 
L 173.418177 119.493868 
L 173.350111 120.232638 
L 173.282045 118.828525 
L 173.077847 120.265517 
L 173.009781 118.812049 
L 172.941715 119.292948 
L 172.737516 124.66517 
L 172.66945 124.370612 
L 172.601384 124.478518 
L 172.397186 118.647452 
L 172.192988 126.393469 
L 172.124922 126.245845 
L 171.920724 123.088735 
L 171.852658 123.098555 
L 171.716525 120.446264 
L 171.512327 124.791614 
L 171.171997 120.657969 
L 171.035865 117.000309 
L 170.899733 119.256426 
L 170.695534 123.618275 
L 170.627468 123.700027 
L 170.287138 118.136542 
L 170.219072 118.392372 
L 170.151006 119.007505 
L 170.014874 122.307344 
L 169.878742 119.159161 
L 169.810676 118.992048 
L 169.74261 116.970527 
L 169.606478 121.6297 
L 169.402279 117.858247 
L 169.334213 119.239804 
L 169.198081 125.412052 
L 169.130015 124.989172 
L 168.993883 123.375883 
L 168.857751 125.181349 
L 168.653553 121.571772 
L 168.585487 121.764792 
L 168.449354 122.260035 
L 168.313222 123.476445 
L 168.245156 122.514324 
L 168.109024 125.237208 
L 167.972892 127.218605 
L 167.83676 126.705562 
L 167.700628 122.589651 
L 167.632562 123.601624 
L 167.564496 123.54066 
L 167.49643 122.924069 
L 167.292231 124.963705 
L 167.019967 121.640089 
L 166.951901 119.593353 
L 166.883835 120.81216 
L 166.815769 122.45263 
L 166.747703 122.192238 
L 166.679637 121.095825 
L 166.475439 115.109517 
L 166.339307 120.39764 
L 166.27124 121.066848 
L 166.067042 124.24193 
L 165.998976 123.627697 
L 165.862844 120.691952 
L 165.794778 120.899535 
L 165.658646 124.052508 
L 165.59058 124.046918 
L 165.522514 123.206498 
L 165.386382 117.124901 
L 165.318316 118.161692 
L 165.182183 122.01645 
L 165.114117 121.815783 
L 165.046051 121.290935 
L 164.909919 119.218266 
L 164.501523 123.265525 
L 164.093126 118.396865 
L 164.02506 119.340884 
L 163.956994 119.244205 
L 163.888928 118.545755 
L 163.820862 119.77635 
L 163.548598 116.439442 
L 163.412466 120.936332 
L 163.3444 120.802943 
L 163.276334 120.427872 
L 163.140202 121.372803 
L 163.004069 117.978833 
L 162.936003 119.904554 
L 162.867937 119.667319 
L 162.799871 120.058882 
L 162.731805 119.066701 
L 162.663739 120.146616 
L 162.527607 123.648632 
L 162.459541 123.472051 
L 162.323409 120.463781 
L 162.255343 123.629307 
L 162.187277 122.717013 
L 162.119211 121.272696 
L 162.051145 121.982049 
L 161.846946 125.407033 
L 161.642748 121.423378 
L 161.574682 121.665945 
L 161.506616 124.130099 
L 161.43855 122.970298 
L 161.302418 123.509351 
L 161.09822 116.326972 
L 161.030154 117.418942 
L 160.894022 119.78369 
L 160.825955 119.129156 
L 160.689823 116.44877 
L 160.281427 123.359112 
L 160.145295 119.295239 
L 160.077229 122.733208 
L 160.009163 121.689905 
L 159.941097 120.390022 
L 159.804965 124.2927 
L 159.736898 123.780319 
L 159.668832 124.264307 
L 159.5327 126.85158 
L 159.464634 126.157802 
L 159.328502 128.321673 
L 158.988172 121.071474 
L 158.85204 122.036061 
L 158.783974 123.775844 
L 158.715908 123.748453 
L 158.443643 119.966039 
L 158.375577 120.513284 
L 158.171379 124.10169 
L 158.103313 123.184792 
L 158.035247 119.518077 
L 157.967181 120.986256 
L 157.831049 123.767831 
L 157.762983 123.46188 
L 157.694917 121.523648 
L 157.626851 122.006677 
L 157.490718 123.071645 
L 157.422652 122.317684 
L 157.354586 123.220703 
L 157.28652 122.174352 
L 157.150388 126.547771 
L 156.94619 120.254763 
L 156.810058 121.273768 
L 156.537794 118.938351 
L 156.401661 119.929159 
L 156.333595 118.774684 
L 156.265529 118.97911 
L 156.129397 120.708268 
L 156.061331 120.065683 
L 155.925199 121.845658 
L 155.789067 120.622544 
L 155.721001 120.626221 
L 155.516803 122.466161 
L 155.448737 121.706823 
L 155.38067 121.887899 
L 155.312604 123.913369 
L 155.244538 123.787847 
L 155.108406 121.663183 
L 155.04034 122.696343 
L 154.972274 121.4473 
L 154.904208 121.555676 
L 154.836142 121.828666 
L 154.70001 120.865017 
L 154.631944 121.526905 
L 154.563878 121.420562 
L 154.495812 119.928154 
L 154.155481 124.489752 
L 154.087415 124.394414 
L 153.951283 125.626426 
L 153.747085 121.893346 
L 153.610953 123.23078 
L 153.542887 122.878631 
L 153.474821 123.235168 
L 153.202557 116.290316 
L 153.13449 116.556907 
L 152.998358 122.697363 
L 152.862226 117.951844 
L 152.79416 118.602002 
L 152.726094 120.533855 
L 152.658028 120.284446 
L 152.521896 116.228725 
L 152.45383 119.29754 
L 152.385764 117.943714 
L 152.317698 116.895804 
L 152.249632 117.62925 
L 152.1135 123.102018 
L 152.045433 123.046704 
L 151.977367 122.830454 
L 151.909301 123.198478 
L 151.841235 121.953584 
L 151.705103 124.675117 
L 151.637037 123.580424 
L 151.568971 124.347305 
L 151.500905 123.883195 
L 151.364773 119.550607 
L 151.296707 120.267833 
L 151.228641 121.278923 
L 151.160575 120.862293 
L 151.092509 118.992383 
L 151.024443 119.097529 
L 150.88831 122.024825 
L 150.684112 117.692274 
L 150.616046 118.202209 
L 150.479914 123.115356 
L 150.411848 122.410872 
L 150.343782 122.18616 
L 150.275716 122.678872 
L 150.071518 121.487782 
L 149.935386 123.324944 
L 149.799253 122.753165 
L 149.731187 124.617199 
L 149.595055 121.251719 
L 149.526989 121.352773 
L 149.458923 122.633304 
L 149.322791 121.17429 
L 149.254725 121.918502 
L 149.186659 121.878235 
L 149.050527 122.520746 
L 148.982461 123.662459 
L 148.914395 123.455044 
L 148.64213 117.428482 
L 148.574064 118.112506 
L 148.369866 125.695376 
L 148.3018 124.863348 
L 148.233734 122.596996 
L 148.165668 123.02573 
L 148.029536 121.805977 
L 147.96147 119.597 
L 147.893404 119.834845 
L 147.825338 121.033614 
L 147.689205 126.162048 
L 147.416941 118.529053 
L 147.348875 118.612436 
L 147.144677 123.626193 
L 147.076611 124.050284 
L 146.872413 120.919108 
L 146.804347 121.914671 
L 146.668215 123.219207 
L 146.600148 121.910591 
L 146.532082 122.589318 
L 146.464016 123.599889 
L 146.191752 117.839135 
L 146.05562 121.511642 
L 145.987554 120.727604 
L 145.919488 121.198668 
L 145.851422 123.012742 
L 145.783356 122.694003 
L 145.511091 118.42124 
L 145.443025 118.438567 
L 145.238827 122.57481 
L 145.170761 121.095634 
L 145.102695 122.670024 
L 145.034629 122.601363 
L 144.898497 120.534292 
L 144.830431 120.472583 
L 144.558167 123.784688 
L 144.353968 120.838261 
L 144.285902 120.554645 
L 144.217836 122.000469 
L 144.14977 121.672447 
L 144.081704 118.850841 
L 144.013638 119.325086 
L 143.80944 121.270082 
L 143.741374 121.528347 
L 143.673308 121.481103 
L 143.537176 120.99306 
L 143.46911 120.374026 
L 143.401044 120.658788 
L 143.264911 123.592419 
L 143.128779 119.593359 
L 143.060713 120.609977 
L 142.856515 122.544501 
L 142.788449 122.525489 
L 142.652317 119.26542 
L 142.584251 119.757714 
L 142.448119 124.769089 
L 142.380053 124.148987 
L 142.175854 120.902773 
L 142.107788 123.308961 
L 142.039722 123.142394 
L 141.971656 122.492834 
L 141.90359 123.152476 
L 141.835524 122.147749 
L 141.767458 124.599313 
L 141.699392 123.993392 
L 141.631326 123.562083 
L 141.495194 120.489623 
L 141.427128 120.705059 
L 141.359062 119.724541 
L 141.154863 123.713569 
L 141.018731 121.262065 
L 140.882599 122.058809 
L 140.746467 119.228469 
L 140.678401 119.877544 
L 140.610335 118.78802 
L 140.406137 121.971052 
L 140.338071 122.044418 
L 140.270005 121.498068 
L 140.133873 122.181238 
L 139.99774 120.355845 
L 139.929674 120.969067 
L 139.725476 118.993742 
L 139.521278 121.698428 
L 139.453212 120.160336 
L 139.385146 120.779766 
L 139.249014 123.063936 
L 139.112882 119.172715 
L 139.044816 120.670696 
L 138.908683 121.121341 
L 138.704485 119.73616 
L 138.432221 125.522547 
L 138.364155 124.819567 
L 138.159957 121.523948 
L 138.023825 125.00907 
L 137.955759 123.966175 
L 137.75156 120.15133 
L 137.683494 121.168777 
L 137.41123 117.528481 
L 137.275098 119.955934 
L 137.207032 121.043226 
L 137.138966 120.912531 
L 136.934768 116.546529 
L 136.866702 117.150567 
L 136.662503 119.656199 
L 136.594437 119.714032 
L 136.458305 122.103747 
L 136.390239 121.514693 
L 136.322173 121.74037 
L 136.254107 122.150562 
L 136.186041 123.891072 
L 135.981843 119.120923 
L 135.913777 119.698825 
L 135.845711 120.875804 
L 135.777645 120.136278 
L 135.709579 120.086162 
L 135.573446 121.983516 
L 135.50538 121.371811 
L 135.437314 121.44704 
L 135.301182 122.960825 
L 135.16505 126.235066 
L 134.960852 118.587779 
L 134.892786 118.604747 
L 134.82472 121.482836 
L 134.756654 121.477723 
L 134.620522 119.862349 
L 134.484389 120.952628 
L 134.348257 118.131384 
L 134.212125 120.380553 
L 134.075993 119.782376 
L 134.007927 119.723175 
L 133.871795 118.021919 
L 133.531465 123.476859 
L 133.395332 120.446925 
L 133.327266 121.711435 
L 133.2592 121.654908 
L 133.123068 118.300992 
L 133.055002 119.218574 
L 132.986936 119.890242 
L 132.850804 123.30153 
L 132.782738 123.08665 
L 132.646606 124.956926 
L 132.510474 119.672336 
L 132.442408 120.571327 
L 132.306275 123.625809 
L 132.102077 117.868764 
L 131.965945 113.198151 
L 131.557549 124.032314 
L 131.421417 120.674066 
L 131.353351 120.781284 
L 131.081086 125.06947 
L 131.01302 124.358315 
L 130.944954 121.547223 
L 130.876888 122.814043 
L 130.740756 123.455259 
L 130.67269 123.157085 
L 130.536558 118.848751 
L 130.468492 118.982905 
L 130.400426 119.120238 
L 130.264294 124.622403 
L 130.196227 123.222774 
L 130.128161 121.853361 
L 129.992029 126.376821 
L 129.923963 125.952945 
L 129.855897 123.646196 
L 129.719765 126.76661 
L 129.651699 126.213648 
L 129.583633 126.924605 
L 129.515567 126.536784 
L 129.175237 121.909504 
L 129.039104 122.872639 
L 128.971038 121.951011 
L 128.902972 122.584699 
L 128.834906 122.46554 
L 128.630708 120.156172 
L 128.494576 122.263735 
L 128.290378 119.551505 
L 128.08618 124.998038 
L 128.018113 124.19661 
L 127.950047 123.461147 
L 127.881981 124.090743 
L 127.813915 126.16391 
L 127.745849 126.135117 
L 127.677783 126.146209 
L 127.609717 125.947337 
L 127.337453 122.228782 
L 127.269387 122.256228 
L 127.201321 122.350979 
L 127.133255 121.918249 
L 127.065189 122.299522 
L 126.929056 123.76915 
L 126.86099 123.05162 
L 126.724858 125.391926 
L 126.588726 120.359765 
L 126.52066 120.765803 
L 126.452594 122.442559 
L 126.384528 120.87169 
L 126.18033 124.511906 
L 125.976132 120.468362 
L 125.839999 125.156372 
L 125.771933 124.790619 
L 125.635801 123.492939 
L 125.499669 125.053001 
L 125.363537 121.502131 
L 125.295471 121.976784 
L 125.227405 123.495832 
L 125.159339 122.930968 
L 125.091273 121.502785 
L 125.023207 121.791946 
L 124.955141 121.958679 
L 124.819009 123.555919 
L 124.750942 123.69569 
L 124.61481 121.58066 
L 124.478678 124.933482 
L 124.342546 120.51306 
L 124.27448 120.31037 
L 124.138348 118.1991 
L 123.798018 122.497027 
L 123.729952 122.240174 
L 123.593819 126.322814 
L 123.389621 119.948997 
L 123.253489 121.13596 
L 123.185423 121.318013 
L 123.117357 122.224525 
L 123.049291 121.911203 
L 122.913159 120.40216 
L 122.845093 121.81493 
L 122.777027 121.706328 
L 122.708961 122.079441 
L 122.572828 119.241697 
L 122.300564 122.704922 
L 122.232498 121.852249 
L 122.164432 123.398944 
L 122.096366 121.971814 
L 122.0283 117.930998 
L 121.960234 118.296453 
L 121.756036 122.066589 
L 121.68797 121.87761 
L 121.551838 119.887998 
L 121.483772 121.247478 
L 121.347639 119.352234 
L 121.211507 99.797594 
L 121.075375 23.555127 
L 120.871177 112.274187 
L 120.666979 118.556251 
L 120.598913 120.278409 
L 120.530847 119.964284 
L 120.326648 115.541783 
L 120.190516 119.021235 
L 119.986318 124.06862 
L 119.78212 118.404408 
L 119.714054 119.253404 
L 119.645988 118.818106 
L 119.577922 118.187906 
L 119.44179 122.983087 
L 119.305658 117.359871 
L 119.033393 121.007082 
L 118.965327 119.415446 
L 118.897261 120.415048 
L 118.829195 120.168987 
L 118.556931 125.721902 
L 118.488865 125.471382 
L 118.352733 122.081169 
L 118.284667 123.13 
L 118.148534 120.37269 
L 118.012402 123.168988 
L 117.944336 122.993622 
L 117.672072 119.320501 
L 117.604006 119.492714 
L 117.467874 121.858679 
L 117.399808 121.533506 
L 117.331742 121.38682 
L 117.19561 124.922253 
L 116.787213 121.565635 
L 116.719147 121.982084 
L 116.651081 121.975495 
L 116.310751 119.246556 
L 115.902354 126.234851 
L 115.834288 126.188721 
L 115.766222 123.301412 
L 115.698156 123.360521 
L 115.63009 123.932541 
L 115.562024 123.434423 
L 115.425892 125.474939 
L 115.28976 120.262022 
L 115.153628 121.943286 
L 115.085562 120.700116 
L 115.017496 122.611763 
L 114.94943 122.240755 
L 114.813297 120.149063 
L 114.745231 120.156166 
L 114.677165 119.793397 
L 114.541033 122.832135 
L 114.472967 121.565127 
L 114.404901 120.583633 
L 114.268769 122.463313 
L 114.200703 120.540617 
L 114.064571 123.259755 
L 113.928439 122.480607 
L 113.72424 119.6998 
L 113.588108 121.827228 
L 113.520042 121.464548 
L 113.451976 122.070626 
L 113.38391 121.893433 
L 113.179712 118.295558 
L 112.975514 122.71126 
L 112.839382 123.564671 
L 112.771316 123.738898 
L 112.635183 120.631604 
L 112.567117 122.352551 
L 112.499051 122.958621 
L 112.362919 122.468459 
L 112.294853 123.654702 
L 112.090655 119.593859 
L 111.818391 122.396441 
L 111.750325 122.578413 
L 111.614192 121.97949 
L 111.546126 123.150638 
L 111.47806 122.70017 
L 111.409994 120.992973 
L 111.341928 121.849955 
L 111.205796 126.269234 
L 111.069664 123.413672 
L 110.865466 125.159853 
L 110.729334 122.993816 
L 110.593202 126.504666 
L 110.525135 126.138042 
L 110.389003 120.066046 
L 110.320937 121.248379 
L 110.184805 125.655123 
L 110.116739 124.401608 
L 110.048673 123.635074 
L 109.980607 124.517874 
L 109.912541 123.818278 
L 109.844475 124.873603 
L 109.572211 122.323738 
L 109.504145 122.604745 
L 109.368012 120.322604 
L 109.299946 120.893131 
L 109.027682 118.473486 
L 108.687352 123.979147 
L 108.619286 123.389953 
L 108.483154 126.589451 
L 108.415088 126.047815 
L 108.142823 121.321425 
L 108.074757 121.804172 
L 107.870559 119.510475 
L 107.802493 116.604355 
L 107.734427 116.662372 
L 107.462163 122.739778 
L 107.326031 124.973832 
L 107.189898 122.279888 
L 106.9857 123.919902 
L 106.849568 120.872307 
L 106.713436 122.580487 
L 106.64537 121.845967 
L 106.577304 121.88142 
L 106.509238 124.179792 
L 106.441172 122.819194 
L 106.30504 120.525185 
L 106.236974 120.605361 
L 106.168907 121.517411 
L 105.964709 119.92286 
L 105.828577 118.615332 
L 105.760511 119.097334 
L 105.692445 119.162011 
L 105.556313 121.91057 
L 105.488247 122.934724 
L 105.352115 121.830452 
L 105.284049 122.20079 
L 105.147917 126.255679 
L 104.943718 120.898309 
L 104.875652 123.590133 
L 104.807586 120.964778 
L 104.73952 121.16519 
L 104.671454 124.346821 
L 104.603388 122.502878 
L 104.467256 120.09632 
L 104.39919 117.622835 
L 104.331124 118.733823 
L 104.126926 122.828547 
L 104.05886 122.290581 
L 103.990794 122.290251 
L 103.922727 122.714411 
L 103.786595 118.510074 
L 103.718529 119.293058 
L 103.514331 123.826691 
L 103.446265 124.083042 
L 103.378199 120.211264 
L 103.310133 120.482827 
L 103.105935 122.401499 
L 103.037869 121.913356 
L 102.901737 123.905563 
L 102.765604 119.732352 
L 102.697538 121.00401 
L 102.629472 124.168665 
L 102.561406 123.315384 
L 102.357208 120.445337 
L 102.15301 122.483786 
L 102.084944 122.265731 
L 101.81268 114.880435 
L 101.744613 115.176047 
L 101.540415 122.801683 
L 101.336217 119.220504 
L 101.200085 123.240362 
L 101.132019 122.715805 
L 100.995887 125.011101 
L 100.723623 120.956156 
L 100.58749 122.365373 
L 100.519424 121.660946 
L 100.383292 124.408132 
L 100.179094 121.627449 
L 100.042962 120.982043 
L 99.974896 122.695683 
L 99.90683 121.780278 
L 99.838764 121.224029 
L 99.770698 124.062513 
L 99.702632 123.381059 
L 99.430367 118.510196 
L 99.294235 120.041804 
L 99.158103 117.498779 
L 99.090037 117.914127 
L 98.953905 120.732082 
L 98.885839 120.444134 
L 98.477442 126.409858 
L 98.273244 121.468832 
L 98.137112 120.958981 
L 98.00098 118.060054 
L 97.796782 119.266177 
L 97.66065 117.722457 
L 97.388385 121.75679 
L 97.320319 119.266875 
L 97.252253 119.853473 
L 97.184187 121.960784 
L 97.116121 121.600708 
L 97.048055 120.491453 
L 96.843857 125.59386 
L 96.775791 124.201479 
L 96.707725 125.470122 
L 96.571593 122.841035 
L 96.503527 123.058266 
L 96.367395 125.137047 
L 96.163196 120.012868 
L 96.09513 120.794782 
L 96.027064 122.422736 
L 95.958998 121.273484 
L 95.890932 118.151507 
L 95.822866 119.018264 
L 95.7548 118.948382 
L 95.618668 120.553411 
L 95.550602 121.607839 
L 95.482536 120.807036 
L 95.41447 117.258259 
L 95.346404 118.69851 
L 95.210271 123.772027 
L 95.142205 122.565838 
L 95.074139 120.714052 
L 95.006073 121.294407 
L 94.938007 122.187283 
L 94.869941 121.389483 
L 94.733809 123.358556 
L 94.665743 122.698365 
L 94.597677 123.628759 
L 94.529611 123.38338 
L 94.461545 123.43837 
L 94.393479 122.704166 
L 94.257347 125.86921 
L 94.121214 123.460479 
L 94.053148 124.061599 
L 93.985082 124.512993 
L 93.917016 124.355794 
L 93.780884 119.387433 
L 93.712818 119.768091 
L 93.576686 121.731778 
L 93.440554 120.105296 
L 93.304422 123.003954 
L 93.16829 120.309488 
L 93.032157 124.576672 
L 92.827959 120.024882 
L 92.691827 122.84698 
L 92.623761 122.781085 
L 92.555695 123.049378 
L 92.487629 122.83303 
L 92.351497 125.1294 
L 92.283431 124.82679 
L 92.215365 123.345676 
L 92.147299 123.750498 
L 92.079233 123.065995 
L 91.9431 124.268161 
L 91.806968 121.251137 
L 91.738902 122.002582 
L 91.670836 123.504197 
L 91.466638 120.522007 
L 91.398572 119.251866 
L 91.330506 119.308624 
L 91.26244 119.525029 
L 91.126308 120.653327 
L 91.058242 120.465289 
L 90.990176 121.59636 
L 90.92211 121.478343 
L 90.785977 119.043089 
L 90.513713 123.58484 
L 90.445647 122.768505 
L 90.377581 120.049172 
L 90.309515 120.41765 
L 90.173383 126.135071 
L 90.105317 125.321917 
L 89.901119 121.917024 
L 89.833053 122.288928 
L 89.69692 120.587205 
L 89.35659 126.414759 
L 89.220458 122.661502 
L 89.152392 123.78757 
L 88.948194 119.058557 
L 88.812062 114.992589 
L 88.67593 116.455597 
L 88.607863 115.745306 
L 88.471731 122.574491 
L 88.335599 121.59066 
L 88.131401 124.207272 
L 87.927203 125.218847 
L 87.723005 122.696029 
L 87.654939 120.126253 
L 87.586873 120.347407 
L 87.518806 120.191797 
L 87.382674 122.379258 
L 87.246542 117.550032 
L 86.974278 124.952213 
L 86.906212 125.055402 
L 86.702014 118.98095 
L 86.497816 122.974272 
L 86.361683 117.75046 
L 86.225551 120.743112 
L 86.089419 117.119187 
L 86.021353 118.740424 
L 85.953287 118.816192 
L 85.681023 121.577385 
L 85.612957 121.086353 
L 85.544891 121.785427 
L 85.476825 121.680976 
L 85.408759 120.698134 
L 85.272626 123.011803 
L 85.20456 122.00494 
L 85.136494 122.396356 
L 84.932296 124.790373 
L 84.796164 122.994061 
L 84.728098 123.480605 
L 84.591966 121.442747 
L 84.5239 121.613179 
L 84.455834 122.484986 
L 84.319702 121.462148 
L 84.251635 121.597174 
L 84.047437 123.498375 
L 83.979371 124.811742 
L 83.911305 124.5736 
L 83.775173 120.625371 
L 83.707107 121.05791 
L 83.570975 123.146277 
L 83.502909 122.726642 
L 83.366777 120.449278 
L 83.230645 120.740125 
L 83.094512 119.875659 
L 83.026446 118.143488 
L 82.822248 120.541273 
L 82.754182 120.686012 
L 82.61805 121.336238 
L 82.549984 121.043539 
L 82.481918 121.109903 
L 82.413852 121.455862 
L 82.345786 123.431964 
L 82.27772 123.277775 
L 82.141588 120.393875 
L 82.073521 121.235489 
L 82.005455 120.505476 
L 81.801257 122.165063 
L 81.733191 122.205497 
L 81.665125 121.979757 
L 81.392861 127.059797 
L 81.324795 126.201809 
L 81.052531 117.995406 
L 80.984464 117.554806 
L 80.780266 120.09519 
L 80.7122 119.445827 
L 80.644134 119.973205 
L 80.576068 119.906058 
L 80.37187 117.404012 
L 80.303804 117.252523 
L 80.235738 117.654693 
L 80.167672 118.809651 
L 80.099606 118.43469 
L 80.03154 118.243775 
L 79.827341 122.518343 
L 79.759275 121.25338 
L 79.691209 121.383688 
L 79.623143 121.17869 
L 79.555077 121.446987 
L 79.487011 123.030387 
L 79.418945 122.274916 
L 79.350879 122.178378 
L 79.282813 121.067535 
L 79.078615 116.314455 
L 78.942483 114.094151 
L 78.602152 100.548237 
L 78.261822 111.965423 
L 77.78536 119.097104 
L 77.717293 117.849509 
L 77.649227 118.477964 
L 77.376963 123.76885 
L 77.240831 118.77225 
L 77.172765 119.062868 
L 77.036633 120.782491 
L 76.900501 115.90394 
L 76.628236 119.953156 
L 76.492104 118.232414 
L 76.015642 126.64048 
L 75.947576 125.120261 
L 75.87951 123.420986 
L 75.811444 124.338344 
L 75.675312 123.881157 
L 75.539179 121.820167 
L 75.471113 123.196969 
L 75.403047 123.180779 
L 75.266915 118.876785 
L 75.130783 123.836904 
L 75.062717 123.369052 
L 74.994651 122.67422 
L 74.926585 123.503058 
L 74.790453 120.394595 
L 74.722387 121.156168 
L 74.654321 121.091031 
L 74.586255 120.511706 
L 74.450122 121.743851 
L 74.31399 123.998788 
L 74.177858 123.416931 
L 74.041726 126.274321 
L 73.97366 125.496522 
L 73.837528 120.323987 
L 73.769462 121.572355 
L 73.701396 123.729945 
L 73.497198 121.253315 
L 73.429132 121.42834 
L 73.361066 121.040059 
L 73.224933 124.996104 
L 73.088801 118.189821 
L 72.952669 121.189299 
L 72.884603 119.488636 
L 72.680405 121.429834 
L 72.612339 120.78056 
L 72.408141 124.715789 
L 72.272009 123.766474 
L 72.135876 125.016653 
L 71.999744 122.445161 
L 71.863612 127.585262 
L 71.795546 127.020634 
L 71.591348 123.041162 
L 71.523282 122.269392 
L 71.455216 124.143336 
L 71.38715 123.723038 
L 71.319084 123.628152 
L 71.182952 125.683625 
L 71.046819 119.645948 
L 70.910687 123.927341 
L 70.774555 123.00597 
L 70.706489 123.54432 
L 70.502291 121.124083 
L 70.434225 120.132243 
L 70.366159 120.387702 
L 70.161961 124.706201 
L 70.093895 124.408352 
L 70.025828 124.425551 
L 69.889696 125.528901 
L 69.685498 116.669807 
L 69.617432 117.749361 
L 69.345168 122.04149 
L 69.277102 120.588555 
L 69.14097 125.628635 
L 68.936771 118.723497 
L 68.800639 122.039657 
L 68.528375 118.709902 
L 68.460309 119.425061 
L 68.392243 118.720846 
L 68.324177 118.794366 
L 68.188045 121.448438 
L 68.119979 120.763442 
L 68.051913 120.882566 
L 67.983847 122.971088 
L 67.915781 122.79757 
L 67.711582 120.691129 
L 67.57545 122.755444 
L 67.439318 119.651177 
L 67.371252 121.3349 
L 67.303186 120.322983 
L 67.23512 116.512739 
L 67.167054 117.730405 
L 67.030922 121.098374 
L 66.962856 121.684032 
L 66.89479 121.172303 
L 66.690591 123.328503 
L 66.486393 119.622017 
L 66.350261 121.856242 
L 66.214129 120.934013 
L 66.077997 122.742861 
L 66.009931 121.482579 
L 65.805733 125.361156 
L 65.737667 124.099085 
L 65.6696 124.637538 
L 65.601534 124.448201 
L 65.533468 123.002505 
L 65.397336 124.432159 
L 65.32927 123.684688 
L 65.261204 123.963154 
L 65.193138 123.698413 
L 64.852808 118.258447 
L 64.784742 117.489629 
L 64.716676 118.976597 
L 64.64861 116.935225 
L 64.580543 117.445949 
L 64.512477 117.851604 
L 64.444411 116.660281 
L 64.376345 117.841353 
L 64.308279 117.409023 
L 64.036015 119.980294 
L 63.967949 121.202612 
L 63.899883 121.183425 
L 63.763751 120.857086 
L 63.627619 122.651776 
L 63.559553 125.033902 
L 63.491486 124.303266 
L 63.42342 121.444444 
L 63.355354 122.539694 
L 63.287288 124.707943 
L 63.219222 123.899957 
L 63.151156 121.85053 
L 63.08309 121.892645 
L 62.946958 123.441592 
L 62.878892 122.564783 
L 62.810826 122.623921 
L 62.74276 123.154822 
L 62.606628 126.1327 
L 62.198231 116.214741 
L 61.994033 120.38807 
L 61.925967 118.565636 
L 61.857901 119.617125 
L 61.789835 119.807387 
L 61.721769 118.906612 
L 61.585637 123.770979 
L 61.517571 123.299069 
L 61.449505 123.951569 
L 61.381439 125.684388 
L 61.109174 121.561578 
L 61.041108 124.233359 
L 60.973042 123.492405 
L 60.904976 122.787452 
L 60.83691 122.795291 
L 60.768844 122.762169 
L 60.632712 120.584643 
L 60.564646 121.201453 
L 60.428514 124.817607 
L 60.020117 115.788379 
L 59.952051 116.497154 
L 59.679787 120.223124 
L 59.611721 119.785368 
L 59.543655 119.15332 
L 59.407523 120.508756 
L 59.339457 120.46267 
L 59.203325 125.77046 
L 59.067192 119.550419 
L 58.999126 120.186089 
L 58.93106 119.868296 
L 58.862994 120.305196 
L 58.726862 123.483701 
L 58.658796 123.156497 
L 58.59073 119.977381 
L 58.522664 120.058947 
L 58.454598 123.417824 
L 58.386532 123.042442 
L 58.2504 119.167943 
L 58.182334 121.123482 
L 58.114268 120.512955 
L 58.046202 118.400057 
L 57.978135 118.686802 
L 57.910069 119.625824 
L 57.842003 122.84309 
L 57.773937 122.739742 
L 57.705871 122.451138 
L 57.637805 122.752325 
L 57.501673 126.417894 
L 57.433607 124.831693 
L 57.297475 124.24071 
L 57.161343 120.57068 
L 57.025211 122.418398 
L 56.889078 120.92997 
L 56.821012 121.937907 
L 56.752946 121.905455 
L 56.68488 121.81351 
L 56.616814 123.087631 
L 56.548748 120.773265 
L 56.480682 121.794735 
L 56.412616 123.693682 
L 56.276484 121.165249 
L 56.140352 124.553585 
L 56.072286 123.793177 
L 56.00422 124.447919 
L 55.868088 121.425191 
L 55.800021 121.518465 
L 55.663889 123.175477 
L 55.595823 121.35368 
L 55.527757 121.828383 
L 55.459691 122.103021 
L 55.391625 120.304756 
L 55.323559 120.646737 
L 55.187427 122.334605 
L 55.051295 121.829014 
L 54.710964 117.291916 
L 54.642898 117.409295 
L 54.4387 121.910763 
L 54.370634 122.527396 
L 54.302568 122.419515 
L 54.09837 120.665735 
L 53.826106 123.230953 
L 53.75804 122.73137 
L 53.621907 124.822801 
L 53.485775 122.545086 
L 53.417709 123.589794 
L 53.213511 118.829409 
L 53.145445 119.572907 
L 53.009313 116.878843 
L 52.737049 119.374414 
L 52.53285 123.964453 
L 52.396718 121.409585 
L 52.260586 123.178761 
L 52.124454 121.413302 
L 52.056388 121.85225 
L 51.988322 120.225487 
L 51.920256 121.059687 
L 51.85219 121.067229 
L 51.784124 118.500507 
L 51.716058 118.940347 
L 51.579926 118.071029 
L 51.375727 122.442327 
L 51.307661 121.283286 
L 51.239595 121.480696 
L 50.967331 125.621505 
L 50.899265 126.576588 
L 50.695067 121.273195 
L 50.627001 122.627408 
L 50.422803 126.017082 
L 50.354736 125.123422 
L 50.218604 120.42102 
L 50.150538 120.855431 
L 49.94634 118.714941 
L 49.810208 121.467453 
L 49.742142 121.093953 
L 49.60601 123.369512 
L 49.469878 120.958036 
L 49.333746 124.761908 
L 49.265679 123.600796 
L 49.061481 120.373304 
L 48.857283 119.261688 
L 48.653085 124.813593 
L 48.585019 124.03492 
L 48.380821 121.281792 
L 48.312755 122.038362 
L 48.244689 120.063519 
L 48.176622 120.626407 
L 48.04049 121.997958 
L 47.972424 121.952488 
L 47.836292 120.368428 
L 47.768226 120.460952 
L 47.564028 121.886073 
L 47.495962 121.140606 
L 47.35983 123.688706 
L 47.223698 120.459124 
L 47.019499 124.026957 
L 46.815301 121.101566 
L 46.679169 124.720074 
L 46.474971 118.452701 
L 46.270773 123.155835 
L 46.202707 122.688775 
L 46.134641 122.845189 
L 45.998508 124.397626 
L 45.930442 121.68731 
L 45.862376 121.931149 
L 45.79431 124.286309 
L 45.726244 123.985233 
L 45.385914 118.513396 
L 45.317848 117.651215 
L 45.249782 117.921776 
L 45.181716 117.376422 
L 45.045584 118.858842 
L 44.909451 116.57104 
L 44.569121 125.262297 
L 44.296857 120.141459 
L 44.228791 120.553275 
L 44.160725 120.325376 
L 44.092659 121.00249 
L 44.024593 120.25199 
L 43.956527 123.177588 
L 43.888461 123.115571 
L 43.752328 122.578949 
L 43.684262 122.732637 
L 43.54813 122.076736 
L 43.480064 120.917608 
L 43.411998 121.060325 
L 43.275866 122.637402 
L 43.2078 120.625393 
L 43.139734 121.204424 
L 43.071668 121.235976 
L 43.003602 120.55838 
L 42.935536 121.539016 
L 42.86747 121.225285 
L 42.663271 119.044575 
L 42.527139 120.058541 
L 42.459073 119.129395 
L 42.391007 120.979383 
L 42.322941 120.872923 
L 42.050677 123.734111 
L 41.982611 122.799365 
L 41.914545 123.397138 
L 41.846479 123.350133 
L 41.710347 120.397648 
L 41.642281 120.42319 
L 41.506148 125.532229 
L 41.438082 124.12914 
L 41.30195 118.522393 
L 41.029686 124.506014 
L 40.96162 123.606763 
L 40.893554 120.985374 
L 40.757422 123.773016 
L 40.553224 122.752283 
L 40.485157 122.887879 
L 40.349025 121.169309 
L 40.212893 117.707236 
L 40.144827 118.462271 
L 39.940629 125.332529 
L 39.668365 121.260116 
L 39.600299 123.161878 
L 39.532233 123.110794 
L 39.464167 120.26868 
L 39.3961 120.799817 
L 39.328034 122.518768 
L 39.191902 120.652493 
L 39.05577 121.731794 
L 38.919638 119.363781 
L 38.851572 119.905856 
L 38.783506 119.601825 
L 38.71544 118.773362 
L 38.647374 118.846404 
L 38.579308 120.165586 
L 38.511242 118.708113 
L 38.307043 123.14303 
L 38.238977 122.346768 
L 38.170911 122.430246 
L 38.034779 124.340172 
L 37.830581 121.978944 
L 37.694449 125.617362 
L 37.626383 124.428609 
L 37.558317 126.542771 
L 37.490251 125.260949 
L 37.422185 123.364407 
L 37.354119 123.390062 
L 37.286053 123.087985 
L 37.217986 121.44616 
L 37.14992 121.940365 
L 37.013788 123.260028 
L 36.945722 123.36401 
L 36.877656 124.912029 
L 36.673458 120.361419 
L 36.537326 123.235456 
L 36.401194 120.964838 
L 36.265062 122.824407 
L 36.196996 122.682948 
L 36.128929 121.907045 
L 36.060863 119.753905 
L 35.992797 120.047601 
L 35.924731 120.181132 
L 35.788599 123.340074 
L 35.652467 122.486843 
L 35.516335 124.066896 
L 35.380203 124.868462 
L 35.312137 124.363182 
L 35.244071 122.805446 
L 35.176005 122.977821 
L 35.107939 123.182104 
L 35.039872 122.709415 
L 34.835674 124.268476 
L 34.699542 121.964227 
L 34.631476 122.180792 
L 34.291146 126.184074 
L 34.018882 121.789031 
L 33.950815 121.268879 
L 33.882749 121.555612 
L 33.814683 121.279964 
L 33.746617 121.49049 
L 33.678551 122.643489 
L 33.542419 117.96737 
L 33.338221 121.950212 
L 33.270155 121.130767 
L 33.202089 117.558844 
L 33.134023 117.689611 
L 32.997891 120.935271 
L 32.929825 121.461741 
L 32.861758 120.416097 
L 32.725626 121.478085 
L 32.453362 118.984973 
L 32.31723 121.605222 
L 32.249164 123.569581 
L 32.181098 122.990458 
L 32.044966 120.893092 
L 31.9769 121.149997 
L 31.908834 122.056255 
L 31.704635 118.604236 
L 31.636569 119.671754 
L 31.500437 123.316551 
L 31.364305 120.536321 
L 31.296239 121.40187 
L 31.228173 123.299546 
L 31.160107 122.573569 
L 31.092041 122.535507 
L 30.955909 124.049685 
L 30.819777 126.785109 
L 30.751711 126.294073 
L 30.41138 120.253507 
L 30.343314 120.839715 
L 30.275248 119.590695 
L 30.207182 120.28846 
L 30.07105 124.486724 
L 30.002984 123.797529 
L 29.866852 118.825538 
L 29.798786 118.963129 
L 29.73072 119.669241 
L 29.73072 119.669241 
" style="fill:none;stroke:#084a91;stroke-linecap:square;stroke-width:1.5;"/>
   </g>
   <g id="patch_3">
    <path d="M 29.763 133.56 
L 29.763 18.3168 
" style="fill:none;stroke:#000000;stroke-linecap:square;stroke-linejoin:miter;stroke-width:0.8;"/>
   </g>
   <g id="patch_4">
    <path d="M 29.763 133.56 
L 214.2936 133.56 
" style="fill:none;stroke:#000000;stroke-linecap:square;stroke-linejoin:miter;stroke-width:0.8;"/>
   </g>
  </g>
 </g>
 <defs>
  <clipPath id="p8eb338125b">
   <rect height="115.2432" width="184.5306" x="29.763" y="18.3168"/>
  </clipPath>
 </defs>
</svg>
