<?xml version="1.0" encoding="utf-8" standalone="no"?>
<!DOCTYPE svg PUBLIC "-//W3C//DTD SVG 1.1//EN"
  "http://www.w3.org/Graphics/SVG/1.1/DTD/svg11.dtd">
<!-- Created with matplotlib (https://matplotlib.org/) -->
<svg height="182.924219pt" version="1.1" viewBox="0 0 226.724202 182.924219" width="226.724202pt" xmlns="http://www.w3.org/2000/svg" xmlns:xlink="http://www.w3.org/1999/xlink">
 <metadata>
  <rdf:RDF xmlns:cc="http://creativecommons.org/ns#" xmlns:dc="http://purl.org/dc/elements/1.1/" xmlns:rdf="http://www.w3.org/1999/02/22-rdf-syntax-ns#">
   <cc:Work>
    <dc:type rdf:resource="http://purl.org/dc/dcmitype/StillImage"/>
    <dc:date>2024-02-21T12:38:07.415411</dc:date>
    <dc:format>image/svg+xml</dc:format>
    <dc:creator>
     <cc:Agent>
      <dc:title>Matplotlib v3.3.4, https://matplotlib.org/</dc:title>
     </cc:Agent>
    </dc:creator>
   </cc:Work>
  </rdf:RDF>
 </metadata>
 <defs>
  <style type="text/css">*{stroke-linecap:butt;stroke-linejoin:round;}</style>
 </defs>
 <g id="figure_1">
  <g id="patch_1">
   <path d="M 0 182.924219 
L 226.724202 182.924219 
L 226.724202 0 
L 0 0 
z
" style="fill:none;"/>
  </g>
  <g id="axes_1">
   <g id="patch_2">
    <path d="M 46.80625 144.278906 
L 219.01025 144.278906 
L 219.01025 10.778906 
L 46.80625 10.778906 
z
" style="fill:none;"/>
   </g>
   <g id="line2d_1">
    <path clip-path="url(#p6721e62d7c)" d="M 54.633705 142.996713 
L 68.86544 135.049628 
L 84.67848 126.219535 
L 100.491519 117.389441 
L 116.304559 108.559347 
L 132.117598 99.729253 
L 147.930638 90.89916 
L 163.743677 82.069066 
L 179.556716 73.238972 
L 195.369756 64.408879 
L 211.182795 55.578785 
" style="fill:none;stroke:#808080;stroke-linecap:square;stroke-width:1.5;"/>
   </g>
   <g id="PathCollection_1">
    <defs>
     <path d="M 0 3 
C 0.795609 3 1.55874 2.683901 2.12132 2.12132 
C 2.683901 1.55874 3 0.795609 3 0 
C 3 -0.795609 2.683901 -1.55874 2.12132 -2.12132 
C 1.55874 -2.683901 0.795609 -3 0 -3 
C -0.795609 -3 -1.55874 -2.683901 -2.12132 -2.12132 
C -2.683901 -1.55874 -3 -0.795609 -3 0 
C -3 0.795609 -2.683901 1.55874 -2.12132 2.12132 
C -1.55874 2.683901 -0.795609 3 0 3 
z
" id="m83fc0fe63d" style="stroke:#94c4df;"/>
    </defs>
    <g clip-path="url(#p6721e62d7c)">
     <use style="fill:#94c4df;stroke:#94c4df;" x="54.633705" xlink:href="#m83fc0fe63d" y="144.145291"/>
    </g>
   </g>
   <g id="PathCollection_2">
    <defs>
     <path d="M 0 3 
C 0.795609 3 1.55874 2.683901 2.12132 2.12132 
C 2.683901 1.55874 3 0.795609 3 0 
C 3 -0.795609 2.683901 -1.55874 2.12132 -2.12132 
C 1.55874 -2.683901 0.795609 -3 0 -3 
C -0.795609 -3 -1.55874 -2.683901 -2.12132 -2.12132 
C -2.683901 -1.55874 -3 -0.795609 -3 0 
C -3 0.795609 -2.683901 1.55874 -2.12132 2.12132 
C -1.55874 2.683901 -0.795609 3 0 3 
z
" id="m5d94073d4e" style="stroke:#7db8da;"/>
    </defs>
    <g clip-path="url(#p6721e62d7c)">
     <use style="fill:#7db8da;stroke:#7db8da;" x="68.86544" xlink:href="#m5d94073d4e" y="136.187778"/>
    </g>
   </g>
   <g id="PathCollection_3">
    <defs>
     <path d="M 0 3 
C 0.795609 3 1.55874 2.683901 2.12132 2.12132 
C 2.683901 1.55874 3 0.795609 3 0 
C 3 -0.795609 2.683901 -1.55874 2.12132 -2.12132 
C 1.55874 -2.683901 0.795609 -3 0 -3 
C -0.795609 -3 -1.55874 -2.683901 -2.12132 -2.12132 
C -2.683901 -1.55874 -3 -0.795609 -3 0 
C -3 0.795609 -2.683901 1.55874 -2.12132 2.12132 
C -1.55874 2.683901 -0.795609 3 0 3 
z
" id="m4539a46ac7" style="stroke:#68acd5;"/>
    </defs>
    <g clip-path="url(#p6721e62d7c)">
     <use style="fill:#68acd5;stroke:#68acd5;" x="84.67848" xlink:href="#m4539a46ac7" y="125.63071"/>
    </g>
   </g>
   <g id="PathCollection_4">
    <defs>
     <path d="M 0 3 
C 0.795609 3 1.55874 2.683901 2.12132 2.12132 
C 2.683901 1.55874 3 0.795609 3 0 
C 3 -0.795609 2.683901 -1.55874 2.12132 -2.12132 
C 1.55874 -2.683901 0.795609 -3 0 -3 
C -0.795609 -3 -1.55874 -2.683901 -2.12132 -2.12132 
C -2.683901 -1.55874 -3 -0.795609 -3 0 
C -3 0.795609 -2.683901 1.55874 -2.12132 2.12132 
C -1.55874 2.683901 -0.795609 3 0 3 
z
" id="m25eef08e2d" style="stroke:#56a0ce;"/>
    </defs>
    <g clip-path="url(#p6721e62d7c)">
     <use style="fill:#56a0ce;stroke:#56a0ce;" x="100.491519" xlink:href="#m25eef08e2d" y="117.955223"/>
    </g>
   </g>
   <g id="PathCollection_5">
    <defs>
     <path d="M 0 3 
C 0.795609 3 1.55874 2.683901 2.12132 2.12132 
C 2.683901 1.55874 3 0.795609 3 0 
C 3 -0.795609 2.683901 -1.55874 2.12132 -2.12132 
C 1.55874 -2.683901 0.795609 -3 0 -3 
C -0.795609 -3 -1.55874 -2.683901 -2.12132 -2.12132 
C -2.683901 -1.55874 -3 -0.795609 -3 0 
C -3 0.795609 -2.683901 1.55874 -2.12132 2.12132 
C -1.55874 2.683901 -0.795609 3 0 3 
z
" id="m1ee5afee71" style="stroke:#4493c7;"/>
    </defs>
    <g clip-path="url(#p6721e62d7c)">
     <use style="fill:#4493c7;stroke:#4493c7;" x="116.304559" xlink:href="#m1ee5afee71" y="108.181599"/>
    </g>
   </g>
   <g id="PathCollection_6">
    <defs>
     <path d="M 0 3 
C 0.795609 3 1.55874 2.683901 2.12132 2.12132 
C 2.683901 1.55874 3 0.795609 3 0 
C 3 -0.795609 2.683901 -1.55874 2.12132 -2.12132 
C 1.55874 -2.683901 0.795609 -3 0 -3 
C -0.795609 -3 -1.55874 -2.683901 -2.12132 -2.12132 
C -2.683901 -1.55874 -3 -0.795609 -3 0 
C -3 0.795609 -2.683901 1.55874 -2.12132 2.12132 
C -1.55874 2.683901 -0.795609 3 0 3 
z
" id="m1bcdfcc626" style="stroke:#3585bf;"/>
    </defs>
    <g clip-path="url(#p6721e62d7c)">
     <use style="fill:#3585bf;stroke:#3585bf;" x="132.117598" xlink:href="#m1bcdfcc626" y="98.421252"/>
    </g>
   </g>
   <g id="PathCollection_7">
    <defs>
     <path d="M 0 3 
C 0.795609 3 1.55874 2.683901 2.12132 2.12132 
C 2.683901 1.55874 3 0.795609 3 0 
C 3 -0.795609 2.683901 -1.55874 2.12132 -2.12132 
C 1.55874 -2.683901 0.795609 -3 0 -3 
C -0.795609 -3 -1.55874 -2.683901 -2.12132 -2.12132 
C -2.683901 -1.55874 -3 -0.795609 -3 0 
C -3 0.795609 -2.683901 1.55874 -2.12132 2.12132 
C -1.55874 2.683901 -0.795609 3 0 3 
z
" id="mbfbb2f5da9" style="stroke:#2676b8;"/>
    </defs>
    <g clip-path="url(#p6721e62d7c)">
     <use style="fill:#2676b8;stroke:#2676b8;" x="147.930638" xlink:href="#mbfbb2f5da9" y="88.391557"/>
    </g>
   </g>
   <g id="PathCollection_8">
    <defs>
     <path d="M 0 3 
C 0.795609 3 1.55874 2.683901 2.12132 2.12132 
C 2.683901 1.55874 3 0.795609 3 0 
C 3 -0.795609 2.683901 -1.55874 2.12132 -2.12132 
C 1.55874 -2.683901 0.795609 -3 0 -3 
C -0.795609 -3 -1.55874 -2.683901 -2.12132 -2.12132 
C -2.683901 -1.55874 -3 -0.795609 -3 0 
C -3 0.795609 -2.683901 1.55874 -2.12132 2.12132 
C -1.55874 2.683901 -0.795609 3 0 3 
z
" id="m123a3b7c58" style="stroke:#1a68ae;"/>
    </defs>
    <g clip-path="url(#p6721e62d7c)">
     <use style="fill:#1a68ae;stroke:#1a68ae;" x="163.743677" xlink:href="#m123a3b7c58" y="83.268635"/>
    </g>
   </g>
   <g id="PathCollection_9">
    <defs>
     <path d="M 0 3 
C 0.795609 3 1.55874 2.683901 2.12132 2.12132 
C 2.683901 1.55874 3 0.795609 3 0 
C 3 -0.795609 2.683901 -1.55874 2.12132 -2.12132 
C 1.55874 -2.683901 0.795609 -3 0 -3 
C -0.795609 -3 -1.55874 -2.683901 -2.12132 -2.12132 
C -2.683901 -1.55874 -3 -0.795609 -3 0 
C -3 0.795609 -2.683901 1.55874 -2.12132 2.12132 
C -1.55874 2.683901 -0.795609 3 0 3 
z
" id="m2797024703" style="stroke:#0f5aa3;"/>
    </defs>
    <g clip-path="url(#p6721e62d7c)">
     <use style="fill:#0f5aa3;stroke:#0f5aa3;" x="179.556716" xlink:href="#m2797024703" y="69.32989"/>
    </g>
   </g>
   <g id="PathCollection_10">
    <defs>
     <path d="M 0 3 
C 0.795609 3 1.55874 2.683901 2.12132 2.12132 
C 2.683901 1.55874 3 0.795609 3 0 
C 3 -0.795609 2.683901 -1.55874 2.12132 -2.12132 
C 1.55874 -2.683901 0.795609 -3 0 -3 
C -0.795609 -3 -1.55874 -2.683901 -2.12132 -2.12132 
C -2.683901 -1.55874 -3 -0.795609 -3 0 
C -3 0.795609 -2.683901 1.55874 -2.12132 2.12132 
C -1.55874 2.683901 -0.795609 3 0 3 
z
" id="m5ee6def826" style="stroke:#084c95;"/>
    </defs>
    <g clip-path="url(#p6721e62d7c)">
     <use style="fill:#084c95;stroke:#084c95;" x="195.369756" xlink:href="#m5ee6def826" y="66.601084"/>
    </g>
   </g>
   <g id="PathCollection_11">
    <defs>
     <path d="M 0 3 
C 0.795609 3 1.55874 2.683901 2.12132 2.12132 
C 2.683901 1.55874 3 0.795609 3 0 
C 3 -0.795609 2.683901 -1.55874 2.12132 -2.12132 
C 1.55874 -2.683901 0.795609 -3 0 -3 
C -0.795609 -3 -1.55874 -2.683901 -2.12132 -2.12132 
C -2.683901 -1.55874 -3 -0.795609 -3 0 
C -3 0.795609 -2.683901 1.55874 -2.12132 2.12132 
C -1.55874 2.683901 -0.795609 3 0 3 
z
" id="m82a96be9fa" style="stroke:#083d7f;"/>
    </defs>
    <g clip-path="url(#p6721e62d7c)">
     <use style="fill:#083d7f;stroke:#083d7f;" x="211.182795" xlink:href="#m82a96be9fa" y="58.025758"/>
    </g>
   </g>
   <g id="matplotlib.axis_1">
    <g id="xtick_1">
     <g id="line2d_2">
      <defs>
       <path d="M 0 0 
L 0 3.5 
" id="ma6256bed8e" style="stroke:#000000;stroke-width:0.8;"/>
      </defs>
      <g>
       <use style="stroke:#000000;stroke-width:0.8;" x="53.052401" xlink:href="#ma6256bed8e" y="144.278906"/>
      </g>
     </g>
     <g id="text_1">
      <!-- 0 -->
      <g transform="translate(50.271932 158.436719)scale(0.1 -0.1)">
       <defs>
        <path d="M 4.15625 35.296875 
Q 4.15625 48 6.765625 55.734375 
Q 9.375 63.484375 14.515625 67.671875 
Q 19.671875 71.875 27.484375 71.875 
Q 33.25 71.875 37.59375 69.546875 
Q 41.9375 67.234375 44.765625 62.859375 
Q 47.609375 58.5 49.21875 52.21875 
Q 50.828125 45.953125 50.828125 35.296875 
Q 50.828125 22.703125 48.234375 14.96875 
Q 45.65625 7.234375 40.5 3 
Q 35.359375 -1.21875 27.484375 -1.21875 
Q 17.140625 -1.21875 11.234375 6.203125 
Q 4.15625 15.140625 4.15625 35.296875 
z
M 13.1875 35.296875 
Q 13.1875 17.671875 17.3125 11.828125 
Q 21.4375 6 27.484375 6 
Q 33.546875 6 37.671875 11.859375 
Q 41.796875 17.71875 41.796875 35.296875 
Q 41.796875 52.984375 37.671875 58.78125 
Q 33.546875 64.59375 27.390625 64.59375 
Q 21.34375 64.59375 17.71875 59.46875 
Q 13.1875 52.9375 13.1875 35.296875 
z
" id="ArialMT-48"/>
       </defs>
       <use xlink:href="#ArialMT-48"/>
      </g>
     </g>
    </g>
    <g id="xtick_2">
     <g id="line2d_3">
      <g>
       <use style="stroke:#000000;stroke-width:0.8;" x="92.584999" xlink:href="#ma6256bed8e" y="144.278906"/>
      </g>
     </g>
     <g id="text_2">
      <!-- 25 -->
      <g transform="translate(87.024062 158.436719)scale(0.1 -0.1)">
       <defs>
        <path d="M 50.34375 8.453125 
L 50.34375 0 
L 3.03125 0 
Q 2.9375 3.171875 4.046875 6.109375 
Q 5.859375 10.9375 9.828125 15.625 
Q 13.8125 20.3125 21.34375 26.46875 
Q 33.015625 36.03125 37.109375 41.625 
Q 41.21875 47.21875 41.21875 52.203125 
Q 41.21875 57.421875 37.46875 61 
Q 33.734375 64.59375 27.734375 64.59375 
Q 21.390625 64.59375 17.578125 60.78125 
Q 13.765625 56.984375 13.71875 50.25 
L 4.6875 51.171875 
Q 5.609375 61.28125 11.65625 66.578125 
Q 17.71875 71.875 27.9375 71.875 
Q 38.234375 71.875 44.234375 66.15625 
Q 50.25 60.453125 50.25 52 
Q 50.25 47.703125 48.484375 43.546875 
Q 46.734375 39.40625 42.65625 34.8125 
Q 38.578125 30.21875 29.109375 22.21875 
Q 21.1875 15.578125 18.9375 13.203125 
Q 16.703125 10.84375 15.234375 8.453125 
z
" id="ArialMT-50"/>
        <path d="M 4.15625 18.75 
L 13.375 19.53125 
Q 14.40625 12.796875 18.140625 9.390625 
Q 21.875 6 27.15625 6 
Q 33.5 6 37.890625 10.78125 
Q 42.28125 15.578125 42.28125 23.484375 
Q 42.28125 31 38.0625 35.34375 
Q 33.84375 39.703125 27 39.703125 
Q 22.75 39.703125 19.328125 37.765625 
Q 15.921875 35.84375 13.96875 32.765625 
L 5.71875 33.84375 
L 12.640625 70.609375 
L 48.25 70.609375 
L 48.25 62.203125 
L 19.671875 62.203125 
L 15.828125 42.96875 
Q 22.265625 47.46875 29.34375 47.46875 
Q 38.71875 47.46875 45.15625 40.96875 
Q 51.609375 34.46875 51.609375 24.265625 
Q 51.609375 14.546875 45.953125 7.46875 
Q 39.0625 -1.21875 27.15625 -1.21875 
Q 17.390625 -1.21875 11.203125 4.25 
Q 5.03125 9.71875 4.15625 18.75 
z
" id="ArialMT-53"/>
       </defs>
       <use xlink:href="#ArialMT-50"/>
       <use x="55.615234" xlink:href="#ArialMT-53"/>
      </g>
     </g>
    </g>
    <g id="xtick_3">
     <g id="line2d_4">
      <g>
       <use style="stroke:#000000;stroke-width:0.8;" x="132.117598" xlink:href="#ma6256bed8e" y="144.278906"/>
      </g>
     </g>
     <g id="text_3">
      <!-- 50 -->
      <g transform="translate(126.556661 158.436719)scale(0.1 -0.1)">
       <use xlink:href="#ArialMT-53"/>
       <use x="55.615234" xlink:href="#ArialMT-48"/>
      </g>
     </g>
    </g>
    <g id="xtick_4">
     <g id="line2d_5">
      <g>
       <use style="stroke:#000000;stroke-width:0.8;" x="171.650197" xlink:href="#ma6256bed8e" y="144.278906"/>
      </g>
     </g>
     <g id="text_4">
      <!-- 75 -->
      <g transform="translate(166.089259 158.436719)scale(0.1 -0.1)">
       <defs>
        <path d="M 4.734375 62.203125 
L 4.734375 70.65625 
L 51.078125 70.65625 
L 51.078125 63.8125 
Q 44.234375 56.546875 37.515625 44.484375 
Q 30.8125 32.421875 27.15625 19.671875 
Q 24.515625 10.6875 23.78125 0 
L 14.75 0 
Q 14.890625 8.453125 18.0625 20.40625 
Q 21.234375 32.375 27.171875 43.484375 
Q 33.109375 54.59375 39.796875 62.203125 
z
" id="ArialMT-55"/>
       </defs>
       <use xlink:href="#ArialMT-55"/>
       <use x="55.615234" xlink:href="#ArialMT-53"/>
      </g>
     </g>
    </g>
    <g id="xtick_5">
     <g id="line2d_6">
      <g>
       <use style="stroke:#000000;stroke-width:0.8;" x="211.182795" xlink:href="#ma6256bed8e" y="144.278906"/>
      </g>
     </g>
     <g id="text_5">
      <!-- 100 -->
      <g transform="translate(202.841389 158.436719)scale(0.1 -0.1)">
       <defs>
        <path d="M 37.25 0 
L 28.46875 0 
L 28.46875 56 
Q 25.296875 52.984375 20.140625 49.953125 
Q 14.984375 46.921875 10.890625 45.40625 
L 10.890625 53.90625 
Q 18.265625 57.375 23.78125 62.296875 
Q 29.296875 67.234375 31.59375 71.875 
L 37.25 71.875 
z
" id="ArialMT-49"/>
       </defs>
       <use xlink:href="#ArialMT-49"/>
       <use x="55.615234" xlink:href="#ArialMT-48"/>
       <use x="111.230469" xlink:href="#ArialMT-48"/>
      </g>
     </g>
    </g>
    <g id="text_6">
     <!-- $[^{19}$F$^{-}$] (μM) -->
     <g transform="translate(106.95825 173.524219)scale(0.1 -0.1)">
      <defs>
       <path d="M 8.59375 75.984375 
L 29.296875 75.984375 
L 29.296875 69 
L 17.578125 69 
L 17.578125 -6.203125 
L 29.296875 -6.203125 
L 29.296875 -13.1875 
L 8.59375 -13.1875 
z
" id="DejaVuSans-91"/>
       <path d="M 12.40625 8.296875 
L 28.515625 8.296875 
L 28.515625 63.921875 
L 10.984375 60.40625 
L 10.984375 69.390625 
L 28.421875 72.90625 
L 38.28125 72.90625 
L 38.28125 8.296875 
L 54.390625 8.296875 
L 54.390625 0 
L 12.40625 0 
z
" id="DejaVuSans-49"/>
       <path d="M 10.984375 1.515625 
L 10.984375 10.5 
Q 14.703125 8.734375 18.5 7.8125 
Q 22.3125 6.890625 25.984375 6.890625 
Q 35.75 6.890625 40.890625 13.453125 
Q 46.046875 20.015625 46.78125 33.40625 
Q 43.953125 29.203125 39.59375 26.953125 
Q 35.25 24.703125 29.984375 24.703125 
Q 19.046875 24.703125 12.671875 31.3125 
Q 6.296875 37.9375 6.296875 49.421875 
Q 6.296875 60.640625 12.9375 67.421875 
Q 19.578125 74.21875 30.609375 74.21875 
Q 43.265625 74.21875 49.921875 64.515625 
Q 56.59375 54.828125 56.59375 36.375 
Q 56.59375 19.140625 48.40625 8.859375 
Q 40.234375 -1.421875 26.421875 -1.421875 
Q 22.703125 -1.421875 18.890625 -0.6875 
Q 15.09375 0.046875 10.984375 1.515625 
z
M 30.609375 32.421875 
Q 37.25 32.421875 41.125 36.953125 
Q 45.015625 41.5 45.015625 49.421875 
Q 45.015625 57.28125 41.125 61.84375 
Q 37.25 66.40625 30.609375 66.40625 
Q 23.96875 66.40625 20.09375 61.84375 
Q 16.21875 57.28125 16.21875 49.421875 
Q 16.21875 41.5 20.09375 36.953125 
Q 23.96875 32.421875 30.609375 32.421875 
z
" id="DejaVuSans-57"/>
       <path d="M 8.203125 0 
L 8.203125 71.578125 
L 56.5 71.578125 
L 56.5 63.140625 
L 17.671875 63.140625 
L 17.671875 40.96875 
L 51.265625 40.96875 
L 51.265625 32.515625 
L 17.671875 32.515625 
L 17.671875 0 
z
" id="ArialMT-70"/>
       <path d="M 10.59375 35.5 
L 73.1875 35.5 
L 73.1875 27.203125 
L 10.59375 27.203125 
z
" id="DejaVuSans-8722"/>
       <path d="M 21.296875 -19.875 
L 1.90625 -19.875 
L 1.90625 -12.59375 
L 12.5 -12.59375 
L 12.5 64.3125 
L 1.90625 64.3125 
L 1.90625 71.578125 
L 21.296875 71.578125 
z
" id="ArialMT-93"/>
       <path id="ArialMT-32"/>
       <path d="M 23.390625 -21.046875 
Q 16.109375 -11.859375 11.078125 0.4375 
Q 6.0625 12.75 6.0625 25.921875 
Q 6.0625 37.546875 9.8125 48.1875 
Q 14.203125 60.546875 23.390625 72.796875 
L 29.6875 72.796875 
Q 23.78125 62.640625 21.875 58.296875 
Q 18.890625 51.5625 17.1875 44.234375 
Q 15.09375 35.109375 15.09375 25.875 
Q 15.09375 2.390625 29.6875 -21.046875 
z
" id="ArialMT-40"/>
       <path d="M 49.703125 51.859375 
L 49.703125 0 
L 41.84375 0 
L 41.84375 6.15625 
Q 39.3125 2.25 36.8125 0.78125 
Q 33.40625 -1.21875 28.859375 -1.21875 
Q 24.8125 -1.21875 21.6875 0.390625 
Q 19.34375 1.609375 16.5 5.21875 
L 16.5 -19.875 
L 7.8125 -19.875 
L 7.8125 51.859375 
L 16.5 51.859375 
L 16.5 29.890625 
Q 16.5 17.921875 17.765625 14.375 
Q 19.046875 10.84375 21.890625 8.78125 
Q 24.75 6.734375 28.46875 6.734375 
Q 32.375 6.734375 35.453125 8.875 
Q 38.53125 11.03125 39.796875 14.421875 
Q 41.0625 17.828125 41.0625 29.734375 
L 41.0625 51.859375 
z
" id="ArialMT-956"/>
       <path d="M 7.421875 0 
L 7.421875 71.578125 
L 21.6875 71.578125 
L 38.625 20.90625 
Q 40.96875 13.8125 42.046875 10.296875 
Q 43.265625 14.203125 45.84375 21.78125 
L 62.984375 71.578125 
L 75.734375 71.578125 
L 75.734375 0 
L 66.609375 0 
L 66.609375 59.90625 
L 45.796875 0 
L 37.25 0 
L 16.546875 60.9375 
L 16.546875 0 
z
" id="ArialMT-77"/>
       <path d="M 12.359375 -21.046875 
L 6.0625 -21.046875 
Q 20.65625 2.390625 20.65625 25.875 
Q 20.65625 35.0625 18.5625 44.09375 
Q 16.890625 51.421875 13.921875 58.15625 
Q 12.015625 62.546875 6.0625 72.796875 
L 12.359375 72.796875 
Q 21.53125 60.546875 25.921875 48.1875 
Q 29.6875 37.546875 29.6875 25.921875 
Q 29.6875 12.75 24.625 0.4375 
Q 19.578125 -11.859375 12.359375 -21.046875 
z
" id="ArialMT-41"/>
      </defs>
      <use transform="translate(0 0.765625)" xlink:href="#DejaVuSans-91"/>
      <use transform="translate(39.970703 39.046875)scale(0.7)" xlink:href="#DejaVuSans-49"/>
      <use transform="translate(84.506836 39.046875)scale(0.7)" xlink:href="#DejaVuSans-57"/>
      <use transform="translate(131.777344 0.765625)" xlink:href="#ArialMT-70"/>
      <use transform="translate(193.818359 39.046875)scale(0.7)" xlink:href="#DejaVuSans-8722"/>
      <use transform="translate(255.205078 0.765625)" xlink:href="#ArialMT-93"/>
      <use transform="translate(282.988281 0.765625)" xlink:href="#ArialMT-32"/>
      <use transform="translate(310.771484 0.765625)" xlink:href="#ArialMT-40"/>
      <use transform="translate(344.072266 0.765625)" xlink:href="#ArialMT-956"/>
      <use transform="translate(401.689453 0.765625)" xlink:href="#ArialMT-77"/>
      <use transform="translate(484.990234 0.765625)" xlink:href="#ArialMT-41"/>
     </g>
    </g>
   </g>
   <g id="matplotlib.axis_2">
    <g id="ytick_1">
     <g id="line2d_7">
      <defs>
       <path d="M 0 0 
L -3.5 0 
" id="m74891d5b88" style="stroke:#000000;stroke-width:0.8;"/>
      </defs>
      <g>
       <use style="stroke:#000000;stroke-width:0.8;" x="46.80625" xlink:href="#m74891d5b88" y="144.278906"/>
      </g>
     </g>
     <g id="text_7">
      <!-- 0.00 -->
      <g transform="translate(20.345313 147.857812)scale(0.1 -0.1)">
       <defs>
        <path d="M 9.078125 0 
L 9.078125 10.015625 
L 19.09375 10.015625 
L 19.09375 0 
z
" id="ArialMT-46"/>
       </defs>
       <use xlink:href="#ArialMT-48"/>
       <use x="55.615234" xlink:href="#ArialMT-46"/>
       <use x="83.398438" xlink:href="#ArialMT-48"/>
       <use x="139.013672" xlink:href="#ArialMT-48"/>
      </g>
     </g>
    </g>
    <g id="ytick_2">
     <g id="line2d_8">
      <g>
       <use style="stroke:#000000;stroke-width:0.8;" x="46.80625" xlink:href="#m74891d5b88" y="122.028906"/>
      </g>
     </g>
     <g id="text_8">
      <!-- 0.25 -->
      <g transform="translate(20.345313 125.607812)scale(0.1 -0.1)">
       <use xlink:href="#ArialMT-48"/>
       <use x="55.615234" xlink:href="#ArialMT-46"/>
       <use x="83.398438" xlink:href="#ArialMT-50"/>
       <use x="139.013672" xlink:href="#ArialMT-53"/>
      </g>
     </g>
    </g>
    <g id="ytick_3">
     <g id="line2d_9">
      <g>
       <use style="stroke:#000000;stroke-width:0.8;" x="46.80625" xlink:href="#m74891d5b88" y="99.778906"/>
      </g>
     </g>
     <g id="text_9">
      <!-- 0.50 -->
      <g transform="translate(20.345313 103.357812)scale(0.1 -0.1)">
       <use xlink:href="#ArialMT-48"/>
       <use x="55.615234" xlink:href="#ArialMT-46"/>
       <use x="83.398438" xlink:href="#ArialMT-53"/>
       <use x="139.013672" xlink:href="#ArialMT-48"/>
      </g>
     </g>
    </g>
    <g id="ytick_4">
     <g id="line2d_10">
      <g>
       <use style="stroke:#000000;stroke-width:0.8;" x="46.80625" xlink:href="#m74891d5b88" y="77.528906"/>
      </g>
     </g>
     <g id="text_10">
      <!-- 0.75 -->
      <g transform="translate(20.345313 81.107812)scale(0.1 -0.1)">
       <use xlink:href="#ArialMT-48"/>
       <use x="55.615234" xlink:href="#ArialMT-46"/>
       <use x="83.398438" xlink:href="#ArialMT-55"/>
       <use x="139.013672" xlink:href="#ArialMT-53"/>
      </g>
     </g>
    </g>
    <g id="ytick_5">
     <g id="line2d_11">
      <g>
       <use style="stroke:#000000;stroke-width:0.8;" x="46.80625" xlink:href="#m74891d5b88" y="55.278906"/>
      </g>
     </g>
     <g id="text_11">
      <!-- 1.00 -->
      <g transform="translate(20.345313 58.857812)scale(0.1 -0.1)">
       <use xlink:href="#ArialMT-49"/>
       <use x="55.615234" xlink:href="#ArialMT-46"/>
       <use x="83.398438" xlink:href="#ArialMT-48"/>
       <use x="139.013672" xlink:href="#ArialMT-48"/>
      </g>
     </g>
    </g>
    <g id="ytick_6">
     <g id="line2d_12">
      <g>
       <use style="stroke:#000000;stroke-width:0.8;" x="46.80625" xlink:href="#m74891d5b88" y="33.028906"/>
      </g>
     </g>
     <g id="text_12">
      <!-- 1.25 -->
      <g transform="translate(20.345313 36.607812)scale(0.1 -0.1)">
       <use xlink:href="#ArialMT-49"/>
       <use x="55.615234" xlink:href="#ArialMT-46"/>
       <use x="83.398438" xlink:href="#ArialMT-50"/>
       <use x="139.013672" xlink:href="#ArialMT-53"/>
      </g>
     </g>
    </g>
    <g id="ytick_7">
     <g id="line2d_13">
      <g>
       <use style="stroke:#000000;stroke-width:0.8;" x="46.80625" xlink:href="#m74891d5b88" y="10.778906"/>
      </g>
     </g>
     <g id="text_13">
      <!-- 1.50 -->
      <g transform="translate(20.345313 14.357812)scale(0.1 -0.1)">
       <use xlink:href="#ArialMT-49"/>
       <use x="55.615234" xlink:href="#ArialMT-46"/>
       <use x="83.398438" xlink:href="#ArialMT-53"/>
       <use x="139.013672" xlink:href="#ArialMT-48"/>
      </g>
     </g>
    </g>
    <g id="text_14">
     <!-- $a/a_{100}$ -->
     <g transform="translate(14.357813 92.178906)rotate(-90)scale(0.1 -0.1)">
      <defs>
       <path d="M 53.71875 31.203125 
L 47.609375 0 
L 38.625 0 
L 40.28125 8.296875 
Q 36.328125 3.421875 31.265625 1 
Q 26.21875 -1.421875 20.015625 -1.421875 
Q 13.03125 -1.421875 8.5625 2.84375 
Q 4.109375 7.125 4.109375 13.8125 
Q 4.109375 23.390625 11.75 28.953125 
Q 19.390625 34.515625 32.8125 34.515625 
L 45.3125 34.515625 
L 45.796875 36.921875 
Q 45.90625 37.3125 45.953125 37.765625 
Q 46 38.234375 46 39.203125 
Q 46 43.5625 42.453125 45.96875 
Q 38.921875 48.390625 32.515625 48.390625 
Q 28.125 48.390625 23.5 47.265625 
Q 18.890625 46.140625 14.015625 43.890625 
L 15.578125 52.203125 
Q 20.65625 54.109375 25.515625 55.046875 
Q 30.375 56 34.90625 56 
Q 44.578125 56 49.625 51.796875 
Q 54.6875 47.609375 54.6875 39.59375 
Q 54.6875 37.984375 54.4375 35.8125 
Q 54.203125 33.640625 53.71875 31.203125 
z
M 44 27.484375 
L 35.015625 27.484375 
Q 23.96875 27.484375 18.671875 24.53125 
Q 13.375 21.578125 13.375 15.375 
Q 13.375 11.078125 16.078125 8.640625 
Q 18.796875 6.203125 23.578125 6.203125 
Q 30.90625 6.203125 36.375 11.453125 
Q 41.84375 16.703125 43.609375 25.484375 
z
" id="DejaVuSans-Oblique-97"/>
       <path d="M 25.390625 72.90625 
L 33.6875 72.90625 
L 8.296875 -9.28125 
L 0 -9.28125 
z
" id="DejaVuSans-47"/>
       <path d="M 31.78125 66.40625 
Q 24.171875 66.40625 20.328125 58.90625 
Q 16.5 51.421875 16.5 36.375 
Q 16.5 21.390625 20.328125 13.890625 
Q 24.171875 6.390625 31.78125 6.390625 
Q 39.453125 6.390625 43.28125 13.890625 
Q 47.125 21.390625 47.125 36.375 
Q 47.125 51.421875 43.28125 58.90625 
Q 39.453125 66.40625 31.78125 66.40625 
z
M 31.78125 74.21875 
Q 44.046875 74.21875 50.515625 64.515625 
Q 56.984375 54.828125 56.984375 36.375 
Q 56.984375 17.96875 50.515625 8.265625 
Q 44.046875 -1.421875 31.78125 -1.421875 
Q 19.53125 -1.421875 13.0625 8.265625 
Q 6.59375 17.96875 6.59375 36.375 
Q 6.59375 54.828125 13.0625 64.515625 
Q 19.53125 74.21875 31.78125 74.21875 
z
" id="DejaVuSans-48"/>
      </defs>
      <use transform="translate(0 0.09375)" xlink:href="#DejaVuSans-Oblique-97"/>
      <use transform="translate(61.279297 0.09375)" xlink:href="#DejaVuSans-47"/>
      <use transform="translate(94.970703 0.09375)" xlink:href="#DejaVuSans-Oblique-97"/>
      <use transform="translate(156.25 -16.3125)scale(0.7)" xlink:href="#DejaVuSans-49"/>
      <use transform="translate(200.786133 -16.3125)scale(0.7)" xlink:href="#DejaVuSans-48"/>
      <use transform="translate(245.322266 -16.3125)scale(0.7)" xlink:href="#DejaVuSans-48"/>
     </g>
    </g>
   </g>
   <g id="LineCollection_1">
    <path clip-path="url(#p6721e62d7c)" d="M 54.633705 144.145291 
L 54.633705 144.145291 
" style="fill:none;stroke:#94c4df;stroke-width:1.5;"/>
   </g>
   <g id="LineCollection_2">
    <path clip-path="url(#p6721e62d7c)" d="M 68.86544 136.250318 
L 68.86544 136.125238 
" style="fill:none;stroke:#7db8da;stroke-width:1.5;"/>
   </g>
   <g id="LineCollection_3">
    <path clip-path="url(#p6721e62d7c)" d="M 84.67848 125.703625 
L 84.67848 125.557796 
" style="fill:none;stroke:#68acd5;stroke-width:1.5;"/>
   </g>
   <g id="LineCollection_4">
    <path clip-path="url(#p6721e62d7c)" d="M 100.491519 118.038184 
L 100.491519 117.872261 
" style="fill:none;stroke:#56a0ce;stroke-width:1.5;"/>
   </g>
   <g id="LineCollection_5">
    <path clip-path="url(#p6721e62d7c)" d="M 116.304559 108.344307 
L 116.304559 108.018891 
" style="fill:none;stroke:#4493c7;stroke-width:1.5;"/>
   </g>
   <g id="LineCollection_6">
    <path clip-path="url(#p6721e62d7c)" d="M 132.117598 99.301616 
L 132.117598 97.540888 
" style="fill:none;stroke:#3585bf;stroke-width:1.5;"/>
   </g>
   <g id="LineCollection_7">
    <path clip-path="url(#p6721e62d7c)" d="M 147.930638 88.426687 
L 147.930638 88.356428 
" style="fill:none;stroke:#2676b8;stroke-width:1.5;"/>
   </g>
   <g id="LineCollection_8">
    <path clip-path="url(#p6721e62d7c)" d="M 163.743677 83.967096 
L 163.743677 82.570174 
" style="fill:none;stroke:#1a68ae;stroke-width:1.5;"/>
   </g>
   <g id="LineCollection_9">
    <path clip-path="url(#p6721e62d7c)" d="M 179.556716 69.638837 
L 179.556716 69.020943 
" style="fill:none;stroke:#0f5aa3;stroke-width:1.5;"/>
   </g>
   <g id="LineCollection_10">
    <path clip-path="url(#p6721e62d7c)" d="M 195.369756 67.656386 
L 195.369756 65.545783 
" style="fill:none;stroke:#084c95;stroke-width:1.5;"/>
   </g>
   <g id="LineCollection_11">
    <path clip-path="url(#p6721e62d7c)" d="M 211.182795 59.968075 
L 211.182795 56.08344 
" style="fill:none;stroke:#083d7f;stroke-width:1.5;"/>
   </g>
   <g id="line2d_14">
    <defs>
     <path d="M 5 0 
L -5 -0 
" id="m5997aed005" style="stroke:#94c4df;"/>
    </defs>
    <g clip-path="url(#p6721e62d7c)">
     <use style="fill:#94c4df;stroke:#94c4df;" x="54.633705" xlink:href="#m5997aed005" y="144.145291"/>
    </g>
   </g>
   <g id="line2d_15">
    <g clip-path="url(#p6721e62d7c)">
     <use style="fill:#94c4df;stroke:#94c4df;" x="54.633705" xlink:href="#m5997aed005" y="144.145291"/>
    </g>
   </g>
   <g id="line2d_16">
    <defs>
     <path d="M 5 0 
L -5 -0 
" id="m7ca812dbf7" style="stroke:#7db8da;"/>
    </defs>
    <g clip-path="url(#p6721e62d7c)">
     <use style="fill:#7db8da;stroke:#7db8da;" x="68.86544" xlink:href="#m7ca812dbf7" y="136.250318"/>
    </g>
   </g>
   <g id="line2d_17">
    <g clip-path="url(#p6721e62d7c)">
     <use style="fill:#7db8da;stroke:#7db8da;" x="68.86544" xlink:href="#m7ca812dbf7" y="136.125238"/>
    </g>
   </g>
   <g id="line2d_18">
    <defs>
     <path d="M 5 0 
L -5 -0 
" id="meab57dbdd1" style="stroke:#68acd5;"/>
    </defs>
    <g clip-path="url(#p6721e62d7c)">
     <use style="fill:#68acd5;stroke:#68acd5;" x="84.67848" xlink:href="#meab57dbdd1" y="125.703625"/>
    </g>
   </g>
   <g id="line2d_19">
    <g clip-path="url(#p6721e62d7c)">
     <use style="fill:#68acd5;stroke:#68acd5;" x="84.67848" xlink:href="#meab57dbdd1" y="125.557796"/>
    </g>
   </g>
   <g id="line2d_20">
    <defs>
     <path d="M 5 0 
L -5 -0 
" id="m4363ec63a5" style="stroke:#56a0ce;"/>
    </defs>
    <g clip-path="url(#p6721e62d7c)">
     <use style="fill:#56a0ce;stroke:#56a0ce;" x="100.491519" xlink:href="#m4363ec63a5" y="118.038184"/>
    </g>
   </g>
   <g id="line2d_21">
    <g clip-path="url(#p6721e62d7c)">
     <use style="fill:#56a0ce;stroke:#56a0ce;" x="100.491519" xlink:href="#m4363ec63a5" y="117.872261"/>
    </g>
   </g>
   <g id="line2d_22">
    <defs>
     <path d="M 5 0 
L -5 -0 
" id="m9888f03786" style="stroke:#4493c7;"/>
    </defs>
    <g clip-path="url(#p6721e62d7c)">
     <use style="fill:#4493c7;stroke:#4493c7;" x="116.304559" xlink:href="#m9888f03786" y="108.344307"/>
    </g>
   </g>
   <g id="line2d_23">
    <g clip-path="url(#p6721e62d7c)">
     <use style="fill:#4493c7;stroke:#4493c7;" x="116.304559" xlink:href="#m9888f03786" y="108.018891"/>
    </g>
   </g>
   <g id="line2d_24">
    <defs>
     <path d="M 5 0 
L -5 -0 
" id="md1b916f703" style="stroke:#3585bf;"/>
    </defs>
    <g clip-path="url(#p6721e62d7c)">
     <use style="fill:#3585bf;stroke:#3585bf;" x="132.117598" xlink:href="#md1b916f703" y="99.301616"/>
    </g>
   </g>
   <g id="line2d_25">
    <g clip-path="url(#p6721e62d7c)">
     <use style="fill:#3585bf;stroke:#3585bf;" x="132.117598" xlink:href="#md1b916f703" y="97.540888"/>
    </g>
   </g>
   <g id="line2d_26">
    <defs>
     <path d="M 5 0 
L -5 -0 
" id="m5233147732" style="stroke:#2676b8;"/>
    </defs>
    <g clip-path="url(#p6721e62d7c)">
     <use style="fill:#2676b8;stroke:#2676b8;" x="147.930638" xlink:href="#m5233147732" y="88.426687"/>
    </g>
   </g>
   <g id="line2d_27">
    <g clip-path="url(#p6721e62d7c)">
     <use style="fill:#2676b8;stroke:#2676b8;" x="147.930638" xlink:href="#m5233147732" y="88.356428"/>
    </g>
   </g>
   <g id="line2d_28">
    <defs>
     <path d="M 5 0 
L -5 -0 
" id="mcd0e8cae55" style="stroke:#1a68ae;"/>
    </defs>
    <g clip-path="url(#p6721e62d7c)">
     <use style="fill:#1a68ae;stroke:#1a68ae;" x="163.743677" xlink:href="#mcd0e8cae55" y="83.967096"/>
    </g>
   </g>
   <g id="line2d_29">
    <g clip-path="url(#p6721e62d7c)">
     <use style="fill:#1a68ae;stroke:#1a68ae;" x="163.743677" xlink:href="#mcd0e8cae55" y="82.570174"/>
    </g>
   </g>
   <g id="line2d_30">
    <defs>
     <path d="M 5 0 
L -5 -0 
" id="m721e916356" style="stroke:#0f5aa3;"/>
    </defs>
    <g clip-path="url(#p6721e62d7c)">
     <use style="fill:#0f5aa3;stroke:#0f5aa3;" x="179.556716" xlink:href="#m721e916356" y="69.638837"/>
    </g>
   </g>
   <g id="line2d_31">
    <g clip-path="url(#p6721e62d7c)">
     <use style="fill:#0f5aa3;stroke:#0f5aa3;" x="179.556716" xlink:href="#m721e916356" y="69.020943"/>
    </g>
   </g>
   <g id="line2d_32">
    <defs>
     <path d="M 5 0 
L -5 -0 
" id="m2699c11965" style="stroke:#084c95;"/>
    </defs>
    <g clip-path="url(#p6721e62d7c)">
     <use style="fill:#084c95;stroke:#084c95;" x="195.369756" xlink:href="#m2699c11965" y="67.656386"/>
    </g>
   </g>
   <g id="line2d_33">
    <g clip-path="url(#p6721e62d7c)">
     <use style="fill:#084c95;stroke:#084c95;" x="195.369756" xlink:href="#m2699c11965" y="65.545783"/>
    </g>
   </g>
   <g id="line2d_34">
    <defs>
     <path d="M 5 0 
L -5 -0 
" id="m478e4193f9" style="stroke:#083d7f;"/>
    </defs>
    <g clip-path="url(#p6721e62d7c)">
     <use style="fill:#083d7f;stroke:#083d7f;" x="211.182795" xlink:href="#m478e4193f9" y="59.968075"/>
    </g>
   </g>
   <g id="line2d_35">
    <g clip-path="url(#p6721e62d7c)">
     <use style="fill:#083d7f;stroke:#083d7f;" x="211.182795" xlink:href="#m478e4193f9" y="56.08344"/>
    </g>
   </g>
   <g id="line2d_36">
    <path clip-path="url(#p6721e62d7c)" d="M 59.379492 144.278906 
L 59.379492 140.346637 
" style="fill:none;stroke:#9e9ac8;stroke-linecap:square;stroke-width:1.5;"/>
   </g>
   <g id="line2d_37">
    <path clip-path="url(#p6721e62d7c)" d="M 88.057049 144.278906 
L 88.057049 124.332921 
" style="fill:none;stroke:#5b3495;stroke-linecap:square;stroke-width:1.5;"/>
   </g>
   <g id="line2d_38">
    <path clip-path="url(#p6721e62d7c)" d="M 107.358173 144.278906 
L 107.358173 113.555061 
" style="fill:none;stroke:#3f007d;stroke-linecap:square;stroke-width:1.5;"/>
   </g>
   <g id="patch_3">
    <path d="M 46.80625 144.278906 
L 46.80625 10.778906 
" style="fill:none;stroke:#000000;stroke-linecap:square;stroke-linejoin:miter;stroke-width:0.8;"/>
   </g>
   <g id="patch_4">
    <path d="M 46.80625 144.278906 
L 219.01025 144.278906 
" style="fill:none;stroke:#000000;stroke-linecap:square;stroke-linejoin:miter;stroke-width:0.8;"/>
   </g>
   <g id="PathCollection_12">
    <defs>
     <path d="M 0 -3.354102 
L -3.354102 3.354102 
L 3.354102 3.354102 
z
" id="m3ce49ecae6" style="stroke:#9e9ac8;"/>
    </defs>
    <g clip-path="url(#p6721e62d7c)">
     <use style="fill:#9e9ac8;stroke:#9e9ac8;" x="59.379492" xlink:href="#m3ce49ecae6" y="140.346637"/>
    </g>
   </g>
   <g id="PathCollection_13">
    <defs>
     <path d="M -3.354102 3.354102 
L 3.354102 3.354102 
L 3.354102 -3.354102 
L -3.354102 -3.354102 
z
" id="m7a3b55f5c6" style="stroke:#5b3495;"/>
    </defs>
    <g clip-path="url(#p6721e62d7c)">
     <use style="fill:#5b3495;stroke:#5b3495;" x="88.057049" xlink:href="#m7a3b55f5c6" y="124.332921"/>
    </g>
   </g>
   <g id="PathCollection_14">
    <defs>
     <path d="M -0 4.743416 
L 4.743416 0 
L 0 -4.743416 
L -4.743416 -0 
z
" id="m49b42a4617" style="stroke:#3f007d;"/>
    </defs>
    <g clip-path="url(#p6721e62d7c)">
     <use style="fill:#3f007d;stroke:#3f007d;" x="107.358173" xlink:href="#m49b42a4617" y="113.555061"/>
    </g>
   </g>
  </g>
 </g>
 <defs>
  <clipPath id="p6721e62d7c">
   <rect height="133.5" width="172.204" x="46.80625" y="10.778906"/>
  </clipPath>
 </defs>
</svg>
