<?xml version="1.0" encoding="utf-8" standalone="no"?>
<!DOCTYPE svg PUBLIC "-//W3C//DTD SVG 1.1//EN"
  "http://www.w3.org/Graphics/SVG/1.1/DTD/svg11.dtd">
<!-- Created with matplotlib (https://matplotlib.org/) -->
<svg height="159.99945pt" version="1.1" viewBox="0 0 251.4181 159.99945" width="251.4181pt" xmlns="http://www.w3.org/2000/svg" xmlns:xlink="http://www.w3.org/1999/xlink">
 <metadata>
  <rdf:RDF xmlns:cc="http://creativecommons.org/ns#" xmlns:dc="http://purl.org/dc/elements/1.1/" xmlns:rdf="http://www.w3.org/1999/02/22-rdf-syntax-ns#">
   <cc:Work>
    <dc:type rdf:resource="http://purl.org/dc/dcmitype/StillImage"/>
    <dc:date>2024-02-21T12:39:15.918212</dc:date>
    <dc:format>image/svg+xml</dc:format>
    <dc:creator>
     <cc:Agent>
      <dc:title>Matplotlib v3.3.4, https://matplotlib.org/</dc:title>
     </cc:Agent>
    </dc:creator>
   </cc:Work>
  </rdf:RDF>
 </metadata>
 <defs>
  <style type="text/css">*{stroke-linecap:butt;stroke-linejoin:round;}</style>
 </defs>
 <g id="figure_1">
  <g id="patch_1">
   <path d="M 0 159.99945 
L 251.4181 159.99945 
L 251.4181 0 
L 0 0 
z
" style="fill:none;"/>
  </g>
  <g id="axes_1">
   <g id="patch_2">
    <path d="M 50.14375 122.4432 
L 234.67435 122.4432 
L 234.67435 7.2 
L 50.14375 7.2 
z
" style="fill:none;"/>
   </g>
   <g id="PathCollection_1">
    <defs>
     <path d="M 0 3 
C 0.795609 3 1.55874 2.683901 2.12132 2.12132 
C 2.683901 1.55874 3 0.795609 3 0 
C 3 -0.795609 2.683901 -1.55874 2.12132 -2.12132 
C 1.55874 -2.683901 0.795609 -3 0 -3 
C -0.795609 -3 -1.55874 -2.683901 -2.12132 -2.12132 
C -2.683901 -1.55874 -3 -0.795609 -3 0 
C -3 0.795609 -2.683901 1.55874 -2.12132 2.12132 
C -1.55874 2.683901 -0.795609 3 0 3 
z
" id="mc8b4197d45" style="stroke:#3f007d;"/>
    </defs>
    <g clip-path="url(#pfefdd4e15c)">
     <use style="fill:#3f007d;stroke:#3f007d;" x="60.688356" xlink:href="#mc8b4197d45" y="114.491607"/>
     <use style="fill:#3f007d;stroke:#3f007d;" x="63.728717" xlink:href="#mc8b4197d45" y="98.722827"/>
     <use style="fill:#3f007d;stroke:#3f007d;" x="64.466839" xlink:href="#mc8b4197d45" y="79.193714"/>
     <use style="fill:#3f007d;stroke:#3f007d;" x="66.347294" xlink:href="#mc8b4197d45" y="71.805833"/>
     <use style="fill:#3f007d;stroke:#3f007d;" x="68.227749" xlink:href="#mc8b4197d45" y="59.283408"/>
     <use style="fill:#3f007d;stroke:#3f007d;" x="70.108203" xlink:href="#mc8b4197d45" y="60.052356"/>
     <use style="fill:#3f007d;stroke:#3f007d;" x="72.006233" xlink:href="#mc8b4197d45" y="61.656387"/>
     <use style="fill:#3f007d;stroke:#3f007d;" x="73.886687" xlink:href="#mc8b4197d45" y="62.84106"/>
     <use style="fill:#3f007d;stroke:#3f007d;" x="75.767142" xlink:href="#mc8b4197d45" y="53.333705"/>
     <use style="fill:#3f007d;stroke:#3f007d;" x="77.665171" xlink:href="#mc8b4197d45" y="50.667019"/>
     <use style="fill:#3f007d;stroke:#3f007d;" x="79.545626" xlink:href="#mc8b4197d45" y="57.883076"/>
     <use style="fill:#3f007d;stroke:#3f007d;" x="81.42608" xlink:href="#mc8b4197d45" y="49.351023"/>
     <use style="fill:#3f007d;stroke:#3f007d;" x="83.324109" xlink:href="#mc8b4197d45" y="57.614007"/>
     <use style="fill:#3f007d;stroke:#3f007d;" x="85.204564" xlink:href="#mc8b4197d45" y="52.465032"/>
     <use style="fill:#3f007d;stroke:#3f007d;" x="87.418931" xlink:href="#mc8b4197d45" y="60.52705"/>
     <use style="fill:#3f007d;stroke:#3f007d;" x="90.459293" xlink:href="#mc8b4197d45" y="64.030305"/>
     <use style="fill:#3f007d;stroke:#3f007d;" x="90.863502" xlink:href="#mc8b4197d45" y="46.576926"/>
     <use style="fill:#3f007d;stroke:#3f007d;" x="92.743957" xlink:href="#mc8b4197d45" y="48.012835"/>
     <use style="fill:#3f007d;stroke:#3f007d;" x="94.624412" xlink:href="#mc8b4197d45" y="54.97071"/>
     <use style="fill:#3f007d;stroke:#3f007d;" x="96.522441" xlink:href="#mc8b4197d45" y="48.669214"/>
     <use style="fill:#3f007d;stroke:#3f007d;" x="98.402895" xlink:href="#mc8b4197d45" y="44.97109"/>
     <use style="fill:#3f007d;stroke:#3f007d;" x="100.28335" xlink:href="#mc8b4197d45" y="48.666122"/>
     <use style="fill:#3f007d;stroke:#3f007d;" x="102.163805" xlink:href="#mc8b4197d45" y="24.293565"/>
     <use style="fill:#3f007d;stroke:#3f007d;" x="104.061834" xlink:href="#mc8b4197d45" y="47.385357"/>
     <use style="fill:#3f007d;stroke:#3f007d;" x="105.942289" xlink:href="#mc8b4197d45" y="40.743779"/>
     <use style="fill:#3f007d;stroke:#3f007d;" x="107.822743" xlink:href="#mc8b4197d45" y="41.202054"/>
     <use style="fill:#3f007d;stroke:#3f007d;" x="109.720772" xlink:href="#mc8b4197d45" y="42.725563"/>
     <use style="fill:#3f007d;stroke:#3f007d;" x="111.601227" xlink:href="#mc8b4197d45" y="50.6853"/>
     <use style="fill:#3f007d;stroke:#3f007d;" x="114.149507" xlink:href="#mc8b4197d45" y="46.581791"/>
     <use style="fill:#3f007d;stroke:#3f007d;" x="115.379711" xlink:href="#mc8b4197d45" y="51.319037"/>
     <use style="fill:#3f007d;stroke:#3f007d;" x="117.260165" xlink:href="#mc8b4197d45" y="63.065742"/>
     <use style="fill:#3f007d;stroke:#3f007d;" x="119.14062" xlink:href="#mc8b4197d45" y="38.308918"/>
     <use style="fill:#3f007d;stroke:#3f007d;" x="121.021075" xlink:href="#mc8b4197d45" y="40.59368"/>
     <use style="fill:#3f007d;stroke:#3f007d;" x="122.919104" xlink:href="#mc8b4197d45" y="44.189283"/>
     <use style="fill:#3f007d;stroke:#3f007d;" x="124.799558" xlink:href="#mc8b4197d45" y="36.352382"/>
     <use style="fill:#3f007d;stroke:#3f007d;" x="126.680013" xlink:href="#mc8b4197d45" y="39.509204"/>
     <use style="fill:#3f007d;stroke:#3f007d;" x="128.578042" xlink:href="#mc8b4197d45" y="29.816178"/>
     <use style="fill:#3f007d;stroke:#3f007d;" x="130.458497" xlink:href="#mc8b4197d45" y="41.868948"/>
     <use style="fill:#3f007d;stroke:#3f007d;" x="132.338952" xlink:href="#mc8b4197d45" y="47.988842"/>
     <use style="fill:#3f007d;stroke:#3f007d;" x="134.219406" xlink:href="#mc8b4197d45" y="40.790314"/>
     <use style="fill:#3f007d;stroke:#3f007d;" x="136.117435" xlink:href="#mc8b4197d45" y="33.644555"/>
     <use style="fill:#3f007d;stroke:#3f007d;" x="137.99789" xlink:href="#mc8b4197d45" y="36.073688"/>
     <use style="fill:#3f007d;stroke:#3f007d;" x="140.897657" xlink:href="#mc8b4197d45" y="40.003071"/>
     <use style="fill:#3f007d;stroke:#3f007d;" x="141.776374" xlink:href="#mc8b4197d45" y="33.634555"/>
     <use style="fill:#3f007d;stroke:#3f007d;" x="143.656828" xlink:href="#mc8b4197d45" y="42.826902"/>
     <use style="fill:#3f007d;stroke:#3f007d;" x="145.537283" xlink:href="#mc8b4197d45" y="35.809323"/>
     <use style="fill:#3f007d;stroke:#3f007d;" x="147.435312" xlink:href="#mc8b4197d45" y="36.094152"/>
     <use style="fill:#3f007d;stroke:#3f007d;" x="149.315767" xlink:href="#mc8b4197d45" y="39.278993"/>
     <use style="fill:#3f007d;stroke:#3f007d;" x="151.196221" xlink:href="#mc8b4197d45" y="32.449142"/>
     <use style="fill:#3f007d;stroke:#3f007d;" x="153.076676" xlink:href="#mc8b4197d45" y="30.05587"/>
     <use style="fill:#3f007d;stroke:#3f007d;" x="154.974705" xlink:href="#mc8b4197d45" y="33.894201"/>
     <use style="fill:#3f007d;stroke:#3f007d;" x="156.85516" xlink:href="#mc8b4197d45" y="36.586472"/>
     <use style="fill:#3f007d;stroke:#3f007d;" x="158.735615" xlink:href="#mc8b4197d45" y="40.612439"/>
     <use style="fill:#3f007d;stroke:#3f007d;" x="160.633644" xlink:href="#mc8b4197d45" y="44.440133"/>
     <use style="fill:#3f007d;stroke:#3f007d;" x="162.514098" xlink:href="#mc8b4197d45" y="43.161685"/>
     <use style="fill:#3f007d;stroke:#3f007d;" x="164.587871" xlink:href="#mc8b4197d45" y="37.910791"/>
     <use style="fill:#3f007d;stroke:#3f007d;" x="167.628232" xlink:href="#mc8b4197d45" y="33.36454"/>
     <use style="fill:#3f007d;stroke:#3f007d;" x="168.173037" xlink:href="#mc8b4197d45" y="44.368728"/>
     <use style="fill:#3f007d;stroke:#3f007d;" x="170.053491" xlink:href="#mc8b4197d45" y="43.335791"/>
     <use style="fill:#3f007d;stroke:#3f007d;" x="171.933946" xlink:href="#mc8b4197d45" y="34.916895"/>
     <use style="fill:#3f007d;stroke:#3f007d;" x="173.831975" xlink:href="#mc8b4197d45" y="35.31433"/>
     <use style="fill:#3f007d;stroke:#3f007d;" x="175.71243" xlink:href="#mc8b4197d45" y="37.274353"/>
     <use style="fill:#3f007d;stroke:#3f007d;" x="177.592884" xlink:href="#mc8b4197d45" y="40.561015"/>
     <use style="fill:#3f007d;stroke:#3f007d;" x="179.490913" xlink:href="#mc8b4197d45" y="42.700982"/>
     <use style="fill:#3f007d;stroke:#3f007d;" x="181.371368" xlink:href="#mc8b4197d45" y="26.468907"/>
     <use style="fill:#3f007d;stroke:#3f007d;" x="183.251823" xlink:href="#mc8b4197d45" y="39.614886"/>
     <use style="fill:#3f007d;stroke:#3f007d;" x="185.149852" xlink:href="#mc8b4197d45" y="28.537169"/>
     <use style="fill:#3f007d;stroke:#3f007d;" x="187.030307" xlink:href="#mc8b4197d45" y="28.800991"/>
     <use style="fill:#3f007d;stroke:#3f007d;" x="188.910761" xlink:href="#mc8b4197d45" y="24.897043"/>
     <use style="fill:#3f007d;stroke:#3f007d;" x="191.336021" xlink:href="#mc8b4197d45" y="29.111059"/>
     <use style="fill:#3f007d;stroke:#3f007d;" x="192.689245" xlink:href="#mc8b4197d45" y="29.324644"/>
     <use style="fill:#3f007d;stroke:#3f007d;" x="194.5697" xlink:href="#mc8b4197d45" y="27.695132"/>
     <use style="fill:#3f007d;stroke:#3f007d;" x="196.450154" xlink:href="#mc8b4197d45" y="38.998164"/>
     <use style="fill:#3f007d;stroke:#3f007d;" x="198.348183" xlink:href="#mc8b4197d45" y="25.65974"/>
     <use style="fill:#3f007d;stroke:#3f007d;" x="200.228638" xlink:href="#mc8b4197d45" y="33.743804"/>
     <use style="fill:#3f007d;stroke:#3f007d;" x="202.109093" xlink:href="#mc8b4197d45" y="40.748899"/>
     <use style="fill:#3f007d;stroke:#3f007d;" x="203.989547" xlink:href="#mc8b4197d45" y="34.45039"/>
     <use style="fill:#3f007d;stroke:#3f007d;" x="205.887576" xlink:href="#mc8b4197d45" y="28.664224"/>
     <use style="fill:#3f007d;stroke:#3f007d;" x="207.768031" xlink:href="#mc8b4197d45" y="30.151876"/>
     <use style="fill:#3f007d;stroke:#3f007d;" x="209.648486" xlink:href="#mc8b4197d45" y="32.682467"/>
     <use style="fill:#3f007d;stroke:#3f007d;" x="211.546515" xlink:href="#mc8b4197d45" y="47.113549"/>
     <use style="fill:#3f007d;stroke:#3f007d;" x="213.426969" xlink:href="#mc8b4197d45" y="12.438327"/>
     <use style="fill:#3f007d;stroke:#3f007d;" x="215.307424" xlink:href="#mc8b4197d45" y="29.582205"/>
     <use style="fill:#3f007d;stroke:#3f007d;" x="218.08417" xlink:href="#mc8b4197d45" y="38.477035"/>
     <use style="fill:#3f007d;stroke:#3f007d;" x="219.085908" xlink:href="#mc8b4197d45" y="33.294841"/>
     <use style="fill:#3f007d;stroke:#3f007d;" x="220.966363" xlink:href="#mc8b4197d45" y="32.211268"/>
    </g>
   </g>
   <g id="matplotlib.axis_1">
    <g id="xtick_1">
     <g id="line2d_1">
      <defs>
       <path d="M 0 0 
L 0 3.5 
" id="m8f3f642b13" style="stroke:#000000;stroke-width:0.8;"/>
      </defs>
      <g>
       <use style="stroke:#000000;stroke-width:0.8;" x="58.930921" xlink:href="#m8f3f642b13" y="122.4432"/>
      </g>
     </g>
     <g id="text_1">
      <!-- 0 -->
      <g transform="translate(55.749671 137.041638)scale(0.1 -0.1)">
       <defs>
        <path d="M 31.78125 66.40625 
Q 24.171875 66.40625 20.328125 58.90625 
Q 16.5 51.421875 16.5 36.375 
Q 16.5 21.390625 20.328125 13.890625 
Q 24.171875 6.390625 31.78125 6.390625 
Q 39.453125 6.390625 43.28125 13.890625 
Q 47.125 21.390625 47.125 36.375 
Q 47.125 51.421875 43.28125 58.90625 
Q 39.453125 66.40625 31.78125 66.40625 
z
M 31.78125 74.21875 
Q 44.046875 74.21875 50.515625 64.515625 
Q 56.984375 54.828125 56.984375 36.375 
Q 56.984375 17.96875 50.515625 8.265625 
Q 44.046875 -1.421875 31.78125 -1.421875 
Q 19.53125 -1.421875 13.0625 8.265625 
Q 6.59375 17.96875 6.59375 36.375 
Q 6.59375 54.828125 13.0625 64.515625 
Q 19.53125 74.21875 31.78125 74.21875 
z
" id="DejaVuSans-48"/>
       </defs>
       <use xlink:href="#DejaVuSans-48"/>
      </g>
     </g>
    </g>
    <g id="xtick_2">
     <g id="line2d_2">
      <g>
       <use style="stroke:#000000;stroke-width:0.8;" x="94.079607" xlink:href="#m8f3f642b13" y="122.4432"/>
      </g>
     </g>
     <g id="text_2">
      <!-- 20 -->
      <g transform="translate(87.717107 137.041638)scale(0.1 -0.1)">
       <defs>
        <path d="M 19.1875 8.296875 
L 53.609375 8.296875 
L 53.609375 0 
L 7.328125 0 
L 7.328125 8.296875 
Q 12.9375 14.109375 22.625 23.890625 
Q 32.328125 33.6875 34.8125 36.53125 
Q 39.546875 41.84375 41.421875 45.53125 
Q 43.3125 49.21875 43.3125 52.78125 
Q 43.3125 58.59375 39.234375 62.25 
Q 35.15625 65.921875 28.609375 65.921875 
Q 23.96875 65.921875 18.8125 64.3125 
Q 13.671875 62.703125 7.8125 59.421875 
L 7.8125 69.390625 
Q 13.765625 71.78125 18.9375 73 
Q 24.125 74.21875 28.421875 74.21875 
Q 39.75 74.21875 46.484375 68.546875 
Q 53.21875 62.890625 53.21875 53.421875 
Q 53.21875 48.921875 51.53125 44.890625 
Q 49.859375 40.875 45.40625 35.40625 
Q 44.1875 33.984375 37.640625 27.21875 
Q 31.109375 20.453125 19.1875 8.296875 
z
" id="DejaVuSans-50"/>
       </defs>
       <use xlink:href="#DejaVuSans-50"/>
       <use x="63.623047" xlink:href="#DejaVuSans-48"/>
      </g>
     </g>
    </g>
    <g id="xtick_3">
     <g id="line2d_3">
      <g>
       <use style="stroke:#000000;stroke-width:0.8;" x="129.228293" xlink:href="#m8f3f642b13" y="122.4432"/>
      </g>
     </g>
     <g id="text_3">
      <!-- 40 -->
      <g transform="translate(122.865793 137.041638)scale(0.1 -0.1)">
       <defs>
        <path d="M 37.796875 64.3125 
L 12.890625 25.390625 
L 37.796875 25.390625 
z
M 35.203125 72.90625 
L 47.609375 72.90625 
L 47.609375 25.390625 
L 58.015625 25.390625 
L 58.015625 17.1875 
L 47.609375 17.1875 
L 47.609375 0 
L 37.796875 0 
L 37.796875 17.1875 
L 4.890625 17.1875 
L 4.890625 26.703125 
z
" id="DejaVuSans-52"/>
       </defs>
       <use xlink:href="#DejaVuSans-52"/>
       <use x="63.623047" xlink:href="#DejaVuSans-48"/>
      </g>
     </g>
    </g>
    <g id="xtick_4">
     <g id="line2d_4">
      <g>
       <use style="stroke:#000000;stroke-width:0.8;" x="164.376979" xlink:href="#m8f3f642b13" y="122.4432"/>
      </g>
     </g>
     <g id="text_4">
      <!-- 60 -->
      <g transform="translate(158.014479 137.041638)scale(0.1 -0.1)">
       <defs>
        <path d="M 33.015625 40.375 
Q 26.375 40.375 22.484375 35.828125 
Q 18.609375 31.296875 18.609375 23.390625 
Q 18.609375 15.53125 22.484375 10.953125 
Q 26.375 6.390625 33.015625 6.390625 
Q 39.65625 6.390625 43.53125 10.953125 
Q 47.40625 15.53125 47.40625 23.390625 
Q 47.40625 31.296875 43.53125 35.828125 
Q 39.65625 40.375 33.015625 40.375 
z
M 52.59375 71.296875 
L 52.59375 62.3125 
Q 48.875 64.0625 45.09375 64.984375 
Q 41.3125 65.921875 37.59375 65.921875 
Q 27.828125 65.921875 22.671875 59.328125 
Q 17.53125 52.734375 16.796875 39.40625 
Q 19.671875 43.65625 24.015625 45.921875 
Q 28.375 48.1875 33.59375 48.1875 
Q 44.578125 48.1875 50.953125 41.515625 
Q 57.328125 34.859375 57.328125 23.390625 
Q 57.328125 12.15625 50.6875 5.359375 
Q 44.046875 -1.421875 33.015625 -1.421875 
Q 20.359375 -1.421875 13.671875 8.265625 
Q 6.984375 17.96875 6.984375 36.375 
Q 6.984375 53.65625 15.1875 63.9375 
Q 23.390625 74.21875 37.203125 74.21875 
Q 40.921875 74.21875 44.703125 73.484375 
Q 48.484375 72.75 52.59375 71.296875 
z
" id="DejaVuSans-54"/>
       </defs>
       <use xlink:href="#DejaVuSans-54"/>
       <use x="63.623047" xlink:href="#DejaVuSans-48"/>
      </g>
     </g>
    </g>
    <g id="xtick_5">
     <g id="line2d_5">
      <g>
       <use style="stroke:#000000;stroke-width:0.8;" x="199.525664" xlink:href="#m8f3f642b13" y="122.4432"/>
      </g>
     </g>
     <g id="text_5">
      <!-- 80 -->
      <g transform="translate(193.163164 137.041638)scale(0.1 -0.1)">
       <defs>
        <path d="M 31.78125 34.625 
Q 24.75 34.625 20.71875 30.859375 
Q 16.703125 27.09375 16.703125 20.515625 
Q 16.703125 13.921875 20.71875 10.15625 
Q 24.75 6.390625 31.78125 6.390625 
Q 38.8125 6.390625 42.859375 10.171875 
Q 46.921875 13.96875 46.921875 20.515625 
Q 46.921875 27.09375 42.890625 30.859375 
Q 38.875 34.625 31.78125 34.625 
z
M 21.921875 38.8125 
Q 15.578125 40.375 12.03125 44.71875 
Q 8.5 49.078125 8.5 55.328125 
Q 8.5 64.0625 14.71875 69.140625 
Q 20.953125 74.21875 31.78125 74.21875 
Q 42.671875 74.21875 48.875 69.140625 
Q 55.078125 64.0625 55.078125 55.328125 
Q 55.078125 49.078125 51.53125 44.71875 
Q 48 40.375 41.703125 38.8125 
Q 48.828125 37.15625 52.796875 32.3125 
Q 56.78125 27.484375 56.78125 20.515625 
Q 56.78125 9.90625 50.3125 4.234375 
Q 43.84375 -1.421875 31.78125 -1.421875 
Q 19.734375 -1.421875 13.25 4.234375 
Q 6.78125 9.90625 6.78125 20.515625 
Q 6.78125 27.484375 10.78125 32.3125 
Q 14.796875 37.15625 21.921875 38.8125 
z
M 18.3125 54.390625 
Q 18.3125 48.734375 21.84375 45.5625 
Q 25.390625 42.390625 31.78125 42.390625 
Q 38.140625 42.390625 41.71875 45.5625 
Q 45.3125 48.734375 45.3125 54.390625 
Q 45.3125 60.0625 41.71875 63.234375 
Q 38.140625 66.40625 31.78125 66.40625 
Q 25.390625 66.40625 21.84375 63.234375 
Q 18.3125 60.0625 18.3125 54.390625 
z
" id="DejaVuSans-56"/>
       </defs>
       <use xlink:href="#DejaVuSans-56"/>
       <use x="63.623047" xlink:href="#DejaVuSans-48"/>
      </g>
     </g>
    </g>
    <g id="xtick_6">
     <g id="line2d_6">
      <g>
       <use style="stroke:#000000;stroke-width:0.8;" x="234.67435" xlink:href="#m8f3f642b13" y="122.4432"/>
      </g>
     </g>
     <g id="text_6">
      <!-- 100 -->
      <g transform="translate(225.1306 137.041638)scale(0.1 -0.1)">
       <defs>
        <path d="M 12.40625 8.296875 
L 28.515625 8.296875 
L 28.515625 63.921875 
L 10.984375 60.40625 
L 10.984375 69.390625 
L 28.421875 72.90625 
L 38.28125 72.90625 
L 38.28125 8.296875 
L 54.390625 8.296875 
L 54.390625 0 
L 12.40625 0 
z
" id="DejaVuSans-49"/>
       </defs>
       <use xlink:href="#DejaVuSans-49"/>
       <use x="63.623047" xlink:href="#DejaVuSans-48"/>
       <use x="127.246094" xlink:href="#DejaVuSans-48"/>
      </g>
     </g>
    </g>
    <g id="text_7">
     <!-- Time (h) -->
     <g transform="translate(121.516081 150.719763)scale(0.1 -0.1)">
      <defs>
       <path d="M -0.296875 72.90625 
L 61.375 72.90625 
L 61.375 64.59375 
L 35.5 64.59375 
L 35.5 0 
L 25.59375 0 
L 25.59375 64.59375 
L -0.296875 64.59375 
z
" id="DejaVuSans-84"/>
       <path d="M 9.421875 54.6875 
L 18.40625 54.6875 
L 18.40625 0 
L 9.421875 0 
z
M 9.421875 75.984375 
L 18.40625 75.984375 
L 18.40625 64.59375 
L 9.421875 64.59375 
z
" id="DejaVuSans-105"/>
       <path d="M 52 44.1875 
Q 55.375 50.25 60.0625 53.125 
Q 64.75 56 71.09375 56 
Q 79.640625 56 84.28125 50.015625 
Q 88.921875 44.046875 88.921875 33.015625 
L 88.921875 0 
L 79.890625 0 
L 79.890625 32.71875 
Q 79.890625 40.578125 77.09375 44.375 
Q 74.3125 48.1875 68.609375 48.1875 
Q 61.625 48.1875 57.5625 43.546875 
Q 53.515625 38.921875 53.515625 30.90625 
L 53.515625 0 
L 44.484375 0 
L 44.484375 32.71875 
Q 44.484375 40.625 41.703125 44.40625 
Q 38.921875 48.1875 33.109375 48.1875 
Q 26.21875 48.1875 22.15625 43.53125 
Q 18.109375 38.875 18.109375 30.90625 
L 18.109375 0 
L 9.078125 0 
L 9.078125 54.6875 
L 18.109375 54.6875 
L 18.109375 46.1875 
Q 21.1875 51.21875 25.484375 53.609375 
Q 29.78125 56 35.6875 56 
Q 41.65625 56 45.828125 52.96875 
Q 50 49.953125 52 44.1875 
z
" id="DejaVuSans-109"/>
       <path d="M 56.203125 29.59375 
L 56.203125 25.203125 
L 14.890625 25.203125 
Q 15.484375 15.921875 20.484375 11.0625 
Q 25.484375 6.203125 34.421875 6.203125 
Q 39.59375 6.203125 44.453125 7.46875 
Q 49.3125 8.734375 54.109375 11.28125 
L 54.109375 2.78125 
Q 49.265625 0.734375 44.1875 -0.34375 
Q 39.109375 -1.421875 33.890625 -1.421875 
Q 20.796875 -1.421875 13.15625 6.1875 
Q 5.515625 13.8125 5.515625 26.8125 
Q 5.515625 40.234375 12.765625 48.109375 
Q 20.015625 56 32.328125 56 
Q 43.359375 56 49.78125 48.890625 
Q 56.203125 41.796875 56.203125 29.59375 
z
M 47.21875 32.234375 
Q 47.125 39.59375 43.09375 43.984375 
Q 39.0625 48.390625 32.421875 48.390625 
Q 24.90625 48.390625 20.390625 44.140625 
Q 15.875 39.890625 15.1875 32.171875 
z
" id="DejaVuSans-101"/>
       <path id="DejaVuSans-32"/>
       <path d="M 31 75.875 
Q 24.46875 64.65625 21.28125 53.65625 
Q 18.109375 42.671875 18.109375 31.390625 
Q 18.109375 20.125 21.3125 9.0625 
Q 24.515625 -2 31 -13.1875 
L 23.1875 -13.1875 
Q 15.875 -1.703125 12.234375 9.375 
Q 8.59375 20.453125 8.59375 31.390625 
Q 8.59375 42.28125 12.203125 53.3125 
Q 15.828125 64.359375 23.1875 75.875 
z
" id="DejaVuSans-40"/>
       <path d="M 54.890625 33.015625 
L 54.890625 0 
L 45.90625 0 
L 45.90625 32.71875 
Q 45.90625 40.484375 42.875 44.328125 
Q 39.84375 48.1875 33.796875 48.1875 
Q 26.515625 48.1875 22.3125 43.546875 
Q 18.109375 38.921875 18.109375 30.90625 
L 18.109375 0 
L 9.078125 0 
L 9.078125 75.984375 
L 18.109375 75.984375 
L 18.109375 46.1875 
Q 21.34375 51.125 25.703125 53.5625 
Q 30.078125 56 35.796875 56 
Q 45.21875 56 50.046875 50.171875 
Q 54.890625 44.34375 54.890625 33.015625 
z
" id="DejaVuSans-104"/>
       <path d="M 8.015625 75.875 
L 15.828125 75.875 
Q 23.140625 64.359375 26.78125 53.3125 
Q 30.421875 42.28125 30.421875 31.390625 
Q 30.421875 20.453125 26.78125 9.375 
Q 23.140625 -1.703125 15.828125 -13.1875 
L 8.015625 -13.1875 
Q 14.5 -2 17.703125 9.0625 
Q 20.90625 20.125 20.90625 31.390625 
Q 20.90625 42.671875 17.703125 53.65625 
Q 14.5 64.65625 8.015625 75.875 
z
" id="DejaVuSans-41"/>
      </defs>
      <use xlink:href="#DejaVuSans-84"/>
      <use x="57.958984" xlink:href="#DejaVuSans-105"/>
      <use x="85.742188" xlink:href="#DejaVuSans-109"/>
      <use x="183.154297" xlink:href="#DejaVuSans-101"/>
      <use x="244.677734" xlink:href="#DejaVuSans-32"/>
      <use x="276.464844" xlink:href="#DejaVuSans-40"/>
      <use x="315.478516" xlink:href="#DejaVuSans-104"/>
      <use x="378.857422" xlink:href="#DejaVuSans-41"/>
     </g>
    </g>
   </g>
   <g id="matplotlib.axis_2">
    <g id="ytick_1">
     <g id="line2d_7">
      <defs>
       <path d="M 0 0 
L -3.5 0 
" id="m2fc1f9c741" style="stroke:#000000;stroke-width:0.8;"/>
      </defs>
      <g>
       <use style="stroke:#000000;stroke-width:0.8;" x="50.14375" xlink:href="#m2fc1f9c741" y="118.709615"/>
      </g>
     </g>
     <g id="text_8">
      <!-- 0.15 -->
      <g transform="translate(20.878125 122.508834)scale(0.1 -0.1)">
       <defs>
        <path d="M 10.6875 12.40625 
L 21 12.40625 
L 21 0 
L 10.6875 0 
z
" id="DejaVuSans-46"/>
        <path d="M 10.796875 72.90625 
L 49.515625 72.90625 
L 49.515625 64.59375 
L 19.828125 64.59375 
L 19.828125 46.734375 
Q 21.96875 47.46875 24.109375 47.828125 
Q 26.265625 48.1875 28.421875 48.1875 
Q 40.625 48.1875 47.75 41.5 
Q 54.890625 34.8125 54.890625 23.390625 
Q 54.890625 11.625 47.5625 5.09375 
Q 40.234375 -1.421875 26.90625 -1.421875 
Q 22.3125 -1.421875 17.546875 -0.640625 
Q 12.796875 0.140625 7.71875 1.703125 
L 7.71875 11.625 
Q 12.109375 9.234375 16.796875 8.0625 
Q 21.484375 6.890625 26.703125 6.890625 
Q 35.15625 6.890625 40.078125 11.328125 
Q 45.015625 15.765625 45.015625 23.390625 
Q 45.015625 31 40.078125 35.4375 
Q 35.15625 39.890625 26.703125 39.890625 
Q 22.75 39.890625 18.8125 39.015625 
Q 14.890625 38.140625 10.796875 36.28125 
z
" id="DejaVuSans-53"/>
       </defs>
       <use xlink:href="#DejaVuSans-48"/>
       <use x="63.623047" xlink:href="#DejaVuSans-46"/>
       <use x="95.410156" xlink:href="#DejaVuSans-49"/>
       <use x="159.033203" xlink:href="#DejaVuSans-53"/>
      </g>
     </g>
    </g>
    <g id="ytick_2">
     <g id="line2d_8">
      <g>
       <use style="stroke:#000000;stroke-width:0.8;" x="50.14375" xlink:href="#m2fc1f9c741" y="90.310071"/>
      </g>
     </g>
     <g id="text_9">
      <!-- 0.20 -->
      <g transform="translate(20.878125 94.10929)scale(0.1 -0.1)">
       <use xlink:href="#DejaVuSans-48"/>
       <use x="63.623047" xlink:href="#DejaVuSans-46"/>
       <use x="95.410156" xlink:href="#DejaVuSans-50"/>
       <use x="159.033203" xlink:href="#DejaVuSans-48"/>
      </g>
     </g>
    </g>
    <g id="ytick_3">
     <g id="line2d_9">
      <g>
       <use style="stroke:#000000;stroke-width:0.8;" x="50.14375" xlink:href="#m2fc1f9c741" y="61.910527"/>
      </g>
     </g>
     <g id="text_10">
      <!-- 0.25 -->
      <g transform="translate(20.878125 65.709746)scale(0.1 -0.1)">
       <use xlink:href="#DejaVuSans-48"/>
       <use x="63.623047" xlink:href="#DejaVuSans-46"/>
       <use x="95.410156" xlink:href="#DejaVuSans-50"/>
       <use x="159.033203" xlink:href="#DejaVuSans-53"/>
      </g>
     </g>
    </g>
    <g id="ytick_4">
     <g id="line2d_10">
      <g>
       <use style="stroke:#000000;stroke-width:0.8;" x="50.14375" xlink:href="#m2fc1f9c741" y="33.510983"/>
      </g>
     </g>
     <g id="text_11">
      <!-- 0.30 -->
      <g transform="translate(20.878125 37.310202)scale(0.1 -0.1)">
       <defs>
        <path d="M 40.578125 39.3125 
Q 47.65625 37.796875 51.625 33 
Q 55.609375 28.21875 55.609375 21.1875 
Q 55.609375 10.40625 48.1875 4.484375 
Q 40.765625 -1.421875 27.09375 -1.421875 
Q 22.515625 -1.421875 17.65625 -0.515625 
Q 12.796875 0.390625 7.625 2.203125 
L 7.625 11.71875 
Q 11.71875 9.328125 16.59375 8.109375 
Q 21.484375 6.890625 26.8125 6.890625 
Q 36.078125 6.890625 40.9375 10.546875 
Q 45.796875 14.203125 45.796875 21.1875 
Q 45.796875 27.640625 41.28125 31.265625 
Q 36.765625 34.90625 28.71875 34.90625 
L 20.21875 34.90625 
L 20.21875 43.015625 
L 29.109375 43.015625 
Q 36.375 43.015625 40.234375 45.921875 
Q 44.09375 48.828125 44.09375 54.296875 
Q 44.09375 59.90625 40.109375 62.90625 
Q 36.140625 65.921875 28.71875 65.921875 
Q 24.65625 65.921875 20.015625 65.03125 
Q 15.375 64.15625 9.8125 62.3125 
L 9.8125 71.09375 
Q 15.4375 72.65625 20.34375 73.4375 
Q 25.25 74.21875 29.59375 74.21875 
Q 40.828125 74.21875 47.359375 69.109375 
Q 53.90625 64.015625 53.90625 55.328125 
Q 53.90625 49.265625 50.4375 45.09375 
Q 46.96875 40.921875 40.578125 39.3125 
z
" id="DejaVuSans-51"/>
       </defs>
       <use xlink:href="#DejaVuSans-48"/>
       <use x="63.623047" xlink:href="#DejaVuSans-46"/>
       <use x="95.410156" xlink:href="#DejaVuSans-51"/>
       <use x="159.033203" xlink:href="#DejaVuSans-48"/>
      </g>
     </g>
    </g>
    <g id="text_12">
     <!-- $a/a_{100}$ -->
     <g transform="translate(14.798437 79.4716)rotate(-90)scale(0.1 -0.1)">
      <defs>
       <path d="M 53.71875 31.203125 
L 47.609375 0 
L 38.625 0 
L 40.28125 8.296875 
Q 36.328125 3.421875 31.265625 1 
Q 26.21875 -1.421875 20.015625 -1.421875 
Q 13.03125 -1.421875 8.5625 2.84375 
Q 4.109375 7.125 4.109375 13.8125 
Q 4.109375 23.390625 11.75 28.953125 
Q 19.390625 34.515625 32.8125 34.515625 
L 45.3125 34.515625 
L 45.796875 36.921875 
Q 45.90625 37.3125 45.953125 37.765625 
Q 46 38.234375 46 39.203125 
Q 46 43.5625 42.453125 45.96875 
Q 38.921875 48.390625 32.515625 48.390625 
Q 28.125 48.390625 23.5 47.265625 
Q 18.890625 46.140625 14.015625 43.890625 
L 15.578125 52.203125 
Q 20.65625 54.109375 25.515625 55.046875 
Q 30.375 56 34.90625 56 
Q 44.578125 56 49.625 51.796875 
Q 54.6875 47.609375 54.6875 39.59375 
Q 54.6875 37.984375 54.4375 35.8125 
Q 54.203125 33.640625 53.71875 31.203125 
z
M 44 27.484375 
L 35.015625 27.484375 
Q 23.96875 27.484375 18.671875 24.53125 
Q 13.375 21.578125 13.375 15.375 
Q 13.375 11.078125 16.078125 8.640625 
Q 18.796875 6.203125 23.578125 6.203125 
Q 30.90625 6.203125 36.375 11.453125 
Q 41.84375 16.703125 43.609375 25.484375 
z
" id="DejaVuSans-Oblique-97"/>
       <path d="M 25.390625 72.90625 
L 33.6875 72.90625 
L 8.296875 -9.28125 
L 0 -9.28125 
z
" id="DejaVuSans-47"/>
      </defs>
      <use transform="translate(0 0.09375)" xlink:href="#DejaVuSans-Oblique-97"/>
      <use transform="translate(61.279297 0.09375)" xlink:href="#DejaVuSans-47"/>
      <use transform="translate(94.970703 0.09375)" xlink:href="#DejaVuSans-Oblique-97"/>
      <use transform="translate(156.25 -16.3125)scale(0.7)" xlink:href="#DejaVuSans-49"/>
      <use transform="translate(200.786133 -16.3125)scale(0.7)" xlink:href="#DejaVuSans-48"/>
      <use transform="translate(245.322266 -16.3125)scale(0.7)" xlink:href="#DejaVuSans-48"/>
     </g>
    </g>
   </g>
   <g id="line2d_11">
    <path clip-path="url(#pfefdd4e15c)" d="M 60.688356 117.204873 
L 63.728717 86.815604 
L 64.466839 82.134202 
L 66.347294 73.187943 
L 68.227749 67.245606 
L 70.108203 63.211952 
L 72.006233 60.371311 
L 73.886687 58.334507 
L 75.767142 56.793387 
L 77.665171 55.562121 
L 79.545626 54.551572 
L 81.42608 53.678754 
L 83.324109 52.892058 
L 85.204564 52.177464 
L 87.418931 51.394489 
L 90.459293 50.392409 
L 90.863502 50.26421 
L 92.743957 49.680809 
L 94.624412 49.116656 
L 96.522441 48.564565 
L 98.402895 48.033267 
L 100.28335 47.516514 
L 102.163805 47.013518 
L 104.061834 46.519151 
L 105.942289 46.042062 
L 107.822743 45.577189 
L 109.720772 45.119977 
L 111.601227 44.678549 
L 114.149507 44.098136 
L 115.379711 43.825065 
L 117.260165 43.416391 
L 119.14062 43.018035 
L 121.021075 42.629734 
L 122.919104 42.247738 
L 124.799558 41.878872 
L 126.680013 41.519311 
L 128.578042 41.165586 
L 130.458497 40.824017 
L 132.338952 40.491062 
L 134.219406 40.166506 
L 136.117435 39.847216 
L 137.99789 39.538898 
L 140.897657 39.078626 
L 141.776374 38.942691 
L 143.656828 38.657186 
L 145.537283 38.378882 
L 147.435312 38.105094 
L 149.315767 37.840714 
L 151.196221 37.583002 
L 153.076676 37.331789 
L 154.974705 37.084654 
L 156.85516 36.84601 
L 158.735615 36.613385 
L 160.633644 36.384535 
L 162.514098 36.163549 
L 164.587871 35.926302 
L 167.628232 35.590334 
L 168.173037 35.531585 
L 170.053491 35.332111 
L 171.933946 35.137668 
L 173.831975 34.94638 
L 175.71243 34.761665 
L 177.592884 34.581609 
L 179.490913 34.404475 
L 181.371368 34.233428 
L 183.251823 34.066695 
L 185.149852 33.902667 
L 187.030307 33.744276 
L 188.910761 33.589879 
L 191.336021 33.396487 
L 192.689245 33.291317 
L 194.5697 33.148344 
L 196.450154 33.008978 
L 198.348183 32.871873 
L 200.228638 32.739479 
L 202.109093 32.610424 
L 203.989547 32.484625 
L 205.887576 32.360866 
L 207.768031 32.24136 
L 209.648486 32.124869 
L 211.546515 32.010267 
L 213.426969 31.899604 
L 215.307424 31.791732 
L 218.08417 31.637399 
L 219.085908 31.583135 
L 220.966363 31.483244 
" style="fill:none;stroke:#7262ac;stroke-linecap:square;stroke-width:1.5;"/>
   </g>
   <g id="patch_3">
    <path d="M 50.14375 122.4432 
L 50.14375 7.2 
" style="fill:none;stroke:#000000;stroke-linecap:square;stroke-linejoin:miter;stroke-width:0.8;"/>
   </g>
   <g id="patch_4">
    <path d="M 50.14375 122.4432 
L 234.67435 122.4432 
" style="fill:none;stroke:#000000;stroke-linecap:square;stroke-linejoin:miter;stroke-width:0.8;"/>
   </g>
  </g>
 </g>
 <defs>
  <clipPath id="pfefdd4e15c">
   <rect height="115.2432" width="184.5306" x="50.14375" y="7.2"/>
  </clipPath>
 </defs>
</svg>
